<svg width="20" height="21" viewBox="0 0 20 21" fill="none" xmlns="http://www.w3.org/2000/svg">
<path d="M10 20.1621C15.5228 20.1621 20 15.685 20 10.1621C20 4.63926 15.5228 0.162109 10 0.162109C4.47715 0.162109 0 4.63926 0 10.1621C0 15.685 4.47715 20.1621 10 20.1621Z" fill="#FF3378"/>
<path d="M11.06 10.1622L13.36 7.86222C13.65 7.57222 13.65 7.09222 13.36 6.80222C13.07 6.51222 12.59 6.51222 12.3 6.80222L10 9.10222L7.7 6.80222C7.41 6.51222 6.93 6.51222 6.64 6.80222C6.35 7.09222 6.35 7.57222 6.64 7.86222L8.94 10.1622L6.64 12.4622C6.35 12.7522 6.35 13.2322 6.64 13.5222C6.79 13.6722 6.98 13.7422 7.17 13.7422C7.36 13.7422 7.55 13.6722 7.7 13.5222L10 11.2222L12.3 13.5222C12.45 13.6722 12.64 13.7422 12.83 13.7422C13.02 13.7422 13.21 13.6722 13.36 13.5222C13.65 13.2322 13.65 12.7522 13.36 12.4622L11.06 10.1622Z" fill="white"/>
</svg>
