<svg width="20" height="21" viewBox="0 0 20 21" fill="none" xmlns="http://www.w3.org/2000/svg">
<path d="M10 20.1621C15.5228 20.1621 20 15.685 20 10.1621C20 4.63926 15.5228 0.162109 10 0.162109C4.47715 0.162109 0 4.63926 0 10.1621C0 15.685 4.47715 20.1621 10 20.1621Z" fill="#37BEC1"/>
<path d="M8.58 13.7422C8.38 13.7422 8.19 13.6622 8.05 13.5222L5.22 10.6922C4.93 10.4022 4.93 9.92221 5.22 9.63221C5.51 9.34221 5.99 9.34221 6.28 9.63221L8.58 11.9322L13.72 6.79221C14.01 6.50221 14.49 6.50221 14.78 6.79221C15.07 7.08221 15.07 7.56221 14.78 7.85221L9.11 13.5222C8.97 13.6622 8.78 13.7422 8.58 13.7422Z" fill="#FFFFF5"/>
</svg>
