<svg width="388" height="92" viewBox="0 0 388 92" fill="none" xmlns="http://www.w3.org/2000/svg">
<path d="M148.283 23C147.109 23 146.075 22.5967 145.181 21.79C144.594 22.23 143.941 22.56 143.223 22.78C142.504 23 141.771 23.11 141.023 23.11C140.113 23.11 139.241 22.9267 138.405 22.56C137.569 22.1933 136.865 21.746 136.293 21.218L138.031 16.62C139.145 17.016 140.077 17.214 140.825 17.214C141.529 17.214 142.079 17.1773 142.475 17.104L140.099 11.648L144.169 9.448L146.787 15.608C146.992 16.0773 147.212 16.4073 147.447 16.598C147.681 16.774 147.96 16.862 148.283 16.862H149.009L149.339 19.92L149.009 23H148.283ZM148.741 16.862H149.973C150.809 16.862 151.498 16.818 152.041 16.73C150.867 15.3073 149.87 14.1413 149.049 13.232L149.467 8.48L157.519 5.136L159.235 10.24L154.857 12.088C155.443 12.8213 155.942 13.716 156.353 14.772C156.763 15.828 156.969 16.8107 156.969 17.72C156.969 18.0573 156.939 18.3507 156.881 18.6C156.587 20.1693 155.817 21.2987 154.571 21.988C153.324 22.6627 151.791 23 149.973 23H148.741V16.862ZM168.504 17.742C167.741 19.414 167.316 20.7267 167.228 21.68C167.169 22.34 167.448 22.8167 168.064 23.11C168.68 23.418 169.538 23.572 170.638 23.572C171.855 23.572 172.764 23.3813 173.366 23C173.967 22.6333 174.268 22.1933 174.268 21.68C174.268 21.24 174.092 20.5287 173.74 19.546C173.388 18.5487 172.94 17.3533 172.398 15.96L176.688 14.244C177.201 15.6227 177.626 17.0013 177.964 18.38C178.316 19.7587 178.492 20.954 178.492 21.966C178.492 23.4473 178.147 24.7747 177.458 25.948C176.768 27.136 175.822 28.0673 174.62 28.742C173.432 29.4167 172.104 29.754 170.638 29.754C169.259 29.754 167.983 29.468 166.81 28.896C165.651 28.3387 164.72 27.5027 164.016 26.388C163.312 25.2733 162.96 23.946 162.96 22.406C162.96 22.054 162.967 21.79 162.982 21.614C163.04 20.8513 163.172 20.1253 163.378 19.436C163.583 18.7467 163.766 18.2187 163.928 17.852C164.104 17.4707 164.39 16.8767 164.786 16.07L168.504 17.742ZM170.572 11.362L173.058 13.848L170.572 16.356L168.064 13.848L170.572 11.362ZM184.424 23.176C183.514 23.176 182.634 23.0147 181.784 22.692C180.933 22.3693 180.2 21.9807 179.584 21.526L181.762 16.62C182.26 16.796 182.788 16.9427 183.346 17.06C183.918 17.1773 184.438 17.236 184.908 17.236C185.597 17.236 186.103 17.17 186.426 17.038C186.25 16.7153 185.788 16.246 185.04 15.63C184.306 15.014 183.441 14.376 182.444 13.716L185.084 8.92C186.14 9.58 187.086 10.3867 187.922 11.34C188.758 12.2787 189.41 13.2907 189.88 14.376C190.364 15.4467 190.606 16.5027 190.606 17.544C190.606 18.3213 190.466 19.0547 190.188 19.744C189.704 20.9027 188.926 21.768 187.856 22.34C186.8 22.8973 185.656 23.176 184.424 23.176ZM198.815 23C198.683 23 198.581 22.9927 198.507 22.978C198.287 24.5033 197.569 25.8307 196.351 26.96C195.134 28.104 193.601 29.0353 191.753 29.754L189.069 24.276C190.433 23.7627 191.57 23.308 192.479 22.912C193.403 22.5013 194.019 22.1347 194.327 21.812C194.269 21.3427 193.99 20.404 193.491 18.996C193.007 17.5733 192.721 16.7227 192.633 16.444L192.479 16.004L196.747 14.31L196.989 15.014C197.224 15.6153 197.407 16.0333 197.539 16.268C197.686 16.5027 197.855 16.664 198.045 16.752C198.236 16.8253 198.529 16.862 198.925 16.862H199.167L199.475 19.942L199.167 23H198.815ZM198.971 16.862H200.203C201.039 16.862 201.728 16.818 202.271 16.73C201.098 15.3073 200.1 14.1413 199.279 13.232L199.697 8.48L207.749 5.136L209.465 10.24L205.087 12.088C205.674 12.8213 206.172 13.716 206.583 14.772C206.994 15.828 207.199 16.8107 207.199 17.72C207.199 18.0573 207.17 18.3507 207.111 18.6C206.818 20.1693 206.048 21.2987 204.801 21.988C203.554 22.6627 202.022 23 200.203 23H198.971V16.862ZM217.81 23.176C216.901 23.176 216.021 23.0147 215.17 22.692C214.32 22.3693 213.586 21.9807 212.97 21.526L215.148 16.62C215.647 16.796 216.175 16.9427 216.732 17.06C217.304 17.1773 217.825 17.236 218.294 17.236C218.984 17.236 219.49 17.17 219.812 17.038C219.636 16.7153 219.174 16.246 218.426 15.63C217.693 15.014 216.828 14.376 215.83 13.716L218.47 8.92C219.526 9.58 220.472 10.3867 221.308 11.34C222.144 12.2787 222.797 13.2907 223.266 14.376C223.75 15.4467 223.992 16.5027 223.992 17.544C223.992 18.3213 223.853 19.0547 223.574 19.744C223.09 20.9027 222.313 21.768 221.242 22.34C220.186 22.8973 219.042 23.176 217.81 23.176ZM222.456 24.276C223.82 23.7627 224.957 23.308 225.866 22.912C226.79 22.5013 227.406 22.1347 227.714 21.812C227.655 21.3427 227.377 20.404 226.878 18.996C226.394 17.5733 226.108 16.7227 226.02 16.444L225.866 16.004L230.134 14.31C230.501 15.278 230.897 16.6127 231.322 18.314C231.747 20.0153 231.96 21.262 231.96 22.054C231.96 23.814 231.329 25.332 230.068 26.608C228.821 27.8987 227.179 28.9473 225.14 29.754L222.456 24.276ZM234.153 22.912C234.256 21.6213 234.307 20.0593 234.307 18.226C234.307 16.1727 234.234 14.134 234.087 12.11C233.955 10.086 233.757 8.37733 233.493 6.984L238.421 5.84C238.612 7.13067 238.766 8.71467 238.883 10.592C239 12.4693 239.059 14.4127 239.059 16.422C239.059 18.886 238.964 21.2107 238.773 23.396L234.153 22.912ZM240.604 24.056C243.068 23.528 244.77 23.044 245.708 22.604C244.726 22.516 243.838 22.2667 243.046 21.856C242.254 21.4453 241.668 20.8513 241.286 20.074C241.037 19.4873 240.912 18.7687 240.912 17.918C240.912 16.8327 241.132 15.7547 241.572 14.684C242.012 13.5987 242.636 12.704 243.442 12C244.264 11.296 245.21 10.944 246.28 10.944C247.219 10.944 248.084 11.34 248.876 12.132C249.683 12.924 250.321 13.9653 250.79 15.256C251.26 16.5467 251.494 17.9033 251.494 19.326C251.494 19.6633 251.487 19.9127 251.472 20.074C251.311 22.67 250.475 24.7747 248.964 26.388C247.454 28.016 245.4 29.138 242.804 29.754L240.604 24.056ZM244.894 16.532C244.894 16.708 245.114 16.8693 245.554 17.016C245.994 17.148 246.544 17.236 247.204 17.28C246.955 16.5467 246.508 16.114 245.862 15.982C245.818 15.9673 245.752 15.96 245.664 15.96C245.444 15.96 245.261 16.026 245.114 16.158C244.968 16.2753 244.894 16.4 244.894 16.532Z" fill="#37BEC1"/>
<mask id="mask0_252_2925" style="mask-type:luminance" maskUnits="userSpaceOnUse" x="123" y="39" width="141" height="25">
<path d="M263.387 39.4965H123.468V63.6643H263.387V39.4965Z" fill="white"/>
</mask>
<g mask="url(#mask0_252_2925)">
<path d="M200.824 63.6643H187.483C186.171 63.6649 184.904 63.1377 183.921 62.1822C182.939 61.2267 182.309 59.9091 182.151 58.4783C180.684 57.7027 179.481 56.4336 178.715 54.8554C178.08 53.7495 177.187 52.8495 176.13 52.2478L174.976 51.5797L176.13 50.913C177.188 50.3125 178.081 49.4122 178.715 48.3054C179.481 46.7273 180.684 45.4586 182.151 44.6837C182.31 43.2531 182.94 41.9359 183.922 40.9803C184.904 40.0248 186.171 39.497 187.483 39.4965H200.824C202.136 39.4962 203.403 40.0237 204.386 40.9794C205.368 41.9351 205.998 43.2528 206.156 44.6837C207.623 45.4584 208.827 46.7272 209.592 48.3054C210.227 49.412 211.119 50.3123 212.177 50.913L213.331 51.5797L212.177 52.2478C211.119 52.8489 210.227 53.7491 209.592 54.8554C208.827 56.4343 207.623 57.7036 206.156 58.4783C205.998 59.9091 205.368 61.2267 204.386 62.1822C203.403 63.1377 202.136 63.6649 200.824 63.6643ZM177.761 51.581C178.587 52.2437 179.295 53.0669 179.851 54.0098C180.706 55.3966 181.59 56.8304 182.949 57.1663L183.47 57.2931L183.485 57.88C183.513 59.024 183.946 60.111 184.693 60.9094C185.439 61.7078 186.44 62.1546 187.482 62.1545H200.823C201.865 62.1549 202.866 61.7083 203.613 60.9098C204.359 60.1113 204.792 59.0241 204.82 57.88L204.835 57.2931L205.356 57.1663C206.716 56.8304 207.6 55.3916 208.454 54.0098C209.01 53.0671 209.718 52.2439 210.544 51.581C209.718 50.9176 209.01 50.094 208.454 49.1509C207.6 47.7641 206.716 46.3317 205.356 45.9957L204.835 45.869L204.82 45.282C204.793 44.1378 204.36 43.0503 203.613 42.2514C202.867 41.4525 201.866 41.0052 200.824 41.005H187.483C186.441 41.0056 185.441 41.4527 184.694 42.2513C183.948 43.0499 183.515 44.1368 183.488 45.2808L183.473 45.8677L182.951 45.9945C181.593 46.3291 180.708 47.7692 179.853 49.1496C179.297 50.0929 178.589 50.9165 177.763 51.5797" fill="#BEC0E1"/>
<path d="M261.965 50.8268H210.738V52.3353H261.965V50.8268Z" fill="#BEC0E1"/>
<path d="M176.557 50.8268H125.331V52.3353H176.557V50.8268Z" fill="#BEC0E1"/>
<path d="M192.112 51.5265C192.096 51.5427 192.078 51.5552 192.058 51.5631C192.038 51.571 192.017 51.574 191.996 51.5721C190.971 52.3743 189.773 52.8681 188.521 53.0046C188.345 53.0109 188.17 52.9765 188.006 52.9038C187.843 52.8311 187.695 52.7217 187.573 52.5824C187.45 52.4424 187.354 52.2768 187.29 52.0955C187.227 51.9142 187.197 51.7207 187.202 51.5265C187.205 51.1551 187.341 50.7999 187.581 50.5377C187.687 50.4005 187.818 50.2898 187.966 50.2131C188.114 50.1364 188.276 50.0953 188.439 50.0928C188.861 50.1599 189.276 50.2763 189.675 50.4401C190.491 50.7241 191.286 51.0771 192.052 51.4961L192.112 51.5265ZM192.744 49.8659C192.728 49.8542 192.708 49.8493 192.689 49.8519C191.444 49.6036 190.276 49.0117 189.297 48.1317C189.168 48.0041 189.065 47.8475 188.996 47.6725C188.927 47.4975 188.894 47.3082 188.897 47.1176C188.894 46.9173 188.929 46.7186 189 46.5341C189.071 46.3496 189.176 46.1835 189.309 46.0464C189.439 45.9047 189.594 45.793 189.764 45.7179C189.934 45.6428 190.115 45.6058 190.298 45.6091C190.609 45.5906 190.914 45.704 191.15 45.926C191.913 47.0429 192.456 48.3221 192.744 49.6821V49.8659ZM192.744 53.3367C192.508 54.716 191.928 55.996 191.067 57.0332C190.965 57.1596 190.841 57.2622 190.702 57.3347C190.564 57.4072 190.413 57.4483 190.259 57.4553C190.086 57.4575 189.914 57.4198 189.755 57.3444C189.596 57.2691 189.453 57.1579 189.336 57.018C189.213 56.8838 189.116 56.7239 189.05 56.5478C188.984 56.3717 188.95 56.1829 188.952 55.9924C188.94 55.6196 189.042 55.2531 189.24 54.9504C190.256 54.1278 191.409 53.5329 192.633 53.1998H192.749L192.744 53.3367ZM195.657 51.562C195.656 51.8145 195.599 52.0631 195.49 52.2856C195.382 52.5082 195.225 52.6979 195.034 52.8381C194.842 52.9783 194.623 53.0646 194.394 53.0894C194.165 53.1143 193.934 53.0769 193.721 52.9805C193.509 52.8842 193.321 52.7319 193.175 52.5371C193.029 52.3422 192.928 52.1108 192.883 51.8633C192.837 51.6157 192.848 51.3596 192.913 51.1176C192.979 50.8756 193.098 50.6551 193.26 50.4756C193.527 50.1938 193.883 50.037 194.254 50.0384C194.624 50.0399 194.98 50.1993 195.245 50.4832C195.378 50.622 195.483 50.7895 195.554 50.9752C195.625 51.1609 195.66 51.3607 195.657 51.562ZM195.602 45.2541C195.557 45.7018 195.465 46.1422 195.327 46.5662C195.08 47.4474 194.748 48.2973 194.337 49.1015C194.315 49.1078 194.315 49.1319 194.315 49.1725C194.315 49.213 194.301 49.2333 194.273 49.2333C194.245 49.1871 194.213 49.1445 194.176 49.1065C193.46 47.9816 193.025 46.6706 192.912 45.3036C192.906 45.1106 192.938 44.9185 193.006 44.7402C193.073 44.562 193.175 44.4018 193.304 44.2704C193.566 44.0027 193.914 43.8588 194.272 43.8699C194.615 43.8758 194.942 44.0271 195.186 44.292C195.314 44.4081 195.418 44.5531 195.49 44.7171C195.562 44.8812 195.601 45.0605 195.605 45.2427M195.591 57.7824C195.594 58.0679 195.519 58.3478 195.375 58.586C195.232 58.8242 195.027 59.0098 194.787 59.1189C194.547 59.228 194.282 59.2556 194.027 59.1982C193.773 59.1407 193.54 59.0008 193.358 58.7965C193.231 58.6718 193.13 58.5195 193.06 58.3492C192.99 58.1789 192.954 57.9944 192.953 57.8077C193.059 56.3694 193.515 54.9887 194.272 53.8095V53.84L194.327 53.8095C195.057 54.9889 195.495 56.3569 195.597 57.7786M199.223 47.9403C198.202 48.7756 197.039 49.3762 195.802 49.7061C195.752 49.717 195.701 49.717 195.651 49.7061C195.688 49.7467 195.707 49.6909 195.707 49.5401C195.931 48.1897 196.47 46.9261 197.271 45.8727C197.39 45.7353 197.533 45.6267 197.692 45.554C197.851 45.4813 198.023 45.4461 198.195 45.4506C198.371 45.4477 198.545 45.4836 198.708 45.5562C198.871 45.6287 199.019 45.7364 199.143 45.873C199.267 46.0095 199.366 46.1721 199.432 46.351C199.498 46.53 199.53 46.7217 199.528 46.9148C199.54 47.2855 199.433 47.6491 199.225 47.9416M199.162 55.0214C199.288 55.1475 199.388 55.3012 199.457 55.4726C199.526 55.644 199.561 55.8293 199.56 56.0165C199.563 56.2129 199.53 56.4079 199.464 56.5904C199.398 56.7729 199.3 56.9393 199.176 57.0801C199.055 57.2237 198.908 57.3377 198.745 57.4144C198.581 57.4911 198.405 57.5288 198.227 57.525C198.062 57.5352 197.896 57.5083 197.74 57.4459C197.584 57.3836 197.442 57.2872 197.321 57.1625C197.042 56.7991 196.807 56.3983 196.621 55.9696C196.257 55.1143 195.948 54.2319 195.697 53.3291V53.2543C195.729 53.2614 195.761 53.2665 195.793 53.2695C197.031 53.5385 198.188 54.1404 199.162 55.0214ZM201.222 51.5658C201.221 51.7583 201.185 51.9487 201.117 52.126C201.048 52.3033 200.949 52.464 200.824 52.5989C200.711 52.7415 200.571 52.8562 200.415 52.9355C200.259 53.0148 200.089 53.0569 199.917 53.0591C199.494 53.011 199.079 52.9045 198.681 52.7422C197.865 52.4617 197.081 52.0789 196.345 51.6013C196.317 51.6013 196.303 51.5924 196.303 51.5721C196.303 51.5518 196.317 51.5468 196.345 51.5265C197.387 50.7099 198.612 50.2196 199.889 50.108C200.065 50.1051 200.239 50.141 200.402 50.2135C200.565 50.2861 200.713 50.3938 200.837 50.5303C200.962 50.6669 201.06 50.8294 201.126 51.0084C201.192 51.1874 201.225 51.379 201.222 51.5721" fill="#BEC0E1"/>
<path d="M263.383 51.581C263.383 51.9857 263.274 52.3813 263.069 52.7177C262.864 53.0542 262.574 53.3164 262.233 53.4713C261.893 53.6261 261.518 53.6667 261.157 53.5877C260.796 53.5088 260.464 53.3139 260.203 53.0278C259.943 52.7416 259.765 52.3771 259.693 51.9802C259.622 51.5833 259.658 51.1719 259.799 50.7981C259.94 50.4242 260.179 50.1047 260.485 49.8798C260.792 49.655 261.152 49.535 261.52 49.535C262.014 49.535 262.488 49.7506 262.837 50.1343C263.187 50.518 263.383 51.0384 263.383 51.581Z" fill="#BEC0E1"/>
<path d="M127.192 51.581C127.192 51.9857 127.083 52.3813 126.878 52.7177C126.674 53.0542 126.383 53.3164 126.042 53.4713C125.702 53.6261 125.327 53.6667 124.966 53.5877C124.605 53.5088 124.273 53.3139 124.012 53.0278C123.752 52.7416 123.575 52.3771 123.503 51.9802C123.431 51.5833 123.468 51.1719 123.609 50.7981C123.75 50.4242 123.988 50.1047 124.295 49.8798C124.601 49.655 124.961 49.535 125.33 49.535C125.574 49.535 125.816 49.588 126.042 49.6908C126.268 49.7936 126.474 49.9443 126.647 50.1343C126.82 50.3243 126.957 50.5498 127.05 50.7981C127.144 51.0463 127.192 51.3123 127.192 51.581Z" fill="#BEC0E1"/>
</g>
<path d="M125.821 86C125.401 86 125.028 85.9253 124.701 85.776C124.375 85.6173 124.081 85.3793 123.819 85.062C123.073 85.7247 122.2 86.056 121.201 86.056C120.539 86.056 119.969 85.9533 119.493 85.748C119.017 85.5427 118.588 85.3 118.205 85.02L118.821 83.914C119.185 84.1193 119.531 84.2873 119.857 84.418C120.193 84.5393 120.599 84.6 121.075 84.6C121.841 84.6 122.541 84.3947 123.175 83.984L121.215 79.406L122.377 78.79L124.295 83.326C124.473 83.7553 124.673 84.054 124.897 84.222C125.121 84.3807 125.429 84.46 125.821 84.46H125.975L126.059 85.23L125.975 86H125.821ZM125.837 84.46H125.949C126.677 84.46 127.242 84.4273 127.643 84.362C128.045 84.2967 128.334 84.2033 128.511 84.082C128.698 83.9513 128.824 83.7693 128.889 83.536C128.927 83.4147 128.945 83.242 128.945 83.018C128.945 82.766 128.922 82.4813 128.875 82.164C128.829 81.8373 128.801 81.6367 128.791 81.562L129.953 81.324C130.084 81.9493 130.149 82.7053 130.149 83.592C130.196 83.8627 130.317 84.0773 130.513 84.236C130.719 84.3853 130.994 84.46 131.339 84.46H131.437L131.521 85.23L131.437 86H131.339C130.947 86 130.593 85.9067 130.275 85.72C129.967 85.524 129.715 85.2627 129.519 84.936C129.286 85.328 128.894 85.6033 128.343 85.762C127.802 85.9207 127.004 86 125.949 86H125.837V84.46ZM129.547 88.296C129.081 88.7627 128.847 88.996 128.847 88.996L128.483 89.36L127.433 88.296L128.483 87.246L129.547 88.296ZM127.055 88.296C126.589 88.7627 126.355 88.996 126.355 88.996L125.991 89.36L124.941 88.296L125.991 87.246L127.055 88.296ZM131.292 84.46H131.88C132.86 84.46 133.551 84.3713 133.952 84.194C134.354 84.0073 134.554 83.718 134.554 83.326C134.545 83.0647 134.447 82.64 134.26 82.052C134.074 81.464 133.92 81.0487 133.798 80.806L134.96 80.176C135.147 80.5493 135.329 81.0487 135.506 81.674C135.693 82.2993 135.786 82.8453 135.786 83.312C135.786 84.1987 135.478 84.8707 134.862 85.328C134.246 85.776 133.322 86 132.09 86H131.292V84.46ZM134.988 88.324C134.522 88.7907 134.288 89.024 134.288 89.024L133.924 89.388L132.874 88.324L133.924 87.274L134.988 88.324ZM132.496 88.324C132.03 88.7907 131.796 89.024 131.796 89.024L131.432 89.388L130.382 88.324L131.432 87.274L132.496 88.324ZM140.202 86C139.213 86 138.518 85.7433 138.116 85.23C137.724 84.7073 137.528 83.8813 137.528 82.752C137.528 81.7253 137.5 80.5587 137.444 79.252C137.398 77.936 137.328 76.9653 137.234 76.34L138.564 76.046C138.639 76.578 138.7 77.4273 138.746 78.594C138.793 79.7513 138.816 80.8293 138.816 81.828V82.444C138.807 83.004 138.83 83.4193 138.886 83.69C138.942 83.9607 139.068 84.1567 139.264 84.278C139.46 84.3993 139.773 84.46 140.202 84.46H140.272L140.356 85.23L140.272 86H140.202ZM140.138 84.46H140.418C141.183 84.46 141.799 84.026 142.266 83.158C142.733 82.3087 143.176 81.6553 143.596 81.198C144.025 80.7407 144.497 80.512 145.01 80.512C145.57 80.512 146.018 80.708 146.354 81.1C146.699 81.492 146.97 82.0333 147.166 82.724C147.343 83.3587 147.507 83.8067 147.656 84.068C147.815 84.3293 148.029 84.46 148.3 84.46H148.44L148.524 85.23L148.44 86H148.3C147.656 86 147.199 85.6453 146.928 84.936C146.9 85.1413 146.811 85.3327 146.662 85.51C146.513 85.678 146.345 85.8133 146.158 85.916C145.971 86.0187 145.757 86.07 145.514 86.07C144.823 86.07 143.876 85.6827 142.672 84.908C142.392 85.272 142.056 85.5473 141.664 85.734C141.272 85.9113 140.847 86 140.39 86H140.138V84.46ZM146.018 84.698C146.149 84.5113 146.214 84.2547 146.214 83.928C146.214 83.62 146.163 83.312 146.06 83.004C145.957 82.6867 145.813 82.4253 145.626 82.22C145.439 82.0147 145.225 81.912 144.982 81.912C144.506 81.912 143.955 82.5 143.33 83.676C143.834 84.0307 144.305 84.2967 144.744 84.474C145.192 84.642 145.547 84.726 145.808 84.726C145.873 84.726 145.943 84.7167 146.018 84.698ZM148.3 84.46H149.028C149.756 84.46 150.279 84.3713 150.596 84.194C150.913 84.0167 151.072 83.7413 151.072 83.368C151.072 83.116 150.974 82.6867 150.778 82.08C150.591 81.464 150.442 81.0393 150.33 80.806L151.492 80.176C151.669 80.54 151.851 81.0487 152.038 81.702C152.225 82.346 152.318 82.9013 152.318 83.368C152.318 84.236 152.033 84.894 151.464 85.342C150.904 85.7807 150.092 86 149.028 86H148.3V84.46ZM149.392 78.314C149.765 77.9593 150.129 77.5953 150.484 77.222L151.576 78.314L150.484 79.42L149.392 78.314ZM160.226 86.056C159.47 86.056 158.826 85.9487 158.294 85.734C157.762 85.5193 157.342 85.2813 157.034 85.02L157.65 83.914C158.014 84.11 158.373 84.2733 158.728 84.404C159.082 84.5253 159.535 84.586 160.086 84.586C160.59 84.586 161 84.5207 161.318 84.39C161.644 84.2593 161.859 84.11 161.962 83.942C161.99 83.8673 162.004 83.7787 162.004 83.676C162.004 83.2747 161.766 82.7613 161.29 82.136C160.823 81.5013 160.09 80.8247 159.092 80.106L159.848 78.776C160.893 79.5507 161.714 80.372 162.312 81.24C162.918 82.0987 163.222 82.9013 163.222 83.648C163.222 84.0027 163.156 84.3247 163.026 84.614C162.83 85.0713 162.475 85.426 161.962 85.678C161.448 85.93 160.87 86.056 160.226 86.056ZM162.698 88.73C163.305 88.506 163.851 88.226 164.336 87.89C164.831 87.554 165.218 87.204 165.498 86.84C165.788 86.4853 165.932 86.154 165.932 85.846C165.932 85.454 165.685 84.2967 165.19 82.374L166.422 81.898C166.637 82.5607 166.81 83.2607 166.94 83.998C167.08 84.726 167.15 85.342 167.15 85.846C167.15 86.7047 166.791 87.512 166.072 88.268C165.363 89.0333 164.439 89.626 163.3 90.046L162.698 88.73ZM168.766 85.916C168.84 85.356 168.878 84.376 168.878 82.976C168.878 81.6973 168.845 80.386 168.78 79.042C168.724 77.6887 168.658 76.788 168.584 76.34L169.914 76.046C169.979 76.5127 170.044 77.432 170.11 78.804C170.175 80.176 170.208 81.5013 170.208 82.78C170.208 84.236 170.161 85.3327 170.068 86.07L168.766 85.916ZM171.54 88.688C172.875 88.3987 173.902 88.03 174.62 87.582C175.339 87.1433 175.773 86.602 175.922 85.958C175.605 86.014 175.269 86.042 174.914 86.042C174.28 86.042 173.706 85.9393 173.192 85.734C172.679 85.5193 172.315 85.1927 172.1 84.754C171.942 84.418 171.862 84.0493 171.862 83.648C171.862 83.144 171.97 82.64 172.184 82.136C172.408 81.632 172.702 81.2167 173.066 80.89C173.44 80.5633 173.841 80.4 174.27 80.4C174.821 80.4 175.311 80.6427 175.74 81.128C176.179 81.604 176.515 82.22 176.748 82.976C176.991 83.7227 177.112 84.474 177.112 85.23C177.112 86.4433 176.66 87.47 175.754 88.31C174.858 89.15 173.608 89.7287 172.002 90.046L171.54 88.688ZM173.122 83.9C173.272 84.1147 173.528 84.2733 173.892 84.376C174.256 84.4787 174.676 84.53 175.152 84.53C175.414 84.53 175.67 84.516 175.922 84.488C175.81 83.7787 175.605 83.172 175.306 82.668C175.017 82.164 174.662 81.8887 174.242 81.842C174.037 81.814 173.836 81.884 173.64 82.052C173.454 82.2107 173.3 82.4207 173.178 82.682C173.066 82.9433 173.01 83.1953 173.01 83.438C173.01 83.634 173.048 83.788 173.122 83.9ZM182.479 85.916C182.553 85.356 182.591 84.376 182.591 82.976C182.591 81.6973 182.558 80.386 182.493 79.042C182.437 77.6887 182.371 76.788 182.297 76.34L183.627 76.046C183.692 76.5127 183.757 77.432 183.823 78.804C183.888 80.176 183.921 81.5013 183.921 82.78C183.921 84.236 183.874 85.3327 183.781 86.07L182.479 85.916ZM183.753 88.73C184.36 88.506 184.906 88.226 185.391 87.89C185.886 87.554 186.273 87.204 186.553 86.84C186.842 86.4853 186.987 86.154 186.987 85.846C186.987 85.454 186.74 84.2967 186.245 82.374L187.477 81.898C187.692 82.5607 187.864 83.2607 187.995 83.998C188.135 84.726 188.205 85.342 188.205 85.846C188.205 86.7047 187.846 87.512 187.127 88.268C186.418 89.0333 185.494 89.626 184.355 90.046L183.753 88.73ZM195.639 86.042C194.845 86.042 194.22 85.8227 193.763 85.384C193.315 84.936 193.091 84.376 193.091 83.704C193.091 83.4987 193.123 83.2513 193.189 82.962C193.394 82.15 193.851 81.3567 194.561 80.582L194.071 80.274L194.841 79.07C196.026 79.77 196.908 80.4747 197.487 81.184C198.075 81.884 198.369 82.626 198.369 83.41C198.369 83.914 198.247 84.3667 198.005 84.768C197.771 85.1693 197.445 85.482 197.025 85.706C196.614 85.93 196.152 86.042 195.639 86.042ZM194.309 83.242C194.299 83.2887 194.295 83.354 194.295 83.438C194.295 83.774 194.411 84.0447 194.645 84.25C194.887 84.446 195.237 84.544 195.695 84.544C196.115 84.544 196.46 84.4553 196.731 84.278C197.011 84.0913 197.165 83.8533 197.193 83.564C197.183 83.1907 197.048 82.822 196.787 82.458C196.525 82.0847 196.115 81.688 195.555 81.268C194.78 82.0053 194.365 82.6633 194.309 83.242ZM206.786 86C206.366 86 205.993 85.9253 205.666 85.776C205.34 85.6173 205.046 85.3793 204.784 85.062C204.038 85.7247 203.165 86.056 202.166 86.056C201.504 86.056 200.934 85.9533 200.458 85.748C199.982 85.5427 199.553 85.3 199.17 85.02L199.786 83.914C200.15 84.1193 200.496 84.2873 200.822 84.418C201.158 84.5393 201.564 84.6 202.04 84.6C202.806 84.6 203.506 84.3947 204.14 83.984L202.18 79.406L203.342 78.79L205.26 83.326C205.438 83.7553 205.638 84.054 205.862 84.222C206.086 84.3807 206.394 84.46 206.786 84.46H206.94L207.024 85.23L206.94 86H206.786ZM214.614 86C214.147 85.9907 213.76 85.8693 213.452 85.636C213.153 85.3933 212.939 85.0527 212.808 84.614C212.584 85.034 212.304 85.37 211.968 85.622C211.641 85.8647 211.282 85.9907 210.89 86H210.834C210.414 86 210.059 85.8787 209.77 85.636C209.481 85.3933 209.299 85.0667 209.224 84.656C208.608 85.552 207.829 86 206.886 86H206.83L206.746 85.23L206.83 84.46H206.9C207.236 84.46 207.549 84.3853 207.838 84.236C208.137 84.0867 208.365 83.8953 208.524 83.662C208.711 83.4193 208.855 83.1533 208.958 82.864C209.07 82.5747 209.168 82.262 209.252 81.926L210.428 82.052C210.419 82.0987 210.367 82.29 210.274 82.626C210.181 82.962 210.134 83.2793 210.134 83.578C210.134 83.8673 210.19 84.0867 210.302 84.236C210.423 84.3853 210.61 84.46 210.862 84.46H210.89C211.403 84.46 211.823 84.1567 212.15 83.55C212.271 83.326 212.365 83.074 212.43 82.794C212.505 82.5047 212.575 82.1733 212.64 81.8L213.816 81.856C213.695 82.4907 213.634 82.9527 213.634 83.242C213.634 83.6433 213.713 83.9467 213.872 84.152C214.04 84.3573 214.297 84.46 214.642 84.46C214.969 84.46 215.216 84.3713 215.384 84.194C215.552 84.0073 215.636 83.746 215.636 83.41C215.636 83.1113 215.543 82.6867 215.356 82.136C215.179 81.576 215.02 81.1373 214.88 80.82L216.014 80.19C216.201 80.5913 216.387 81.1093 216.574 81.744C216.77 82.3787 216.868 82.9433 216.868 83.438C216.868 83.9047 216.775 84.334 216.588 84.726C216.401 85.118 216.14 85.4307 215.804 85.664C215.468 85.888 215.09 86 214.67 86H214.614ZM210.932 78.776C210.932 78.776 211.156 78.552 211.604 78.104L211.926 77.782L212.934 78.776L211.926 79.784L210.932 78.776ZM213.508 78.776C213.779 78.5053 213.914 78.37 213.914 78.37L214.53 77.782L215.524 78.776L214.53 79.784L213.508 78.776ZM213.228 76.312L214.11 77.208L213.228 78.104L212.318 77.208L213.228 76.312ZM225.599 89.556C224.871 89.556 224.208 89.4067 223.611 89.108C223.013 88.8187 222.537 88.3987 222.183 87.848C221.837 87.3067 221.665 86.6813 221.665 85.972C221.665 85.4587 221.753 84.8847 221.931 84.25C222.117 83.606 222.341 83.032 222.603 82.528L223.681 83.032C223.438 83.5453 223.251 84.026 223.121 84.474C222.99 84.9127 222.925 85.3467 222.925 85.776C222.925 86.448 223.167 86.9893 223.653 87.4C224.138 87.82 224.787 88.03 225.599 88.03C227.652 88.03 228.637 86.9427 228.553 84.768C228.478 82.864 228.394 81.1747 228.301 79.7C228.217 78.216 228.133 77.096 228.049 76.34L229.365 76.046C229.486 77.1753 229.626 80.0593 229.785 84.698C229.831 86.2287 229.486 87.4187 228.749 88.268C228.021 89.1267 226.971 89.556 225.599 89.556ZM234.21 86C233.221 86 232.525 85.7433 232.124 85.23C231.732 84.7073 231.536 83.8813 231.536 82.752C231.536 81.7253 231.508 80.5587 231.452 79.252C231.405 77.936 231.335 76.9653 231.242 76.34L232.572 76.046C232.647 76.578 232.707 77.4273 232.754 78.594C232.801 79.7513 232.824 80.8293 232.824 81.828V82.444C232.815 83.004 232.838 83.4193 232.894 83.69C232.95 83.9607 233.076 84.1567 233.272 84.278C233.468 84.3993 233.781 84.46 234.21 84.46H234.28L234.364 85.23L234.28 86H234.21ZM241.958 86C241.491 85.9907 241.104 85.8693 240.796 85.636C240.497 85.3933 240.282 85.0527 240.152 84.614C239.928 85.034 239.648 85.37 239.312 85.622C238.985 85.8647 238.626 85.9907 238.234 86H238.178C237.758 86 237.403 85.8787 237.114 85.636C236.824 85.3933 236.642 85.0667 236.568 84.656C235.952 85.552 235.172 86 234.23 86H234.174L234.09 85.23L234.174 84.46H234.244C234.58 84.46 234.892 84.3853 235.182 84.236C235.48 84.0867 235.709 83.8953 235.868 83.662C236.054 83.4193 236.199 83.1533 236.302 82.864C236.414 82.5747 236.512 82.262 236.596 81.926L237.772 82.052C237.762 82.0987 237.711 82.29 237.618 82.626C237.524 82.962 237.478 83.2793 237.478 83.578C237.478 83.8673 237.534 84.0867 237.646 84.236C237.767 84.3853 237.954 84.46 238.206 84.46H238.234C238.747 84.46 239.167 84.1567 239.494 83.55C239.615 83.326 239.708 83.074 239.774 82.794C239.848 82.5047 239.918 82.1733 239.984 81.8L241.16 81.856C241.038 82.4907 240.978 82.9527 240.978 83.242C240.978 83.6433 241.057 83.9467 241.216 84.152C241.384 84.3573 241.64 84.46 241.986 84.46C242.312 84.46 242.56 84.3713 242.728 84.194C242.896 84.0073 242.98 83.746 242.98 83.41C242.98 83.1113 242.886 82.6867 242.7 82.136C242.522 81.576 242.364 81.1373 242.224 80.82L243.358 80.19C243.544 80.5913 243.731 81.1093 243.918 81.744C244.114 82.3787 244.212 82.9433 244.212 83.438C244.212 83.9047 244.118 84.334 243.932 84.726C243.745 85.118 243.484 85.4307 243.148 85.664C242.812 85.888 242.434 86 242.014 86H241.958ZM243.622 88.73C244.229 88.506 244.775 88.226 245.26 87.89C245.755 87.554 246.142 87.204 246.422 86.84C246.711 86.4853 246.856 86.154 246.856 85.846C246.856 85.454 246.609 84.2967 246.114 82.374L247.346 81.898C247.561 82.5607 247.733 83.2607 247.864 83.998C248.004 84.726 248.074 85.342 248.074 85.846C248.074 86.7047 247.715 87.512 246.996 88.268C246.287 89.0333 245.363 89.626 244.224 90.046L243.622 88.73ZM249.69 85.916C249.764 85.356 249.802 84.376 249.802 82.976C249.802 81.6973 249.769 80.386 249.704 79.042C249.648 77.6887 249.582 76.788 249.508 76.34L250.838 76.046C250.903 76.5127 250.968 77.432 251.034 78.804C251.099 80.176 251.132 81.5013 251.132 82.78C251.132 84.236 251.085 85.3327 250.992 86.07L249.69 85.916ZM263.784 86C263.364 86 262.991 85.9253 262.664 85.776C262.338 85.6173 262.044 85.3793 261.782 85.062C261.036 85.7247 260.163 86.056 259.164 86.056C258.502 86.056 257.932 85.9533 257.456 85.748C256.98 85.5427 256.551 85.3 256.168 85.02L256.784 83.914C257.148 84.1193 257.494 84.2873 257.82 84.418C258.156 84.5393 258.562 84.6 259.038 84.6C259.804 84.6 260.504 84.3947 261.138 83.984L259.178 79.406L260.34 78.79L262.258 83.326C262.436 83.7553 262.636 84.054 262.86 84.222C263.084 84.3807 263.392 84.46 263.784 84.46H263.938L264.022 85.23L263.938 86H263.784ZM263.8 84.46H264.192C265.079 84.46 265.793 84.3853 266.334 84.236C266.885 84.0773 267.235 83.8533 267.384 83.564C267.403 83.4707 267.412 83.396 267.412 83.34C267.412 82.8733 267.155 82.304 266.642 81.632C266.129 80.9507 265.401 80.232 264.458 79.476L264.626 78.076L269.764 75.864L270.184 77.11L265.914 78.958C266.595 79.5367 267.225 80.2367 267.804 81.058C268.383 81.8793 268.672 82.654 268.672 83.382C268.672 83.6153 268.639 83.83 268.574 84.026C268.359 84.6887 267.869 85.1833 267.104 85.51C266.348 85.8367 265.377 86 264.192 86H263.8V84.46Z" fill="#54C7C8"/>
</svg>
