<svg width="113" height="123" viewBox="0 0 113 123" fill="none" xmlns="http://www.w3.org/2000/svg">
<path d="M0 8.16211C0 3.74383 3.58172 0.162109 8 0.162109H105C109.418 0.162109 113 3.74383 113 8.16211V114.162C113 118.58 109.418 122.162 105 122.162H8C3.58173 122.162 0 118.58 0 114.162V8.16211Z" fill="url(#paint0_linear_126_1408)"/>
<circle cx="56.5" cy="44.6621" r="40.5" fill="#DB68E1"/>
<path fill-rule="evenodd" clip-rule="evenodd" d="M29 24.1145C29 21.3794 31.2173 19.1621 33.9524 19.1621C33.9524 19.3543 33.9971 19.5439 34.0831 19.7158L36.5593 24.6682C36.769 25.0876 37.1977 25.3526 37.6667 25.3526H47.5714C48.0404 25.3526 48.469 25.0876 48.6788 24.6682L51.155 19.7158C51.241 19.5439 51.2857 19.3543 51.2857 19.1621C54.0208 19.1621 56.2381 21.3794 56.2381 24.1145C52.8192 24.1145 50.0476 26.8861 50.0476 30.305V61.2573C50.0476 61.4467 50.0901 61.6261 50.1661 61.7865C50.6953 64.3126 52.9356 66.2097 55.619 66.2097H56.2381C56.2381 68.9448 54.0208 71.1621 51.2857 71.1621H33.9524C31.2173 71.1621 29 68.9448 29 66.2097V24.1145ZM50.0476 68.6859C50.7314 68.6859 51.2857 68.1316 51.2857 67.4478C51.2857 66.764 50.7314 66.2097 50.0476 66.2097H35.1905C34.5067 66.2097 33.9524 66.764 33.9524 67.4478C33.9524 68.1316 34.5067 68.6859 35.1905 68.6859H50.0476Z" fill="#F1BCF4"/>
<path d="M48.6635 19.1621H36.5747L38.4318 22.8764H46.8063L48.6635 19.1621Z" fill="#F1BCF4"/>
<path d="M67.381 30.8179L65.4707 32.7281C65.2386 32.9603 64.9236 33.0908 64.5952 33.0908H60.2619V37.4241C60.2619 37.7524 60.1315 38.0674 59.8993 38.2996L57.989 40.2098L59.8993 42.1201C60.1315 42.3523 60.2619 42.6672 60.2619 42.9955V47.3289H64.5952C64.9236 47.3289 65.2386 47.4594 65.4707 47.6915L67.381 49.6018L69.2912 47.6915C69.5234 47.4594 69.8383 47.3289 70.1667 47.3289H74.5V42.9955C74.5 42.6672 74.6305 42.3522 74.8626 42.1201L76.7729 40.2098L74.8626 38.2997C74.6305 38.0674 74.5 37.7526 74.5 37.4242V33.0908H70.1667C69.8383 33.0908 69.5234 32.9603 69.2912 32.7281L67.381 30.8179Z" fill="#F1BCF4"/>
<path fill-rule="evenodd" clip-rule="evenodd" d="M56.2381 26.5906C54.1867 26.5906 52.5238 28.2535 52.5238 30.3049V56.005C53.409 55.4123 54.4737 55.0668 55.619 55.0668H82.2381V26.5906H56.2381ZM67.3809 27.8287C67.7093 27.8287 68.0243 27.9592 68.2564 28.1913L70.6795 30.6144H75.7381C76.4219 30.6144 76.9762 31.1687 76.9762 31.8525V36.9111L79.3993 39.3342C79.8827 39.8178 79.8827 40.6016 79.3993 41.0851L76.9762 43.5082V48.5668C76.9762 49.2506 76.4219 49.8049 75.7381 49.8049H70.6795L68.2564 52.2279C67.7729 52.7115 66.989 52.7115 66.5055 52.2279L64.0824 49.8049H59.0238C58.34 49.8049 57.7857 49.2506 57.7857 48.5668V43.5082L55.3626 41.0851C54.8792 40.6016 54.8792 39.8176 55.3626 39.3342L57.7857 36.9111V31.8525C57.7857 31.1687 58.34 30.6144 59.0238 30.6144H64.0824L66.5055 28.1913C66.7376 27.9592 67.0526 27.8287 67.3809 27.8287Z" fill="#F1BCF4"/>
<path d="M73.5714 62.4954V65.0419L74.0899 64.6716C74.5204 64.364 75.0986 64.364 75.5291 64.6716L76.0476 65.0419V62.4954H73.5714Z" fill="#F1BCF4"/>
<path d="M55.619 57.543C53.9096 57.543 52.5238 58.9288 52.5238 60.6382C52.5238 62.3476 53.9096 63.7334 55.619 63.7334H71.0952V62.4953H56.2381C55.5543 62.4953 55 61.9411 55 61.2573C55 60.5735 55.5543 60.0192 56.2381 60.0192H79.7619C80.4457 60.0192 81 60.5735 81 61.2573C81 61.9411 80.4457 62.4953 79.7619 62.4953H78.5238V63.7334H82.2381V57.543H55.619Z" fill="#F1BCF4"/>
<path d="M17.1204 105.162C16.2244 105.162 15.5757 104.849 15.1744 104.224C14.6331 104.392 14.1057 104.476 13.5924 104.476C12.8084 104.476 12.1644 104.294 11.6604 103.93C11.1564 103.557 10.9044 103.053 10.9044 102.418C10.9044 101.681 11.1984 101.055 11.7864 100.542C12.3837 100.019 13.1864 99.5668 14.1944 99.1841L14.0964 98.3581L15.3984 98.0921C15.5571 99.7721 15.6924 101.051 15.8044 101.928C15.8511 102.404 15.9164 102.759 16.0004 102.992C16.0844 103.225 16.2104 103.389 16.3784 103.482C16.5464 103.575 16.7937 103.622 17.1204 103.622H17.3444L17.4284 104.392L17.3444 105.162H17.1204ZM12.1224 102.124C12.0944 102.376 12.2064 102.586 12.4584 102.754C12.7197 102.913 13.0651 102.992 13.4944 102.992C13.8584 102.992 14.2411 102.931 14.6424 102.81C14.6144 102.67 14.5817 102.441 14.5444 102.124C14.4604 101.396 14.3997 100.887 14.3624 100.598C13.7557 100.785 13.2377 101.023 12.8084 101.312C12.3791 101.592 12.1504 101.863 12.1224 102.124ZM17.136 103.622H17.472C17.976 103.622 18.424 103.608 18.816 103.58C18.4147 103.104 18.214 102.586 18.214 102.026C18.214 101.961 18.2234 101.853 18.242 101.704C18.3167 101.2 18.4754 100.738 18.718 100.318C18.97 99.8888 19.2734 99.5528 19.628 99.3101C19.992 99.0674 20.3747 98.9461 20.776 98.9461C21.2147 98.9461 21.6067 99.0861 21.952 99.3661C22.2974 99.6368 22.568 99.9914 22.764 100.43C22.96 100.869 23.058 101.317 23.058 101.774C23.058 101.858 23.0487 101.984 23.03 102.152C22.946 102.731 22.7454 103.221 22.428 103.622H22.638H23.982L24.066 104.392L23.982 105.162H23.156C22.2227 105.162 21.3874 105.027 20.65 104.756C19.838 105.027 18.7787 105.162 17.472 105.162H17.136V103.622ZM19.572 96.1041L20.622 97.1541L19.572 98.2181L18.508 97.1541L19.572 96.1041ZM22.064 96.1041L23.114 97.1541L22.064 98.2181L21 97.1541L22.064 96.1041ZM19.418 101.844C19.4087 102.124 19.502 102.385 19.698 102.628C19.9034 102.871 20.1974 103.076 20.58 103.244C20.944 103.113 21.224 102.95 21.42 102.754C21.616 102.549 21.7607 102.306 21.854 102.026C21.882 101.783 21.8494 101.541 21.756 101.298C21.672 101.046 21.5367 100.841 21.35 100.682C21.1634 100.523 20.9394 100.444 20.678 100.444C20.3607 100.444 20.0807 100.584 19.838 100.864C19.6047 101.135 19.4647 101.461 19.418 101.844ZM23.8226 103.622H24.5506C25.2786 103.622 25.8012 103.533 26.1186 103.356C26.4359 103.179 26.5946 102.903 26.5946 102.53C26.5946 102.278 26.4966 101.849 26.3006 101.242C26.1139 100.626 25.9646 100.201 25.8526 99.9681L27.0146 99.3381C27.1919 99.7021 27.3739 100.211 27.5606 100.864C27.7472 101.508 27.8406 102.063 27.8406 102.53C27.8406 103.398 27.5559 104.056 26.9866 104.504C26.4266 104.943 25.6146 105.162 24.5506 105.162H23.8226V103.622ZM23.7946 107.5C23.7946 107.5 24.0372 107.257 24.5226 106.772L24.8866 106.408L25.2506 106.772C25.7359 107.257 25.9786 107.5 25.9786 107.5L25.6146 107.864C25.1292 108.349 24.8866 108.592 24.8866 108.592C24.8866 108.592 24.6439 108.349 24.1586 107.864L23.7946 107.5ZM32.254 105.162C31.2646 105.162 30.5693 104.905 30.168 104.392C29.776 103.869 29.58 103.043 29.58 101.914C29.58 100.887 29.552 99.7208 29.496 98.4141C29.4493 97.0981 29.3793 96.1274 29.286 95.5021L30.616 95.2081C30.6906 95.7401 30.7513 96.5894 30.798 97.7561C30.8446 98.9134 30.868 99.9914 30.868 100.99V101.606C30.8586 102.166 30.882 102.581 30.938 102.852C30.994 103.123 31.12 103.319 31.316 103.44C31.512 103.561 31.8246 103.622 32.254 103.622H32.324L32.408 104.392L32.324 105.162H32.254ZM43.5718 105.162C43.2078 105.162 42.8718 105.087 42.5638 104.938C42.2558 104.789 41.9898 104.569 41.7658 104.28C41.5511 104.551 41.2944 104.765 40.9958 104.924C40.7064 105.073 40.3938 105.153 40.0578 105.162H40.0298H39.9878C39.5211 105.153 39.1384 105.031 38.8398 104.798C38.5411 104.555 38.3264 104.215 38.1958 103.776C37.9718 104.196 37.6918 104.532 37.3558 104.784C37.0291 105.027 36.6698 105.153 36.2778 105.162H36.2218C35.8018 105.162 35.4471 105.041 35.1578 104.798C34.8684 104.555 34.6864 104.229 34.6118 103.818C33.9958 104.714 33.2164 105.162 32.2738 105.162H32.2178L32.1338 104.392L32.2178 103.622H32.2878C32.6238 103.622 32.9364 103.547 33.2258 103.398C33.5244 103.249 33.7531 103.057 33.9118 102.824C34.0984 102.581 34.2431 102.315 34.3458 102.026C34.4578 101.737 34.5558 101.424 34.6398 101.088L35.8158 101.214C35.8064 101.261 35.7551 101.452 35.6618 101.788C35.5684 102.124 35.5218 102.441 35.5218 102.74C35.5218 103.029 35.5778 103.249 35.6898 103.398C35.8111 103.547 35.9978 103.622 36.2498 103.622H36.2778C36.7911 103.622 37.2111 103.319 37.5378 102.712C37.6591 102.488 37.7524 102.236 37.8178 101.956C37.8924 101.667 37.9624 101.335 38.0278 100.962L39.2038 101.018C39.0824 101.653 39.0218 102.115 39.0218 102.404C39.0218 102.805 39.1011 103.109 39.2598 103.314C39.4278 103.519 39.6844 103.622 40.0298 103.622C40.2631 103.622 40.4871 103.575 40.7018 103.482C40.9258 103.379 41.0984 103.253 41.2198 103.104C41.1731 102.917 41.0518 102.339 40.8558 101.368C40.8464 101.303 40.8231 101.172 40.7858 100.976L41.9478 100.668C42.0598 101.284 42.1484 101.76 42.2138 102.096C42.2884 102.423 42.3538 102.67 42.4098 102.838C42.4938 103.099 42.6291 103.295 42.8158 103.426C43.0024 103.557 43.2544 103.622 43.5718 103.622H43.6558L43.7398 104.392L43.6418 105.162H43.5718ZM43.5244 103.622H43.7764C44.1497 103.622 44.4951 103.515 44.8124 103.3C45.1297 103.085 45.4004 102.759 45.6244 102.32C46.0351 101.517 46.4504 100.883 46.8704 100.416C47.2904 99.9494 47.7477 99.7021 48.2424 99.6741C48.7371 99.6461 49.1664 99.7768 49.5304 100.066C49.9037 100.355 50.1884 100.738 50.3844 101.214C50.5804 101.69 50.6784 102.189 50.6784 102.712C50.6784 103.225 50.5804 103.697 50.3844 104.126C50.1884 104.546 49.8991 104.863 49.5164 105.078C49.3484 105.181 49.1337 105.232 48.8724 105.232C48.1911 105.232 47.2391 104.845 46.0164 104.07C45.4471 104.798 44.6911 105.162 43.7484 105.162H43.4964L43.5244 103.622ZM46.7024 102.852C47.1691 103.151 47.5937 103.384 47.9764 103.552C48.3684 103.711 48.6717 103.79 48.8864 103.79C48.9797 103.79 49.0544 103.776 49.1104 103.748C49.2504 103.673 49.3577 103.552 49.4324 103.384C49.5071 103.207 49.5444 103.006 49.5444 102.782C49.5444 102.353 49.4324 101.961 49.2084 101.606C48.9844 101.251 48.6951 101.074 48.3404 101.074C47.8644 101.074 47.3184 101.667 46.7024 102.852ZM59.7704 108.438C58.9211 108.438 58.1698 108.27 57.5164 107.934C56.8631 107.598 56.3591 107.113 56.0044 106.478C55.6591 105.843 55.5098 105.097 55.5564 104.238C55.5751 103.706 55.6731 103.151 55.8504 102.572C56.0371 101.984 56.2471 101.452 56.4804 100.976L57.5724 101.48C57.3391 102.003 57.1524 102.502 57.0124 102.978C56.8724 103.445 56.8024 103.897 56.8024 104.336C56.8024 105.176 57.0591 105.811 57.5724 106.24C58.0858 106.679 58.8184 106.898 59.7704 106.898C60.3678 106.898 60.9044 106.809 61.3804 106.632C61.8658 106.464 62.2624 106.24 62.5704 105.96C62.8878 105.689 63.1071 105.405 63.2284 105.106C63.2378 105.059 63.1164 104.989 62.8644 104.896C62.6124 104.793 62.1831 104.658 61.5764 104.49C60.8484 104.285 60.3351 104.056 60.0364 103.804C59.7378 103.543 59.5884 103.165 59.5884 102.67C59.5884 101.961 59.7658 101.284 60.1204 100.64C60.4844 99.9961 60.9651 99.4781 61.5624 99.0861C62.1691 98.6941 62.8038 98.4981 63.4664 98.4981C63.7184 98.4981 63.9751 98.5354 64.2364 98.6101C64.5071 98.6754 64.7031 98.7548 64.8244 98.8481L64.3764 100.192C64.2644 100.145 64.1198 100.108 63.9424 100.08C63.7651 100.052 63.6018 100.038 63.4524 100.038C63.0324 100.038 62.6311 100.141 62.2484 100.346C61.8751 100.551 61.5624 100.813 61.3104 101.13C61.0678 101.447 60.9138 101.774 60.8484 102.11C60.8391 102.147 60.8344 102.203 60.8344 102.278C60.8344 102.455 60.9371 102.609 61.1424 102.74C61.3478 102.861 61.7584 103.006 62.3744 103.174C62.9531 103.333 63.3964 103.487 63.7044 103.636C64.0124 103.785 64.2224 103.949 64.3344 104.126C64.4464 104.294 64.5024 104.504 64.5024 104.756C64.5024 105.363 64.2971 105.946 63.8864 106.506C63.4851 107.075 62.9204 107.537 62.1924 107.892C61.4738 108.256 60.6664 108.438 59.7704 108.438ZM66.4777 105.078C66.5524 104.518 66.5897 103.538 66.5897 102.138C66.5897 100.859 66.5571 99.5481 66.4917 98.2041C66.4357 96.8508 66.3704 95.9501 66.2957 95.5021L67.6257 95.2081C67.6911 95.6748 67.7564 96.5941 67.8217 97.9661C67.8871 99.3381 67.9197 100.663 67.9197 101.942C67.9197 103.398 67.8731 104.495 67.7797 105.232L66.4777 105.078ZM69.2524 107.85C70.5684 107.57 71.581 107.211 72.2904 106.772C73.009 106.343 73.4524 105.811 73.6204 105.176C72.603 105.176 71.777 105.097 71.1424 104.938C70.5077 104.77 70.0644 104.429 69.8124 103.916C69.6537 103.58 69.5744 103.211 69.5744 102.81C69.5744 102.306 69.6817 101.802 69.8964 101.298C70.1204 100.794 70.4144 100.379 70.7784 100.052C71.1517 99.7254 71.553 99.5621 71.9824 99.5621C72.477 99.5621 72.925 99.7581 73.3264 100.15C73.7277 100.533 74.0497 101.037 74.2924 101.662C74.5444 102.278 74.7077 102.931 74.7824 103.622H75.3284L75.4124 104.392L75.3284 105.162H74.7544C74.577 106.179 74.0497 107.038 73.1724 107.738C72.295 108.438 71.1424 108.928 69.7144 109.208L69.2524 107.85ZM70.8344 103.062C70.9744 103.277 71.287 103.426 71.7724 103.51C72.267 103.585 72.8877 103.622 73.6344 103.622C73.5317 102.894 73.3217 102.278 73.0044 101.774C72.6964 101.261 72.323 101.004 71.8844 101.004C71.6884 101.004 71.497 101.088 71.3104 101.256C71.133 101.424 70.9884 101.634 70.8764 101.886C70.7737 102.129 70.7224 102.367 70.7224 102.6C70.7224 102.796 70.7597 102.95 70.8344 103.062ZM75.1468 103.622H75.2588C75.9868 103.622 76.5515 103.589 76.9528 103.524C77.3541 103.459 77.6435 103.365 77.8208 103.244C78.0075 103.113 78.1335 102.931 78.1988 102.698C78.2361 102.577 78.2548 102.404 78.2548 102.18C78.2548 101.928 78.2315 101.643 78.1848 101.326C78.1381 100.999 78.1101 100.799 78.1008 100.724L79.2628 100.486C79.3935 101.111 79.4588 101.867 79.4588 102.754C79.5055 103.025 79.6268 103.239 79.8228 103.398C80.0281 103.547 80.3035 103.622 80.6488 103.622H80.7468L80.8308 104.392L80.7468 105.162H80.6488C80.2568 105.162 79.9021 105.069 79.5848 104.882C79.2768 104.686 79.0248 104.425 78.8288 104.098C78.5955 104.49 78.2035 104.765 77.6528 104.924C77.1115 105.083 76.3135 105.162 75.2588 105.162H75.1468V103.622ZM76.4488 97.3221L77.4988 98.3721L76.4488 99.4361L75.3848 98.3721L76.4488 97.3221ZM78.9408 97.3221L79.9908 98.3721L78.9408 99.4361L77.8768 98.3721L78.9408 97.3221ZM91.1999 105.162C90.3599 105.153 89.6692 105.008 89.1279 104.728C88.5865 104.439 88.1852 104.005 87.9239 103.426C86.7945 104.005 85.7492 104.439 84.7879 104.728C83.8359 105.017 82.7905 105.162 81.6519 105.162H80.5879V103.622H81.7919C82.9399 103.622 84.0132 103.487 85.0119 103.216C86.0105 102.945 87.0279 102.535 88.0639 101.984L88.3019 101.858C87.8165 101.718 87.3079 101.513 86.7759 101.242C85.9079 100.785 85.1752 100.556 84.5779 100.556C84.1952 100.556 83.8499 100.668 83.5419 100.892C83.2339 101.116 83.0052 101.373 82.8559 101.662L81.9599 101.032C82.2772 100.397 82.6599 99.9168 83.1079 99.5901C83.5559 99.2634 84.0552 99.1001 84.6059 99.1001C85.0072 99.1001 85.3852 99.1701 85.7399 99.3101C86.1039 99.4408 86.6125 99.6741 87.2659 100.01C87.8725 100.318 88.3579 100.547 88.7219 100.696C89.0859 100.845 89.4919 100.967 89.9399 101.06L89.9959 102.418C89.7532 102.483 89.4079 102.637 88.9599 102.88C89.1745 103.113 89.4545 103.295 89.7999 103.426C90.1452 103.557 90.5512 103.622 91.0179 103.622H91.3399L91.4239 104.392L91.3399 105.162H91.1999ZM91.2256 103.622H91.4776C91.8509 103.622 92.1962 103.515 92.5136 103.3C92.8309 103.085 93.1016 102.759 93.3256 102.32C93.7362 101.517 94.1516 100.883 94.5716 100.416C94.9916 99.9494 95.4489 99.7021 95.9436 99.6741C96.4382 99.6461 96.8676 99.7768 97.2316 100.066C97.6049 100.355 97.8896 100.738 98.0856 101.214C98.2816 101.69 98.3796 102.189 98.3796 102.712C98.3796 103.225 98.2816 103.697 98.0856 104.126C97.8896 104.546 97.6002 104.863 97.2176 105.078C97.0496 105.181 96.8349 105.232 96.5736 105.232C95.8922 105.232 94.9402 104.845 93.7176 104.07C93.1482 104.798 92.3922 105.162 91.4496 105.162H91.1976L91.2256 103.622ZM94.4036 102.852C94.8702 103.151 95.2949 103.384 95.6776 103.552C96.0696 103.711 96.3729 103.79 96.5876 103.79C96.6809 103.79 96.7556 103.776 96.8116 103.748C96.9516 103.673 97.0589 103.552 97.1336 103.384C97.2082 103.207 97.2456 103.006 97.2456 102.782C97.2456 102.353 97.1336 101.961 96.9096 101.606C96.6856 101.251 96.3962 101.074 96.0416 101.074C95.5656 101.074 95.0196 101.667 94.4036 102.852Z" fill="white"/>
<defs>
<linearGradient id="paint0_linear_126_1408" x1="56.5" y1="0.162109" x2="56.8967" y2="199.501" gradientUnits="userSpaceOnUse">
<stop stop-color="#E56BE5"/>
<stop offset="1" stop-color="#393C97"/>
</linearGradient>
</defs>
</svg>
