<svg width="31" height="32" xmlns="http://www.w3.org/2000/svg" viewBox="0 0 3155.59 3273.19">
                                                    <g>
                                                        <path d="M2967.99,1400l187.6-25.2-75.6-173.6c-156.8-352.8-492.8-526.4-1033.2-526.4-70,0-140,22.4-207.2,70-151.2,103.6-352.8,103.6-504,0-70-47.6-137.2-70-207.2-70C369.6,674.8,0,1016.4,0,1716.4c0,764.4,422.8,1556.8,1128.4,1556.8,58.8,0,117.6-19.6,176.4-56,173.6-112,394.8-112,568.4,0,56,39.2,114.8,56,176.4,56,439.6,0,806.4-302.4,999.6-828.8l58.8-156.8-162.4-33.6c-235.2-50.4-383.6-280-333.2-515.2,33.6-176.4,176.4-310.8,355.6-338.8ZM2718.79,2480.79c-112,229.6-316.4,504-669.2,504-5.6-2.8-11.2-5.6-16.8-8.4-268.8-176.4-618.8-176.4-887.6,0-5.6,2.8-11.2,5.6-14,8.4-579.6,0-840-742-840-1268.4,0-534.8,243.6-753.2,840-753.2,2.8,0,16.8,2.8,44.8,19.6,249.2,170.8,579.6,170.8,828.8,0,28-19.6,42-19.6,44.8-19.6,389.2,0,579.6,100.8,680.4,212.8-361.2,168-518,596.4-350,960.4,67.2,148.4,187.6,271.6,338.8,344.4h0Z" stroke-width="0" fill="#3cb65f"></path>
                                                        <path d="M1559.6,655.2L2127.99,0l142.8,252-708.4,400.4v2.8h-2.8Z" stroke-width="0" fill="#3cb65f"></path>
                                                        <path d="M1565.2,627.2L1752.8,28l168,126-355.6,473.2h0Z" stroke-width="0" fill="#3cb65f"></path>
                                                    </g>
                                                </svg>