<svg width="32" height="32" viewBox="0 0 32 32" fill="none" xmlns="http://www.w3.org/2000/svg">
                                                    <mask id="mask0_5571_3213" style="mask-type:luminance" maskUnits="userSpaceOnUse" x="5" y="4" width="24" height="26">
                                                        <path d="M28.0014 4H5.33472V29.3333H28.0014V4Z" fill="white"></path>
                                                    </mask>
                                                    <g mask="url(#mask0_5571_3213)">
                                                        <path d="M19.8533 6.631L20.0958 4.66666C20.1037 4.6023 20.0929 4.53703 20.0646 4.47875C20.0363 4.42048 19.9918 4.37171 19.9366 4.33835C19.8814 4.30498 19.8177 4.28846 19.7533 4.29079C19.6889 4.29311 19.6265 4.31418 19.5738 4.35144L18.4799 5.12898C18.4193 5.17186 18.3462 5.19318 18.2722 5.18956C18.1982 5.18594 18.1274 5.15758 18.0713 5.10896L16.8849 4.08126C16.8246 4.02899 16.7477 4.00024 16.6681 4.00024C16.5886 4.00024 16.5117 4.02899 16.4513 4.08126L15.265 5.10896C15.2087 5.15758 15.1381 5.18594 15.0641 5.18956C14.9901 5.19318 14.9169 5.17186 14.8563 5.12898L13.7625 4.35144C13.7097 4.31418 13.6474 4.29311 13.583 4.29079C13.5186 4.28846 13.4549 4.30498 13.3997 4.33835C13.3443 4.37171 13.2999 4.42048 13.2716 4.47875C13.2434 4.53703 13.2325 4.6023 13.2404 4.66666L13.483 6.631C13.4945 6.72447 13.4733 6.81903 13.423 6.89847C13.3727 6.97791 13.2966 7.03724 13.2075 7.0663C10.8663 7.82224 8.83284 9.32368 7.41367 11.3442C5.99449 13.3648 5.2666 15.7948 5.33974 18.268C5.51476 24.3412 10.4699 29.2474 16.5061 29.3325C19.2203 29.3686 21.8575 28.4234 23.9381 26.6688C26.0185 24.914 27.4042 22.4662 27.8431 19.7705C28.2822 17.0746 27.7453 14.31 26.3301 11.9787C24.915 9.64758 22.7155 7.90482 20.1317 7.0673C20.0421 7.03844 19.9654 6.97912 19.9145 6.8995C19.8637 6.81988 19.8421 6.72495 19.8533 6.631Z" fill="#F82E11"></path>
                                                        <path d="M17.0779 8.06477C17.6277 7.86365 18.2149 7.78811 18.7973 7.84361C23.827 8.2699 26.7854 12.6189 26.7854 17.9165C26.7854 23.4964 23.3945 28.0234 17.9858 28.0234C13.0972 28.0234 12.6259 11.5121 16.5737 8.32694C16.7281 8.21515 16.8979 8.12682 17.0779 8.06477Z" fill="white"></path>
                                                        <path d="M18.4792 8.92993C18.1306 8.93168 17.7907 9.03909 17.5036 9.23814C14.5492 11.2205 14.2907 22.236 16.73 25.7994C17.073 26.3168 17.5871 26.695 18.1808 26.8672C18.2779 26.8962 18.378 26.913 18.4792 26.9172C23.0158 26.9172 25.6718 22.8894 25.6718 17.923C25.6718 12.9567 23.0187 8.92993 18.4792 8.92993Z" fill="#FBB8AF"></path>
                                                        <path d="M17.7531 21.7462C18.3737 21.7462 18.8767 21.24 18.8767 20.6154C18.8767 19.9909 18.3737 19.4846 17.7531 19.4846C17.1325 19.4846 16.6294 19.9909 16.6294 20.6154C16.6294 21.24 17.1325 21.7462 17.7531 21.7462Z" fill="#F82E11"></path>
                                                        <path d="M19.9987 19.0911C20.6194 19.0911 21.1225 18.5848 21.1225 17.9603C21.1225 17.3357 20.6194 16.8295 19.9987 16.8295C19.3782 16.8295 18.875 17.3357 18.875 17.9603C18.875 18.5848 19.3782 19.0911 19.9987 19.0911Z" fill="#F82E11"></path>
                                                        <path d="M17.7531 16.4829C18.3737 16.4829 18.8767 15.9766 18.8767 15.3521C18.8767 14.7276 18.3737 14.2213 17.7531 14.2213C17.1325 14.2213 16.6294 14.7276 16.6294 15.3521C16.6294 15.9766 17.1325 16.4829 17.7531 16.4829Z" fill="#F82E11"></path>
                                                        <path d="M20.0773 13.6281C20.7957 13.6281 21.3779 13.0422 21.3779 12.3193C21.3779 11.5964 20.7957 11.0104 20.0773 11.0104C19.3589 11.0104 18.7766 11.5964 18.7766 12.3193C18.7766 13.0422 19.3589 13.6281 20.0773 13.6281Z" fill="#F82E11"></path>
                                                        <path d="M20.0773 24.7587C20.7957 24.7587 21.3779 24.1727 21.3779 23.4498C21.3779 22.7269 20.7957 22.1409 20.0773 22.1409C19.3589 22.1409 18.7766 22.7269 18.7766 23.4498C18.7766 24.1727 19.3589 24.7587 20.0773 24.7587Z" fill="#F82E11"></path>
                                                        <path d="M22.5047 15.7471C23.1286 15.7471 23.6343 15.2382 23.6343 14.6103C23.6343 13.9824 23.1286 13.4735 22.5047 13.4735C21.8807 13.4735 21.375 13.9824 21.375 14.6103C21.375 15.2382 21.8807 15.7471 22.5047 15.7471Z" fill="#F82E11"></path>
                                                        <path d="M23.3294 19.0965C23.9527 19.0965 24.458 18.5881 24.458 17.9608C24.458 17.3336 23.9527 16.8251 23.3294 16.8251C22.706 16.8251 22.2007 17.3336 22.2007 17.9608C22.2007 18.5881 22.706 19.0965 23.3294 19.0965Z" fill="#F82E11"></path>
                                                        <path d="M22.5037 22.3433C23.127 22.3433 23.6323 21.8347 23.6323 21.2074C23.6323 20.5802 23.127 20.0717 22.5037 20.0717C21.8803 20.0717 21.375 20.5802 21.375 21.2074C21.375 21.8347 21.8803 22.3433 22.5037 22.3433Z" fill="#F82E11"></path>
                                                    </g>
                                                </svg>