<svg width="32" height="32" viewBox="0 0 32 32" fill="none" xmlns="http://www.w3.org/2000/svg">
                                                    <path fill-rule="evenodd" clip-rule="evenodd" d="M23.4792 3.74468C24.2111 2.00154 24.203 1.98975 22.3279 2.00154C18.6906 2.02513 16.0121 3.85007 15.0495 6.91474C14.9006 7.39014 14.953 7.57588 15.4527 7.7056C18.9168 8.60702 22.0898 7.0511 23.4792 3.74468ZM5.01306 19.7638C5.30789 25.546 9.89383 29.9882 15.5809 30L15.5817 29.9985C17.4531 30.0236 19.1866 29.5364 20.8369 28.6645C21.4037 28.3652 21.5437 28.1397 21.1258 27.5729C20.3231 26.4835 19.5706 25.3536 18.8542 24.2053C18.4982 23.6355 18.2388 23.4955 17.5481 23.8213C15.6053 24.7367 13.3727 24.1743 11.965 22.5624C10.5881 20.9858 10.3751 18.7319 11.4313 16.9269C12.4927 15.113 14.6176 14.1946 16.7094 14.645C18.6957 15.0732 20.2605 16.8097 20.4484 18.897C20.6843 21.5106 21.6159 23.836 23.1321 25.9624C23.5065 26.4872 23.6834 26.3663 23.9929 25.9528C25.8201 23.5154 26.5785 20.8067 26.1215 17.7752C25.2843 12.2171 20.1234 8.21933 14.5292 8.8016C8.99021 9.37798 4.73298 14.2831 5.01306 19.7638Z" fill="url(#paint0_linear_5571_2512)"></path>
                                                    <defs>
                                                        <linearGradient id="paint0_linear_5571_2512" x1="15.6257" y1="2" x2="15.6257" y2="30" gradientUnits="userSpaceOnUse">
                                                            <stop stop-color="#19ACF1"></stop>
                                                            <stop offset="1" stop-color="#1C59F2"></stop>
                                                        </linearGradient>
                                                    </defs>
                                                </svg>