<svg width="32" height="32" viewBox="0 0 32 32" fill="none" xmlns="http://www.w3.org/2000/svg">
                                                    <path d="M2.09406 10.3881C1.95897 10.5217 2.01049 10.6927 2.01019 10.8481C2.0054 14.8491 2.0054 18.8497 2.00001 22.8504C1.99941 23.2835 2.03445 23.7127 2.12131 24.1341C2.71915 27.0275 5.13655 28.9977 8.09189 28.9992C13.0231 29.0013 17.9544 28.9989 22.8859 28.9971C26.352 28.9959 29 26.3464 29.0003 22.8776C29.0009 18.7153 28.9985 14.5532 28.9976 10.3908C28.9985 9.55602 29.0138 8.72067 28.9979 7.88621C28.9362 4.65652 26.278 2.01807 23.0495 2.00938C18.0119 1.9956 12.9743 1.9983 7.93674 2.00908C5.40043 2.01447 3.11241 3.71633 2.3145 6.12235C1.86493 7.47737 2.03894 8.86773 2.02097 10.2482C2.02037 10.2943 2.0686 10.3414 2.09406 10.3881Z" fill="#76D2FE"></path>
                                                    <path d="M15.5019 16.5958C15.1609 16.2803 14.8038 15.9609 14.4505 15.6448C14.1565 15.3818 13.8651 15.1211 13.5879 14.8671L13.5878 14.867C11.4736 12.9304 9.00792 11.7957 6.03891 11.8809C5.1398 11.9067 4.24553 11.9004 3.34096 11.894C3.06922 11.8921 2.79655 11.8901 2.52254 11.8891C2.52156 11.6527 2.51805 11.3846 2.51431 11.0983C2.51342 11.0308 2.51253 10.9623 2.51165 10.893C2.50489 10.3602 2.49895 9.77001 2.50634 9.18204C2.52145 7.97842 2.59331 6.8713 2.78954 6.27998L2.78957 6.27988C3.52175 4.0721 5.62327 2.51414 7.93829 2.50922M15.5019 16.5958L17.7299 15.2552C19.7529 13.4003 22.0714 12.3047 24.8779 12.3831C25.8227 12.4095 26.7683 12.403 27.714 12.3964C28.1421 12.3935 28.5701 12.3905 28.9981 12.3906M15.5019 16.5958C15.8521 16.2696 16.2172 15.943 16.5778 15.6207C16.8549 15.3729 17.1293 15.1276 17.392 14.8867M15.5019 16.5958L17.392 14.8867M7.93829 2.50922C12.9754 2.49874 18.0121 2.49605 23.0486 2.50952C26.0028 2.51747 28.4419 4.93535 28.4985 7.89556C28.4985 7.89558 28.4985 7.89559 28.4985 7.8956L28.9984 7.88605C29.0104 8.52002 29.0045 10.3089 29.0006 11.498C28.9993 11.874 28.9983 12.1901 28.9981 12.3906M7.93829 2.50922L7.93723 2.00922L7.93829 2.50922ZM28.9981 12.3906L28.9982 11.8906C28.8314 11.8906 28.6651 11.891 28.4993 11.8917M28.9981 12.3906L28.4981 12.3901C28.4982 12.2639 28.4987 12.0933 28.4993 11.8917M28.4993 11.8917C28.2319 11.8928 27.9655 11.8947 27.7 11.8965C26.7589 11.903 25.8278 11.9095 24.8919 11.8833C21.9283 11.8005 19.4886 12.9642 17.392 14.8867M28.4993 11.8917L17.392 14.8867M15.5473 16.6785C15.5942 16.6858 15.621 16.7022 15.6222 16.7029L15.6223 16.703C15.6223 16.703 15.618 16.7002 15.6087 16.6927C15.5987 16.6847 15.5853 16.6732 15.5676 16.6567C15.5676 16.6567 15.5675 16.6567 15.5675 16.6567L15.5472 16.6785C15.5422 16.6777 15.537 16.6771 15.5315 16.6765C15.5034 16.6738 15.4755 16.6753 15.4498 16.6803C15.4387 16.6824 15.4288 16.6851 15.4204 16.6878C15.4203 16.6878 15.4203 16.6878 15.4202 16.6878C15.4096 16.6912 15.4012 16.6948 15.3951 16.6977C15.3878 16.7011 15.3841 16.7036 15.3841 16.7036C15.384 16.7035 15.3933 16.6974 15.4124 16.6794L15.5473 16.6785Z" fill="#FDFEFE" stroke="#DBE9FA"></path>
                                                    <path d="M28.9976 10.3903C28.9985 14.5527 29.0009 18.7148 29.0003 22.8772C29 26.3459 26.352 28.9954 22.8859 28.9966C17.9547 28.9984 13.0234 29.0008 8.09189 28.9987C5.13655 28.9975 2.71915 27.0273 2.12131 24.1337C2.03445 23.7126 1.99941 23.283 2.00001 22.8502C2.0054 18.8496 2.0054 14.8489 2.01019 10.8483C2.01019 10.6928 1.95897 10.5215 2.09406 10.3882C3.41373 10.3879 4.734 10.4188 6.05278 10.3807C8.86854 10.2999 11.2126 11.3697 13.2496 13.2357C13.9046 13.836 14.5761 14.4182 15.2267 15.023C15.4169 15.1997 15.5427 15.2422 15.7541 15.0439C16.4017 14.4362 17.0747 13.8557 17.7295 13.2552C19.7521 11.4003 22.0707 10.3047 24.8774 10.3831C26.2498 10.4215 27.624 10.3903 28.9976 10.3906V10.3903ZM15.4669 22.705C19.4056 22.7125 22.6089 19.5819 22.6829 15.6525C22.6955 14.9789 22.2525 14.4757 21.634 14.4614C21.0265 14.4473 20.5776 14.9041 20.5488 15.5708C20.521 16.2177 20.3811 16.8243 20.1427 17.4398C19.6347 18.7514 18.7134 19.6316 17.4728 20.1726C14.1904 21.604 10.5455 19.2372 10.4254 15.6259C10.4018 14.9133 9.98184 14.4566 9.35645 14.4635C8.72297 14.4704 8.28658 14.9768 8.30365 15.6855C8.3977 19.5903 11.5687 22.6975 15.4672 22.705H15.4669Z" fill="#168AEA"></path>
                                                    <path d="M15.4673 22.705C11.569 22.6975 8.39805 19.5903 8.30371 15.6855C8.28663 14.9771 8.72303 14.4707 9.35651 14.4635C9.9819 14.4566 10.4018 14.9133 10.4255 15.6259C10.5456 19.2372 14.1904 21.6037 17.4728 20.1726C18.7134 19.6316 19.635 18.7514 20.1427 17.4398C20.3811 16.824 20.521 16.2177 20.5489 15.5708C20.5776 14.9041 21.0263 14.4473 21.634 14.4614C22.2528 14.4758 22.6958 14.9786 22.6829 15.6526C22.609 19.5822 19.4056 22.7128 15.467 22.705H15.4673Z" fill="#FDFEFE"></path>
                                                    <path d="M20.4397 5.45764C20.3669 7.86247 18.4821 10.1523 16.1848 10.441C16.0781 10.4545 15.9697 10.456 15.8631 10.4707C15.5962 10.5075 15.5082 10.3889 15.5123 10.1286C15.5414 8.36026 16.3175 6.97649 17.6907 5.90842C18.3146 5.4232 19.0272 5.10691 19.8002 4.93738C20.4529 4.79451 20.4616 4.80559 20.4397 5.45764Z" fill="#168AEA"></path>
                                                </svg>