<svg width="32" height="32" viewBox="0 0 32 32" fill="none" xmlns="http://www.w3.org/2000/svg">
                                                    <path fill-rule="evenodd" clip-rule="evenodd" d="M16.4928 7.85345C16.5858 7.86262 16.6764 7.87154 16.7638 7.88026V7.87983C16.864 7.87182 16.9533 7.86455 17.0365 7.85777C17.1341 7.84982 17.2235 7.84253 17.3131 7.8355C19.7582 7.64166 22.2711 5.67334 22.4784 2.36949C22.4884 2.21173 22.4214 2.12046 22.2654 2.09786C22.1294 2.07787 21.9929 2.06049 21.8564 2.04484C19.9199 1.82536 18.2705 2.41034 16.9298 3.82715C15.9571 4.85455 15.5095 6.10708 15.4061 7.49955C15.3926 7.67861 15.4917 7.75031 15.6473 7.76726C15.9355 7.79857 16.2242 7.82701 16.4928 7.85345ZM26.3638 20.9864C26.3634 20.5775 26.3631 20.1686 26.3631 19.7597C26.3631 19.3373 26.3632 18.9148 26.3633 18.4924C26.3635 17.6475 26.3637 16.8027 26.3631 15.9578C26.3605 12.404 23.5455 9.58259 19.9948 9.57867C17.4602 9.57607 14.9256 9.57607 12.391 9.58085C12.0659 9.58128 11.7378 9.59649 11.4171 9.64343C8.32137 10.098 6.00407 12.7856 6.00146 15.9191C5.99929 18.4972 5.99929 21.0752 6.0032 23.6533C6.00363 23.9275 6.01711 24.2044 6.05405 24.476C6.48648 27.6612 9.16668 29.9972 12.3854 29.999C14.92 30.0003 17.4546 30.0011 19.9892 29.9963C20.3143 29.9959 20.642 29.9807 20.9631 29.9342C24.0201 29.4926 26.3513 26.8051 26.3622 23.7133C26.3655 22.8042 26.3647 21.8953 26.3638 20.9864ZM21.8634 18.6311C21.8633 19.0196 21.8632 19.4081 21.8632 19.7966L21.8628 19.7962C21.8628 20.1777 21.8628 20.5591 21.8629 20.9405C21.8631 21.7032 21.8633 22.4657 21.8628 23.2283C21.8619 24.559 20.9375 25.4886 19.6124 25.4891C17.3172 25.4904 15.0221 25.4904 12.727 25.4891C11.4766 25.4882 10.5074 24.559 10.4992 23.3065C10.4844 20.9609 10.4857 18.615 10.4992 16.269C10.5061 15.0195 11.4775 14.0833 12.7243 14.0833C15.0338 14.0825 17.3437 14.0825 19.6532 14.0833C20.9097 14.0838 21.8619 15.039 21.8632 16.2994C21.8638 17.0768 21.8636 17.8539 21.8634 18.6311Z" fill="#1D45F5"></path>
                                                </svg>