<svg width="28" height="28" viewBox="0 0 28 28" fill="none" xmlns="http://www.w3.org/2000/svg">
                                                    <g clip-path="url(#clip0_5571_3276)">
                                                        <path d="M20.6074 17.6709L21.4163 15.6254H23.752L22.6433 12.5224L24.0297 9.01685L28.0002 19.5591H25.0721L24.3936 17.6709H20.6074Z" fill="#606060"></path>
                                                        <path d="M18.1086 18.9829L22.3591 8.44067L19.5412 8.4409L16.6336 15.2535L14.5658 8.4409H12.3999L10.1799 15.2535L8.61417 12.149L7.19727 16.5142L8.63595 18.9829H11.4091L13.4154 12.8735L15.328 18.9829H18.1086Z" fill="#8B67C0"></path>
                                                        <path d="M2.67486 15.3638H4.41057C4.93638 15.3638 5.40449 15.3052 5.81513 15.1878L6.26393 13.805L7.51851 9.93975C7.42309 9.78843 7.31398 9.64496 7.19117 9.51003C6.54704 8.79698 5.60453 8.44067 4.36387 8.44067H0V18.9829H2.67486V15.3638ZM4.9723 10.8659C5.22398 11.1191 5.34971 11.4581 5.34971 11.8825C5.34971 12.3104 5.23902 12.6496 5.01788 12.9004C4.77518 13.179 4.32862 13.3185 3.67798 13.3185H2.67486V10.4862H3.68539C4.2918 10.4862 4.72085 10.6126 4.9723 10.8659Z" fill="#606060"></path>
                                                    </g>
                                                    <defs>
                                                        <clipPath id="clip0_5571_3276">
                                                            <rect width="28" height="28" fill="white"></rect>
                                                        </clipPath>
                                                    </defs>
                                                </svg>