<svg width="32" height="32" viewBox="0 0 32 32" fill="none" xmlns="http://www.w3.org/2000/svg">
                                                    <path d="M14.6666 5.33333C14.6666 4.59695 15.2635 4 15.9999 4H16.0133C16.7496 4 17.3466 4.59695 17.3466 5.33333V5.34667C17.3466 6.08305 16.7496 6.68 16.0133 6.68H15.9999C15.2635 6.68 14.6666 6.08305 14.6666 5.34667V5.33333Z" fill="#718E9C"></path>
                                                    <path d="M9.33325 11.6667C7.6764 11.6667 6.33325 13.0098 6.33325 14.6667V22.6667C6.33325 24.3235 7.6764 25.6667 9.33325 25.6667H22.6666C24.3234 25.6667 25.6666 24.3235 25.6666 22.6667V14.6667C25.6666 13.0098 24.3234 11.6667 22.6666 11.6667H21.3333C20.781 11.6667 20.3333 11.219 20.3333 10.6667C20.3333 10.1144 20.781 9.66667 21.3333 9.66667H22.6666C25.428 9.66667 27.6666 11.9052 27.6666 14.6667V22.6667C27.6666 25.4281 25.428 27.6667 22.6666 27.6667H9.33325C6.57183 27.6667 4.33325 25.4281 4.33325 22.6667V14.6667C4.33325 11.9052 6.57183 9.66667 9.33325 9.66667H11.3333C11.8855 9.66667 12.3333 10.1144 12.3333 10.6667C12.3333 11.219 11.8855 11.6667 11.3333 11.6667H9.33325Z" fill="#718E9C"></path>
                                                    <path d="M12.6261 19.3738L15.2928 22.0404C15.6833 22.431 16.3165 22.431 16.707 22.0404L19.3737 19.3738C19.7642 18.9832 19.7642 18.3501 19.3737 17.9596C18.9832 17.569 18.35 17.569 17.9595 17.9596L16.9999 18.9191L16.9999 9.33333C16.9999 8.78105 16.5522 8.33333 15.9999 8.33333C15.4476 8.33333 14.9999 8.78105 14.9999 9.33333L14.9999 18.9191L14.0404 17.9596C13.6498 17.569 13.0167 17.569 12.6261 17.9596C12.2356 18.3501 12.2356 18.9832 12.6261 19.3738Z" fill="#718E9C"></path>
                                                </svg>