<svg width="32" height="32" viewBox="0 0 32 32" fill="none" xmlns="http://www.w3.org/2000/svg">
                                                    <circle cx="16.0001" cy="17.1429" r="13.7143" fill="white"></circle>
                                                    <path d="M14.2839 1.208C13.3507 1.32842 11.8955 1.66963 10.9622 2.00079C3.90733 4.45947 -0.397864 11.7652 0.886666 19.1111C1.44865 22.3425 2.91382 25.1324 5.30225 27.4907C10.7013 32.8395 19.2113 33.3815 25.3229 28.7753C28.2934 26.5373 30.3506 23.2658 31.1634 19.4723C31.4545 18.1076 31.4845 15.2174 31.2136 13.8124C30.0595 7.66076 25.4633 2.88392 19.3518 1.47896C18.3282 1.24814 17.8866 1.208 16.3913 1.18793C15.428 1.16786 14.4746 1.1779 14.2839 1.208ZM13.3907 9.62769C14.1435 9.85851 14.7556 10.1796 15.3979 10.7015L15.9397 11.143L16.3913 10.7416C17.5756 9.6879 19.4822 9.1761 21.0578 9.49723C22.6936 9.83844 24.0884 10.8219 24.8512 12.1867C25.5236 13.381 25.5537 13.6217 25.6038 17.656C25.6339 20.8673 25.6239 21.3189 25.4734 21.6C25.2426 22.0615 24.7709 22.3124 24.1386 22.3124C23.6771 22.3124 23.5667 22.2722 23.2355 21.9712L22.8641 21.63L22.814 17.9772C22.7538 13.9329 22.7538 13.963 22.0412 13.1701C21.4693 12.538 20.9875 12.3272 20.1044 12.3272C19.5324 12.3272 19.2614 12.3774 18.9403 12.548C18.3985 12.839 17.9167 13.3408 17.6558 13.8827C17.4551 14.3042 17.4451 14.545 17.3949 17.4452C17.3548 19.7534 17.3146 20.6164 17.2142 20.787C16.8731 21.3792 15.8495 21.6 15.2172 21.2085C14.5449 20.797 14.5449 20.797 14.4846 17.2947C14.4344 14.2841 14.4244 14.1135 14.2136 13.7221C13.7921 12.9394 12.9893 12.3975 12.1163 12.3071C11.0525 12.1968 10.049 12.7286 9.51711 13.692L9.21605 14.2339L9.16586 17.8466C9.11569 21.1785 9.10565 21.4795 8.92502 21.7404C8.6641 22.1217 8.26268 22.3124 7.69066 22.3124C7.08854 22.3124 6.64699 22.0515 6.4262 21.5799C6.27567 21.2687 6.2556 20.797 6.2556 17.8267C6.2556 15.2675 6.29574 14.264 6.40613 13.7523C6.86776 11.5846 8.634 9.85851 10.8016 9.46712C11.474 9.3467 12.7084 9.42698 13.3907 9.62769ZM12.3973 23.0851C14.1635 24.5703 17.9268 24.5904 19.7432 23.1253C20.4356 22.5633 20.6464 22.8243 20.0844 23.5367C19.6228 24.1088 18.7898 24.6707 18.017 24.9417C17.0437 25.2729 15.1369 25.2729 14.1535 24.9417C13.0496 24.5604 11.7751 23.4565 11.7751 22.8844C11.7751 22.6336 11.9055 22.6738 12.3973 23.0851Z" fill="#0091EA"></path>
                                                </svg>