<svg width="32" height="32" viewBox="0 0 92 90" fill="none" xmlns="http://www.w3.org/2000/svg">
                                                    <g clip-path="url(#clip0_15_68)">
                                                        <path d="M79.3961 47.9567H11.838C5.29854 47.9567 0 42.6001 0 35.9923C0 29.3845 5.29854 24.0278 11.838 24.0278H79.3961C85.9355 24.0278 91.2341 29.3845 91.2341 35.9923C91.2341 42.6001 85.9355 47.9567 79.3961 47.9567Z" fill="#A57DFA"></path>
                                                        <path d="M78.1277 73.8822L58.4206 8.51183C57.4874 5.42158 55.4192 2.99109 52.811 1.52801C52.7699 1.50408 52.7289 1.48015 52.6879 1.45964C52.5785 1.39811 52.4657 1.34342 52.3529 1.2853C52.2845 1.25112 52.2162 1.21352 52.1444 1.17933C52.0452 1.13147 51.9461 1.08703 51.8436 1.0426C51.7615 1.00499 51.6829 0.96739 51.6008 0.933206C51.4368 0.864838 51.2727 0.799888 51.1086 0.738356C51.0915 0.73152 51.0744 0.724683 51.0539 0.717846C50.8625 0.649478 50.671 0.584528 50.4762 0.526415C50.4591 0.519578 50.442 0.51616 50.4249 0.512741C50.2472 0.458047 50.066 0.40677 49.8848 0.362331C49.8848 0.362331 49.8848 0.362331 49.8814 0.362331C47.8508 -0.150431 45.6631 -0.136758 43.5129 0.512741C39.7116 1.65791 36.9017 4.52938 35.6779 8.00932C35.6642 8.05034 35.6471 8.08795 35.63 8.12555L11.7729 73.7078C9.46548 80.0558 12.6275 87.0328 18.8353 89.289C25.0432 91.5451 31.9518 88.2327 34.2592 81.8847L45.8989 49.8849L55.2175 80.7874C57.125 87.1148 63.8012 90.6973 70.1252 88.7899C76.4493 86.8824 80.0352 80.2062 78.1277 73.8822Z" fill="url(#paint0_linear_15_68)"></path>
                                                        <path d="M86.2603 45.7213L30.3213 87.5182C24.9066 91.5622 17.3109 90.5504 13.3558 85.2587C9.40066 79.9669 10.5834 72.3952 15.9982 68.3512L71.9371 26.5542C77.3519 22.5102 84.9476 23.5221 88.9027 28.8138C92.8578 34.1055 91.675 41.6773 86.2603 45.7213Z" fill="url(#paint1_linear_15_68)"></path>
                                                    </g>
                                                    <defs>
                                                        <linearGradient id="paint0_linear_15_68" x1="44.8291" y1="-0.000488281" x2="44.9988" y2="57.5" gradientUnits="userSpaceOnUse">
                                                            <stop stop-color="#460DC0"></stop>
                                                            <stop offset="1" stop-color="#8A53FF"></stop>
                                                        </linearGradient>
                                                        <linearGradient id="paint1_linear_15_68" x1="89.5" y1="29.5" x2="14" y2="86.5" gradientUnits="userSpaceOnUse">
                                                            <stop stop-color="#A57DFA"></stop>
                                                            <stop offset="1" stop-color="#8B54FF"></stop>
                                                        </linearGradient>
                                                        <clipPath id="clip0_15_68">
                                                            <rect width="91.2375" height="90" fill="white"></rect>
                                                        </clipPath>
                                                    </defs>
                                                </svg>