<svg width="32" height="32" viewBox="0 0 32 32" fill="none" xmlns="http://www.w3.org/2000/svg">
                                                    <mask id="mask0_5560_11163" style="mask-type:luminance" maskUnits="userSpaceOnUse" x="4" y="4" width="26" height="26">
                                                        <path d="M29.3333 4H4V29.3333H29.3333V4Z" fill="white"></path>
                                                    </mask>
                                                    <g mask="url(#mask0_5560_11163)">
                                                        <path d="M29.1412 12.2908L29.1385 12.289C28.3444 11.8138 27.4643 11.4869 26.5443 11.3253C26.1103 11.2265 25.6135 11.1316 25.0457 11.044C24.3309 10.9328 23.5032 10.8332 22.5452 10.7521C22.5011 10.7481 22.4563 10.7445 22.4119 10.7409C22.2177 10.2994 22.0171 9.84855 21.804 9.37379C21.6907 9.12029 21.5827 8.86389 21.4687 8.59265C21.4551 8.56007 21.4411 8.52748 21.4272 8.49488C21.042 7.44499 20.494 6.45715 19.8019 5.56483C19.4367 5.09297 18.9649 4.707 18.4221 4.43595C17.8795 4.16489 17.2799 4.01584 16.6685 4C16.0572 4.0158 15.4576 4.16483 14.9149 4.43589C14.3721 4.70695 13.9004 5.09295 13.5352 5.56483C12.8435 6.45656 12.2957 7.44364 11.9103 8.49271C11.896 8.52603 11.882 8.55935 11.8681 8.59265C11.754 8.86389 11.6464 9.12029 11.5327 9.37379C11.3197 9.84855 11.1194 10.2994 10.9252 10.7409C10.8804 10.7445 10.836 10.7481 10.7919 10.7521C9.83205 10.8336 9.00283 10.9331 8.28688 11.0447C7.72112 11.132 7.22655 11.2268 6.79324 11.3253C5.87324 11.4869 4.99313 11.8138 4.19897 12.289L4.19259 12.293C4.12417 12.3408 4.07053 12.4057 4.03739 12.4805C4.00424 12.5554 3.99283 12.6375 4.00437 12.7182L4.12972 13.618C4.32093 14.9652 4.52457 16.5467 4.85997 18.1767C5.10785 19.4322 5.4544 20.6676 5.89663 21.8727C6.07541 22.3467 6.27341 22.8127 6.49475 23.2658C7.44103 25.1012 8.90482 26.6438 10.7189 27.7171C12.533 28.7903 14.6243 29.3511 16.7539 29.3354C18.8835 29.3198 20.9656 28.7282 22.7623 27.6282C24.5591 26.5283 25.9981 24.9644 26.9151 23.1151C27.0863 22.7534 27.2441 22.3846 27.3885 22.0088C28.2753 19.4252 28.8648 16.7559 29.1464 14.0487L29.3295 12.7142C29.3407 12.6338 29.3292 12.552 29.296 12.4775C29.2629 12.4029 29.2093 12.3384 29.1412 12.2908ZM16.6685 10.5352C15.4904 10.5352 14.4195 10.5558 13.4464 10.5931C13.4992 10.4747 13.5521 10.3559 13.6064 10.2346C13.7303 9.95828 13.848 9.67799 13.9621 9.40711C14.2001 8.80061 14.4791 8.20969 14.7971 7.63808C14.9413 7.38984 15.1067 7.1534 15.2912 6.93119C15.4508 6.71704 15.6563 6.53847 15.894 6.40761C16.1316 6.27676 16.3959 6.19669 16.6685 6.17288C16.9412 6.19675 17.2055 6.27683 17.4431 6.40768C17.6808 6.53853 17.8863 6.71708 18.0459 6.93119C18.2304 7.15365 18.3957 7.39032 18.5401 7.63881C18.858 8.21021 19.1368 8.80089 19.3749 9.40712C19.4887 9.678 19.6065 9.95829 19.7307 10.2346C19.7849 10.3559 19.838 10.4747 19.8907 10.5931C18.9176 10.5558 17.8468 10.5352 16.6685 10.5352Z" fill="#02B75D"></path>
                                                    </g>
                                                </svg>