<svg xmlns="http://www.w3.org/2000/svg" xmlns:xlink="http://www.w3.org/1999/xlink" width="282.333" height="129.342" viewBox="0 0 282.333 129.342">
  <defs>
    <linearGradient id="linear-gradient" x1="0.948" y1="0.06" x2="-0.031" y2="0.456" gradientUnits="objectBoundingBox">
      <stop offset="0" stop-color="#fff"/>
      <stop offset="1" stop-color="#37bec1"/>
    </linearGradient>
    <linearGradient id="linear-gradient-3" x1="0.5" x2="0.5" y2="1" gradientUnits="objectBoundingBox">
      <stop offset="0" stop-color="#393c97"/>
      <stop offset="1" stop-color="#37bec1"/>
    </linearGradient>
    <clipPath id="clip-path">
      <path id="Path_2010" data-name="Path 2010" d="M347.653,30.072a8.684,8.684,0,0,0-6.969,5.412,8.206,8.206,0,0,0,2.129,9.169,11.507,11.507,0,0,0,5.033,1.616,8.669,8.669,0,0,1-5.035,1.91c-8.323,0-10.238-17.709,4.843-18.108m6.7-23.2c4.484,2.655,8.727,6.909,10.493,12.21,1.886,5.664,1.4,11.209-.606,17.6a38.481,38.481,0,0,0-9.887-29.806M343.665,1.158a1.538,1.538,0,0,0,.882,1.781,23,23,0,0,1,6.6,4.765,35.516,35.516,0,0,1,10.079,29.806c-1.816-7.74-9.692-11.795-17.248-9.886a12.624,12.624,0,0,0-9.83,16.436c1.189,3.843,4.467,7.081,8.648,7.038,3.739-.068,6.816-2.137,9.683-5.067h0a1.767,1.767,0,0,0-1.756-2.917c-2.1.642-4.232.743-6.172-.784-1.669-1.313-1.891-3.893-1.159-5.828,1.342-3.677,6.289-4.546,9.47-2.817,4.246,2.285,5.721,7.745,5.094,12.3-.716,5.064-3.45,9.6-6.035,14.032a82.754,82.754,0,0,0-6.873,13.5l2.464,1.647a79.611,79.611,0,0,1,6.843-13.577h0c1.015-1.736,10.051-16.936,11.892-21.872,7.735-20.146-2.06-34.52-20.678-39.658a1.541,1.541,0,0,0-1.905,1.1" transform="translate(-333.501 0)" fill="#fff"/>
    </clipPath>
    <linearGradient id="linear-gradient-4" x1="0.978" y1="0.339" x2="0.019" y2="0.346" gradientUnits="objectBoundingBox">
      <stop offset="0" stop-color="#82c341"/>
      <stop offset="1" stop-color="#37bec1"/>
    </linearGradient>
    <clipPath id="clip-path-2">
      <path id="Path_2011" data-name="Path 2011" d="M374.752,38.128A52.989,52.989,0,0,1,408.6,87.6q0,.941-.032,1.89a52.878,52.878,0,0,1-10.309,29.671l-.195.263a35.453,35.453,0,0,1-11.492,10.013,29.591,29.591,0,0,1-14.033,3.678,26.348,26.348,0,0,1-8.671-1.461,28.637,28.637,0,0,1-8.357-4.635,19.729,19.729,0,0,1-6.1-8.245,29.3,29.3,0,0,1-1.94-10.991c0-1.209.062-2.447.173-3.7l-2.712-1.813a46.333,46.333,0,0,0-.354,5.516,32.17,32.17,0,0,0,2.151,12.074,22.631,22.631,0,0,0,6.995,9.433,31.538,31.538,0,0,0,9.2,5.1,29.231,29.231,0,0,0,9.621,1.621,32.481,32.481,0,0,0,15.408-4.025,38.344,38.344,0,0,0,12.435-10.829l.2-.275a55.766,55.766,0,0,0,10.872-31.288q.035-1,.035-1.99a55.827,55.827,0,0,0-37.042-52.655,28.041,28.041,0,0,1,.3,3.182" transform="translate(-344.575 -34.946)" fill="url(#linear-gradient)"/>
    </clipPath>
    <clipPath id="clip-path-3">
      <path id="Path_2012" data-name="Path 2012" d="M290.547,45.3a55.833,55.833,0,0,0-17.221,38.157c-.79,21.973,12.721,43.452,32.884,52.141a54.79,54.79,0,0,0,20.848,4.671,54.438,54.438,0,0,1-20.543-5.327c-19.237-9.064-31.77-30.166-30.3-51.366l-.083,0,.083,0A53.121,53.121,0,0,1,329.252,32.63q.613,0,1.23.014a53.5,53.5,0,0,1,7.361.679c-.323-1.045-.681-2.077-1.093-3.084a56.831,56.831,0,0,0-6.2-.487q-.65-.014-1.3-.015a55.848,55.848,0,0,0-38.7,15.563" transform="translate(-273.294 -29.737)" fill="url(#linear-gradient)"/>
    </clipPath>
    <clipPath id="clip-path-4">
      <path id="Path_2016" data-name="Path 2016" d="M349.061,144c-.111,1.256-.173,2.494-.173,3.7a35.49,35.49,0,0,0,.18,3.556l5.427-3.627-6.057-4.047Z" transform="translate(-348.439 -143.584)" fill="#fff"/>
    </clipPath>
    <linearGradient id="linear-gradient-7" x1="0.93" y1="0.436" x2="-0.621" y2="0.524" gradientUnits="objectBoundingBox">
      <stop offset="0" stop-color="#e0ad70"/>
      <stop offset="1" stop-color="#8c5e2c"/>
    </linearGradient>
    <clipPath id="clip-path-5">
      <path id="Path_2017" data-name="Path 2017" d="M301.6,158.926h17.632l8.288-5.444a38.527,38.527,0,0,1-.53-6.453,48.3,48.3,0,0,1,.312-5.279Z" transform="translate(-301.601 -141.75)" fill="#fff"/>
    </clipPath>
    <clipPath id="clip-path-6">
      <path id="Path_2018" data-name="Path 2018" d="M306.827,98.791c-.139,7.338,5.056,8.359,5.056,8.359-8.584,4.743-2.669,14.453-2.669,14.453.273-.513.657-1.192,1.153-1.951a17.393,17.393,0,0,1,4.509-4.855c1.3-.881,4.982-2.383,10.1.845l37.256,24.9H380L306.935,91.711c-.019,1.616-.054,4.268-.108,7.08" transform="translate(-306.824 -91.711)" fill="#fff"/>
    </clipPath>
    <clipPath id="clip-path-7">
      <path id="Path_2019" data-name="Path 2019" d="M366.089,113.274l8.886,5.94,5.352-3.576c5.563-3.636,8.8-1.727,10.095-.846a15.269,15.269,0,0,1,3.308,3.18,24.742,24.742,0,0,1,2.355,3.625c.046-.067.084-.132.128-.2.773-1.389,5.088-9.905-2.783-14.255,0,0,5.194-1.02,5.056-8.359-.054-2.817-.09-5.475-.108-7.089Z" transform="translate(-366.089 -91.697)" fill="#fff"/>
    </clipPath>
    <clipPath id="clip-path-8">
      <rect id="Rectangle_690" data-name="Rectangle 690" width="63.563" height="0.523" transform="translate(0 36.865) rotate(-35.45)" fill="url(#linear-gradient-3)"/>
    </clipPath>
    <clipPath id="clip-path-9">
      <path id="Path_2937" data-name="Path 2937" d="M151.779,43.557c.244-1.237.95-10.046,1.092-11.517-.709-.089-5.877,5.229-5.811,14.838L116.85,68.142l.273.387,29.9-21.045c-.115,4.095-1.265,7.358-5.082,9.324-4.87,2.694-10.156,4.88-14.132,8.9a33.833,33.833,0,0,0-7.348,11.146c-4.518,10.075,9.413,10.441,16.323,10.929,21.455,1.164,42.82-2.645,63.855-6.452V73.217l-.292.045c-15.563,1.961-61.218,9.438-73.47,1.378-1.862-1.418-.412-3.792.808-5.111,3.666-4.134,9.2-5.678,13.829-8.425,6.125-3.277,9.237-10.265,10.167-16.9l26.428-18.6-.273-.387-26.057,18.34" transform="translate(-116.85 -25.217)" fill="#fff"/>
    </clipPath>
    <clipPath id="clip-path-10">
      <path id="Path_2938" data-name="Path 2938" d="M178.478,0c-9.97,8.013-18.786,13.112-30.4,21.228h.018c-2.859,2-5.651,4.1-8.318,6.35a32.957,32.957,0,0,0-6.054,8.5c-.478.67,0,1.137.59.388,7.352-6.543,16.6-11.721,24.017-16.969,3.479-2.335,6.933-4.707,10.259-7.257,2.5-1.922,5.072-3.828,6.754-6.554a42.049,42.049,0,0,0,3.045-4.95C178.5.517,178.749.176,178.478,0Z" transform="translate(-133.526)" fill="#fff"/>
    </clipPath>
    <clipPath id="clip-path-11">
      <path id="Path_2939" data-name="Path 2939" d="M156.472,16.806c-2.032,1.332-4.057,2.675-5.988,4.153a12.342,12.342,0,0,0-4.058,4.763c-.2.292.007.463.244.161,4.829-4.079,7.587-5.076,12.7-8.787a78.927,78.927,0,0,0,7.538-5.4,13.638,13.638,0,0,0,2.507-3.519c.045-.089.15-.23.037-.3-4.946,3.963-7.754,5.229-12.982,8.929" transform="translate(-146.344 -7.877)" fill="#fff"/>
    </clipPath>
    <clipPath id="clip-path-12">
      <path id="Path_2940" data-name="Path 2940" d="M179.542,57.776a4.875,4.875,0,0,0-.5.966c-3.652,9.863-8.1,16.3-17.674,21.138-.6.414-4.8,2.075-2.557,2.544,8.277-.137,10.736-1.29,15.382-8.166.722,3.416,3.092,7.131,7.047,6.857,5.012-.687,6.563-7.851,7.3-12.029.065-.536.819-4.038-.481-2.844-1.541,3.707-5.871,3.836-7.613.294-1.257-2.772-.38-5.661-.1-8.5a.516.516,0,0,0-.28-.551.333.333,0,0,0-.137-.031c-.187,0-.3.192-.391.327" transform="translate(-158.154 -57.449)" fill="#fff"/>
    </clipPath>
    <clipPath id="clip-path-13">
      <path id="Path_2941" data-name="Path 2941" d="M227.076,55.9a9.572,9.572,0,0,0-.441.925,67.784,67.784,0,0,1-5.441,11.825,25.36,25.36,0,0,1-3.359,4.551,32.7,32.7,0,0,1-3.262,2.948,73.827,73.827,0,0,1-6.536,4.505,6.508,6.508,0,0,0-1.416,1.106.8.8,0,0,0-.179.821c.106.288.411.324.7.317.2-.005.407,0,.611,0v-.009a5.4,5.4,0,0,0,.886-.008c1.215-.2,2.428-.412,3.635-.656a12.281,12.281,0,0,0,4.35-1.63,13.3,13.3,0,0,0,3.578-3.736,36.507,36.507,0,0,0,3.721-7.243,91.946,91.946,0,0,0,3.422-10.507,8.928,8.928,0,0,0,.609-2.971c-.015-.208.075-.471-.237-.541a.722.722,0,0,0-.16-.019.518.518,0,0,0-.481.321" transform="translate(-206.397 -55.58)" fill="#fff"/>
    </clipPath>
    <clipPath id="clip-path-14">
      <path id="Path_2942" data-name="Path 2942" d="M234.591,27.912c-.194.288-.383.579-.57.872a33.43,33.43,0,0,0-2.979,5.891,1.574,1.574,0,0,0,.655,2.142c1.366.821,2.669,1.738,4.023,2.577a1.561,1.561,0,0,0,2.3-.391,19.589,19.589,0,0,0,2.144-2.942,6.978,6.978,0,0,0,1.047-3.166c0-.167.006-.333,0-.5a.967.967,0,0,0-.06-.207,7.081,7.081,0,0,0-2.107-3.4,7.654,7.654,0,0,0-2.574-1.462,2.242,2.242,0,0,0-.729-.146,1.342,1.342,0,0,0-1.144.736" transform="translate(-230.872 -27.176)" fill="#fff"/>
    </clipPath>
    <clipPath id="clip-path-15">
      <path id="Path_2943" data-name="Path 2943" d="M204.817,37.9a33.687,33.687,0,0,0-3.544,6.766,1.6,1.6,0,0,0,.667,2.143q1.982,1.283,3.979,2.543a1.581,1.581,0,0,0,2.344-.382,20.443,20.443,0,0,0,2.112-2.9,7.07,7.07,0,0,0,1.069-3.215c0-.166.007-.333,0-.5a1.024,1.024,0,0,0-.067-.2,6.986,6.986,0,0,0-4.688-4.857,2.226,2.226,0,0,0-.717-.143,1.353,1.353,0,0,0-1.151.746" transform="translate(-201.109 -37.152)" fill="#fff"/>
    </clipPath>
    <clipPath id="clip-path-16">
      <path id="Path_2944" data-name="Path 2944" d="M101.389,105.51a33.664,33.664,0,0,0-3.544,6.765,1.6,1.6,0,0,0,.667,2.143q1.982,1.284,3.979,2.543a1.58,1.58,0,0,0,2.344-.381,20.413,20.413,0,0,0,2.112-2.9,7.062,7.062,0,0,0,1.068-3.214c0-.166.007-.333,0-.5a1.083,1.083,0,0,0-.067-.205,6.988,6.988,0,0,0-4.688-4.857,2.218,2.218,0,0,0-.717-.142,1.352,1.352,0,0,0-1.15.746" transform="translate(-97.681 -104.764)" fill="#fff"/>
    </clipPath>
    <clipPath id="clip-path-17">
      <path id="Path_2945" data-name="Path 2945" d="M52.647,105.51a35.07,35.07,0,0,0-2.3,3.969,6.968,6.968,0,0,0-4.587-4.573,1.368,1.368,0,0,0-1.867.6,33.765,33.765,0,0,0-3.545,6.765,1.6,1.6,0,0,0,.667,2.143Q43,115.7,44.992,116.96a1.581,1.581,0,0,0,2.345-.381,21.866,21.866,0,0,0,1.929-2.6,2.127,2.127,0,0,0,.5.443q1.982,1.284,3.978,2.543a1.58,1.58,0,0,0,2.344-.381,20.419,20.419,0,0,0,2.112-2.9,7.07,7.07,0,0,0,1.068-3.214c0-.166.007-.333,0-.5a1.041,1.041,0,0,0-.067-.205,6.987,6.987,0,0,0-4.688-4.857,2.218,2.218,0,0,0-.717-.142,1.351,1.351,0,0,0-1.151.746" transform="translate(-40.183 -104.763)" fill="#fff"/>
    </clipPath>
    <clipPath id="clip-path-18">
      <path id="Path_2946" data-name="Path 2946" d="M48.773,28.093a3.065,3.065,0,0,0-1.353,1.162,6.147,6.147,0,0,0-.9,2.574c-.139,1-.227,2.008-.341,3.041a.271.271,0,0,1-.222-.2,8.861,8.861,0,0,0-1.536-2.185,9.242,9.242,0,0,0-3.644-2.323,1.23,1.23,0,0,0-1.72.451,8.106,8.106,0,0,0-1.239,2.558.724.724,0,0,0,.486.9,2.172,2.172,0,0,0,.874.176A2.711,2.711,0,0,0,40.187,34a2.337,2.337,0,0,1,2.825.561A6.118,6.118,0,0,1,44.2,36.133a6.331,6.331,0,0,1,.473,3.909,22.482,22.482,0,0,0-.313,2.479c-.006.094-.076.22.053.279.146.067.259-.046.364-.109A2.893,2.893,0,0,0,45.852,41.4a19.093,19.093,0,0,0,1.732-5.529c.2-1.2.219-2.418.337-3.625a1.9,1.9,0,0,1,.483-1.231.979.979,0,0,1,1.017-.275,2.9,2.9,0,0,1,1.807,1.1c.2.293.363.223.582.054a2.044,2.044,0,0,0,.788-1.748,2.518,2.518,0,0,0-2.5-2.346,3.337,3.337,0,0,0-1.321.295" transform="translate(-37.784 -27.798)" fill="#fff"/>
    </clipPath>
    <clipPath id="clip-path-19">
      <path id="Path_2947" data-name="Path 2947" d="M123.623,36.357a.435.435,0,0,1,.489-.5.5.5,0,1,1,0,.991.435.435,0,0,1-.489-.5m-.313-3.48a4.105,4.105,0,0,0,.171,1.07c.021.077.042.154.067.235q.2.639.414,1.279a1.379,1.379,0,0,0-.313.113q-.605-1.139-.878-1.626c-.1-.179-.167-.3-.2-.342a1.176,1.176,0,0,0-.94-.639q-.8,0-.8.865a.892.892,0,0,0,.009.116,1.3,1.3,0,0,0,.693.9q.226.15,1.893.939a1.881,1.881,0,0,0-.137.423q-.628-.225-1.267-.436a4.081,4.081,0,0,0-1.266-.249q-.954,0-.954.839,0,.814.954.814a4.407,4.407,0,0,0,1.266-.228q.64-.214,1.267-.417a1.6,1.6,0,0,0,.137.379q-1.655.8-1.893.955a1.286,1.286,0,0,0-.7,1.04q0,.84.8.84a1.177,1.177,0,0,0,.94-.627q.163-.239,1.078-1.969a1.911,1.911,0,0,0,.339.116l-.426,1.279a4.226,4.226,0,0,0-.251,1.3q0,.878.8.878t.816-.878a16.058,16.058,0,0,0-.6-2.584.808.808,0,0,0,.263-.116q.866,1.681,1.054,1.969a1.17,1.17,0,0,0,.928.627.732.732,0,0,0,.815-.84,1.288,1.288,0,0,0-.7-1.04q-.213-.138-1.856-.955a1.937,1.937,0,0,0,.125-.379,13.843,13.843,0,0,0,2.521.645q.966,0,.966-.814,0-.838-.966-.839a4.1,4.1,0,0,0-1.279.249q-.628.212-1.242.436a2.177,2.177,0,0,0-.125-.423q1.667-.815,1.856-.939a1.331,1.331,0,0,0,.692-.9.8.8,0,0,0,.01-.116q0-.866-.815-.865a1.169,1.169,0,0,0-.928.639c-.037.057-.1.172-.2.342-.181.33-.466.871-.857,1.626a1.148,1.148,0,0,0-.339-.138q.213-.626.439-1.253c.025-.081.046-.157.067-.235a4.106,4.106,0,0,0,.171-1.07q0-.915-.816-.915t-.8.915" transform="translate(-119.798 -31.962)" fill="#fff"/>
    </clipPath>
    <clipPath id="clip-path-20">
      <path id="Path_2948" data-name="Path 2948" d="M16.794,21.95a79.684,79.684,0,0,0-5.1,14.464c-1.715,7.566-2.39,13.745,4.853,17-4.8,6.456-9.281,13.379-9.48,20.314.353,7.673,7.6,9.63,11.812,2.407,1.94-3.19,3.312-7.019,1.731-10.27q-1.054-1.843-2.182-1.844a4.634,4.634,0,0,0-.677,1.393q-1.091,2.67-1.655,2.67c-1.317-.352-1.858-2.711-1.844-4.288q0-4.175,4.063-9.931.339-.451.565-.79,1.278-1.993,2.633-4.289c1.8-3.584,2.685-4.653,2.9-7.523.006-.8-.572-.76-1.169-.718a3.257,3.257,0,0,1-.636,0c-4.761-.319-5.883-2.777-5.944-6.771a55.549,55.549,0,0,1,1.881-10.233q.79-2.745,1.731-5.643.526-1.693-.114-1.73-.827,0-3.366,5.774" transform="translate(-7.07 -16.176)" fill="#fff"/>
    </clipPath>
    <clipPath id="clip-path-21">
      <path id="Path_2949" data-name="Path 2949" d="M62.913,70.107q-.57.845-1.591,2.375a5.606,5.606,0,0,1-2.355,2.12c-2.233,1.1-4.44.455-7.028.236-2.079-.208-4.08.99-5.575,2.238a33.327,33.327,0,0,0-7.97,11.072q-.747,1.846-.04,2.081.51.118,2.905-1.963A7.686,7.686,0,0,1,48.4,86.5c4.867.651,6.885-.094,10.327-4,1.862-2.066,5.85-9.429,5.693-12.289q0-.942-.51-.943-.432,0-1,.845" transform="translate(-38.01 -69.262)" fill="#fff"/>
    </clipPath>
    <clipPath id="clip-path-22">
      <path id="Path_2950" data-name="Path 2950" d="M83.621,30.95l-3.912,8.926c-1.824,4.339-1.508,11.968-2.145,16.541-.543,5.065-1.046,10.961-2.746,15.7q-.414,1.312-.15,1.312,1.015-.145,2.671-3.262a45.748,45.748,0,0,0,2.9-6.776c2.55-7.822,2.325-18.807,3.5-27.271.162-1.093.663-4.564.979-5.574q.188-.692-.3-.692-.3,0-.79,1.093M98.587,12.124c-3.95,3.545-8.483,5.378-13.659,4.7-4.6-.142-7.09.575-10.735,3.263A21.255,21.255,0,0,0,67.785,27.2q-.473.946-.372,1.082c.128.224.509.162.744.1a15.485,15.485,0,0,1,7.895-2.924,37.68,37.68,0,0,1,4.307-.008c.765.031,1.574.062,2.608.059,5.844-.271,8.876-2.443,13.119-6.593a26.6,26.6,0,0,0,3.229-3.939c.716-1.18,3.678-5.186,2.248-5.6-1.064.532-2,2-2.976,2.739" transform="translate(-67.395 -9.385)" fill="#fff"/>
    </clipPath>
    <clipPath id="clip-path-23">
      <path id="Path_2951" data-name="Path 2951" d="M99.484,64.512h0v.338a18.36,18.36,0,0,0,1.354,8.464q1.693,3.311,4.74,3.424c6.6-.237,9.191-12.295,9.631-17.192q.113-1.2-.49-1.2-.527,0-1.091,1.674a12.833,12.833,0,0,1-1.373,2.915,3.77,3.77,0,0,1-5.4.9q-2.52-1.881-2.52-6.621V55.454c.2-8.458,2.435-15.125,1.2-15.125H105.5c-4.218,0-5.575,18.646-6.019,24.183" transform="translate(-99.465 -40.329)" fill="#fff"/>
    </clipPath>
    <clipPath id="clip-path-24">
      <rect id="Rectangle_706" data-name="Rectangle 706" width="157.335" height="100.503" fill="#fff"/>
    </clipPath>
  </defs>
  <g id="Group_1031" data-name="Group 1031" transform="translate(-66.321 -109.966)">
    <path id="Path_2005" data-name="Path 2005" d="M320.724,79.984c-7.439-2.374-13.7-8.7-13.7-8.7v6.042l27.914,18.654a84,84,0,0,1,3.887-7.629c-4.421-4.824-12.793-6.667-18.105-8.362" transform="translate(-49.045 83.774)" fill="#fff"/>
    <path id="Path_2006" data-name="Path 2006" d="M300.108,76.206v3.479l31.139,20.81c.264-.655.54-1.308.823-1.96.108-.251.219-.5.329-.749Z" transform="translate(-46.502 81.964)" fill="#fff"/>
    <path id="Path_2007" data-name="Path 2007" d="M360.354,100.581l34.809-23.34V71.279s-6.257,6.331-13.7,8.7c-5.136,1.64-13.721,3.58-18.533,8.138a80.138,80.138,0,0,0-5.506,10.5Z" transform="translate(-67.564 83.774)" fill="#fff"/>
    <path id="Path_2008" data-name="Path 2008" d="M359.7,102.337l-2.927-1.956c-.393.907-.772,1.817-1.124,2.728l4.053,2.709,39.19-26.278V76.057Z" transform="translate(-66.911 82.019)" fill="#fff"/>
    <path id="Path_2009" data-name="Path 2009" d="M372.209,87.32" transform="translate(-72.995 77.88)" fill="#fff"/>
    <g id="Group_386" data-name="Group 386" transform="translate(274.729 109.966)">
      <g id="Group_385" data-name="Group 385" clip-path="url(#clip-path)">
        <rect id="Rectangle_635" data-name="Rectangle 635" width="75.778" height="43.324" transform="translate(-2.846 75.146) rotate(-89.153)" fill="url(#linear-gradient-4)"/>
      </g>
    </g>
    <g id="Group_388" data-name="Group 388" transform="translate(281.734 132.071)">
      <g id="Group_387" data-name="Group 387" clip-path="url(#clip-path-2)">
        <rect id="Rectangle_636" data-name="Rectangle 636" width="118.57" height="99.342" transform="matrix(0.367, -0.93, 0.93, 0.367, -34.502, 87.45)" fill="url(#linear-gradient)"/>
      </g>
    </g>
    <g id="Group_390" data-name="Group 390" transform="translate(236.645 128.776)">
      <g id="Group_389" data-name="Group 389" clip-path="url(#clip-path-3)">
        <rect id="Rectangle_637" data-name="Rectangle 637" width="126.786" height="101.315" transform="translate(-38.492 95.643) rotate(-68.469)" fill="url(#linear-gradient)"/>
      </g>
    </g>
    <path id="Path_2013" data-name="Path 2013" d="M349.342,47.541a14.3,14.3,0,0,0-3.027.371,11.39,11.39,0,0,0-5.221,2.592,9.018,9.018,0,0,0-2.537,3.977,9.963,9.963,0,0,0-.459,3.01,10.234,10.234,0,0,0,.618,3.516,8.344,8.344,0,0,0,1.683,2.81,6.093,6.093,0,0,0,1.559,1.221,5.237,5.237,0,0,0,2.525.634,7.474,7.474,0,0,0,3.408-.914,12.616,12.616,0,0,0,1.642-1.021,11.54,11.54,0,0,1-3.289-.747,9.5,9.5,0,0,1-1.672-.822l-.071-.047-.065-.055a7.177,7.177,0,0,1-1.994-2.741,8.433,8.433,0,0,1-.634-3.242,8.944,8.944,0,0,1,.566-3.132,8.074,8.074,0,0,1,1.709-2.747,8.858,8.858,0,0,1,3.206-2.12,9.981,9.981,0,0,1,2.055-.546" transform="translate(-60.462 92.497)" fill="#fff"/>
    <path id="Path_2014" data-name="Path 2014" d="M366.46,10.867a38.667,38.667,0,0,1,8,13.392,37.656,37.656,0,0,1,2.091,12.4,39.084,39.084,0,0,1-.209,4.017,33.623,33.623,0,0,0,1.782-10.3,22.165,22.165,0,0,0-1.176-7.3,20.44,20.44,0,0,0-3.037-5.669,26.38,26.38,0,0,0-7.456-6.541" transform="translate(-70.883 105.973)" fill="#fff"/>
    <path id="Path_2015" data-name="Path 2015" d="M369.187,87.87" transform="translate(-71.885 77.678)" fill="#fff"/>
    <g id="Group_394" data-name="Group 394" transform="translate(284.178 200.79)">
      <g id="Group_393" data-name="Group 393" clip-path="url(#clip-path-4)">
        <rect id="Rectangle_639" data-name="Rectangle 639" width="9.666" height="9.741" transform="matrix(0.73, -0.684, 0.684, 0.73, -3.829, 3.586)" fill="url(#linear-gradient-7)"/>
      </g>
    </g>
    <g id="Group_396" data-name="Group 396" transform="translate(254.55 199.63)">
      <g id="Group_395" data-name="Group 395" clip-path="url(#clip-path-5)">
        <rect id="Rectangle_640" data-name="Rectangle 640" width="30.66" height="30.255" transform="translate(-8.57 8.026) rotate(-43.122)" fill="url(#linear-gradient-7)"/>
      </g>
    </g>
    <g id="Group_398" data-name="Group 398" transform="translate(257.855 167.978)">
      <g id="Group_397" data-name="Group 397" clip-path="url(#clip-path-6)">
        <rect id="Rectangle_641" data-name="Rectangle 641" width="89.362" height="88.07" transform="translate(-27.887 22.815) rotate(-43.122)" fill="url(#linear-gradient-7)"/>
      </g>
    </g>
    <g id="Group_400" data-name="Group 400" transform="translate(295.342 167.969)">
      <g id="Group_399" data-name="Group 399" clip-path="url(#clip-path-7)">
        <rect id="Rectangle_642" data-name="Rectangle 642" width="46.139" height="45.893" transform="matrix(0.73, -0.684, 0.684, 0.73, -14.918, 13.971)" fill="url(#linear-gradient-7)"/>
      </g>
    </g>
    <path id="Path_2020" data-name="Path 2020" d="M297.265,79.807Z" transform="translate(-45.457 80.641)" fill="#fff"/>
    <g id="Group_732" data-name="Group 732" transform="translate(66.321 127.4)">
      <g id="Group_733" data-name="Group 733" transform="translate(0.018 27.003)">
        <g id="Group_732-2" data-name="Group 732" transform="translate(0 0)" clip-path="url(#clip-path-8)">
          <rect id="Rectangle_689" data-name="Rectangle 689" width="52.12" height="37.24" transform="translate(-0.018 0.026)" fill="#fff"/>
        </g>
      </g>
      <g id="Group_735" data-name="Group 735" transform="translate(73.547 15.872)">
        <g id="Group_734" data-name="Group 734" clip-path="url(#clip-path-9)">
          <rect id="Rectangle_691" data-name="Rectangle 691" width="84.696" height="63.735" transform="translate(-0.908 0)" fill="#fff"/>
        </g>
      </g>
      <g id="Group_737" data-name="Group 737" transform="translate(84.042)">
        <g id="Group_736" data-name="Group 736" clip-path="url(#clip-path-10)">
          <rect id="Rectangle_692" data-name="Rectangle 692" width="45.506" height="37.213" transform="translate(-0.282)" fill="#fff"/>
        </g>
      </g>
      <g id="Group_739" data-name="Group 739" transform="translate(92.11 4.958)">
        <g id="Group_738" data-name="Group 738" clip-path="url(#clip-path-11)">
          <rect id="Rectangle_693" data-name="Rectangle 693" width="23.344" height="18.308" transform="translate(-0.122 0)" fill="#fff"/>
        </g>
      </g>
      <g id="Group_741" data-name="Group 741" transform="translate(99.543 36.159)">
        <g id="Group_740" data-name="Group 740" clip-path="url(#clip-path-12)">
          <rect id="Rectangle_694" data-name="Rectangle 694" width="32.794" height="24.975" transform="translate(-1.59 0)" fill="#fff"/>
        </g>
      </g>
      <g id="Group_743" data-name="Group 743" transform="translate(129.908 34.983)">
        <g id="Group_742" data-name="Group 742" clip-path="url(#clip-path-13)">
          <rect id="Rectangle_695" data-name="Rectangle 695" width="21.691" height="27.352" transform="translate(-0.055)" fill="#fff"/>
        </g>
      </g>
      <g id="Group_745" data-name="Group 745" transform="translate(145.313 17.105)">
        <g id="Group_744" data-name="Group 744" clip-path="url(#clip-path-14)">
          <rect id="Rectangle_696" data-name="Rectangle 696" width="10.531" height="12.776" transform="translate(-0.187 0)" fill="#fff"/>
        </g>
      </g>
      <g id="Group_747" data-name="Group 747" transform="translate(126.58 23.384)">
        <g id="Group_746" data-name="Group 746" clip-path="url(#clip-path-15)">
          <rect id="Rectangle_697" data-name="Rectangle 697" width="10.534" height="12.776" transform="translate(-0.193 0)" fill="#fff"/>
        </g>
      </g>
      <g id="Group_749" data-name="Group 749" transform="translate(61.481 65.939)">
        <g id="Group_748" data-name="Group 748" clip-path="url(#clip-path-16)">
          <rect id="Rectangle_698" data-name="Rectangle 698" width="10.533" height="12.776" transform="translate(-0.193 0)" fill="#fff"/>
        </g>
      </g>
      <g id="Group_751" data-name="Group 751" transform="translate(25.292 65.939)">
        <g id="Group_750" data-name="Group 750" clip-path="url(#clip-path-17)">
          <rect id="Rectangle_699" data-name="Rectangle 699" width="19.29" height="12.934" transform="translate(-0.193 -0.158)" fill="#fff"/>
        </g>
      </g>
      <g id="Group_753" data-name="Group 753" transform="translate(23.782 17.496)">
        <g id="Group_752" data-name="Group 752" clip-path="url(#clip-path-18)">
          <rect id="Rectangle_700" data-name="Rectangle 700" width="14.893" height="15.07" transform="translate(-0.079 0)" fill="#fff"/>
        </g>
      </g>
      <g id="Group_755" data-name="Group 755" transform="translate(75.402 20.117)">
        <g id="Group_754" data-name="Group 754" clip-path="url(#clip-path-19)">
          <rect id="Rectangle_701" data-name="Rectangle 701" width="8.641" height="8.766" transform="translate(0 0)" fill="#fff"/>
        </g>
      </g>
      <g id="Group_757" data-name="Group 757" transform="translate(4.45 10.181)">
        <g id="Group_756" data-name="Group 756" clip-path="url(#clip-path-20)">
          <rect id="Rectangle_702" data-name="Rectangle 702" width="17.348" height="67.186" transform="translate(0 0)" fill="#fff"/>
        </g>
      </g>
      <g id="Group_759" data-name="Group 759" transform="translate(23.924 43.594)">
        <g id="Group_758" data-name="Group 758" clip-path="url(#clip-path-21)">
          <rect id="Rectangle_703" data-name="Rectangle 703" width="26.7" height="21.046" transform="translate(-0.128 0)" fill="#fff"/>
        </g>
      </g>
      <g id="Group_761" data-name="Group 761" transform="translate(42.419 5.907)">
        <g id="Group_760" data-name="Group 760" clip-path="url(#clip-path-22)">
          <rect id="Rectangle_704" data-name="Rectangle 704" width="35.647" height="64.048" transform="translate(-0.05 0)" fill="#fff"/>
        </g>
      </g>
      <g id="Group_763" data-name="Group 763" transform="translate(62.604 25.383)">
        <g id="Group_762" data-name="Group 762" clip-path="url(#clip-path-23)">
          <rect id="Rectangle_705" data-name="Rectangle 705" width="15.925" height="36.411" transform="translate(-0.105 -0.002)" fill="#fff"/>
        </g>
      </g>
      <g id="Group_765" data-name="Group 765">
        <g id="Group_764" data-name="Group 764" clip-path="url(#clip-path-24)">
          <path id="Path_2952" data-name="Path 2952" d="M13.95,148.128a2.6,2.6,0,0,1-.9-.166,1.458,1.458,0,0,1-.745-.65,1.608,1.608,0,0,1-.471.592.905.905,0,0,1-.522.223,2.476,2.476,0,0,1-.618-.1q-.363-.1-.745-.235t-.745-.313q-.363-.172-.6-.312v.745c0,.208,0,.452.006.733s.013.58.025.9.028.631.045.937l-1.351.675-.2-.128q-.026-.586-.032-1.223t-.013-1.223q-.007-.586-.006-1.051v-.707a1.97,1.97,0,0,1,.07-.523,1.311,1.311,0,0,1,.242-.471,1.561,1.561,0,0,1,.446-.376,1.938,1.938,0,0,1,.682-.223l.726-1.122a3.04,3.04,0,0,1,.509-.643,2.263,2.263,0,0,1,.58-.395,2.646,2.646,0,0,1,.707-.21,8.269,8.269,0,0,1,.9-.089l.293.254q.076.331.153.74t.153.777q.076.369.147.655a1.741,1.741,0,0,0,.121.376,1.039,1.039,0,0,0,.382.229,2.383,2.383,0,0,0,.765.089Zm-2.841-3.44c-.2.017-.355.036-.478.057a.871.871,0,0,0-.331.127,1.331,1.331,0,0,0-.293.274,5.323,5.323,0,0,0-.35.5,4.477,4.477,0,0,0,.9.319,5.179,5.179,0,0,0,.847.127,4.438,4.438,0,0,0-.121-.771q-.1-.388-.172-.63" transform="translate(-2.62 -52.912)" fill="#fff"/>
          <path id="Path_2953" data-name="Path 2953" d="M17.776,148.076c-.161,0-.266-.11-.312-.332a3.8,3.8,0,0,1-.07-.777,3.887,3.887,0,0,1,.07-.79c.047-.22.151-.331.312-.331H19.05q.446,0,.79-.006t.611-.019a4.549,4.549,0,0,0,.478-.045,3.021,3.021,0,0,0,.389-.083q-.064-.267-.159-.548c-.064-.187-.132-.374-.2-.561s-.149-.363-.229-.528-.151-.312-.211-.44l1.414-.981.242.1a7.993,7.993,0,0,1,.376,1.224,5.867,5.867,0,0,1,.133,1.261,3.7,3.7,0,0,1-.1.834,4.052,4.052,0,0,1-.255.765,3.015,3.015,0,0,1-.363.611,1.434,1.434,0,0,1-.408.376,6.828,6.828,0,0,1-2.509.268Zm.548,1.019,1.287.815.573-.815,1.4.879-.816,1.351-1.287-.829-.573.829-1.4-.879Z" transform="translate(-6.446 -52.859)" fill="#fff"/>
          <path id="Path_2954" data-name="Path 2954" d="M29.055,148.869a1.024,1.024,0,0,1-.363-.121,4.592,4.592,0,0,1-.325,1.357,4.654,4.654,0,0,1-.535.961,2.5,2.5,0,0,1-.567.573.892.892,0,0,1-.42.191,1.473,1.473,0,0,1-.166-.013c-.068-.009-.176-.028-.325-.058s-.348-.069-.6-.121-.575-.115-.975-.191v-.636a9.541,9.541,0,0,0,1.663-1.166,4.526,4.526,0,0,0,.949-1.128,10.249,10.249,0,0,0-.446-1.274q-.306-.738-.637-1.465l1.49-.918.242.1q.191.574.293.918a1.587,1.587,0,0,0,.236.516.6.6,0,0,0,.351.223,2.933,2.933,0,0,0,.637.051V148.9a3.488,3.488,0,0,1-.5-.031" transform="translate(-9.184 -53.684)" fill="#fff"/>
          <path id="Path_2955" data-name="Path 2955" d="M32.147,149.965c-.161,0-.266-.11-.312-.331a3.8,3.8,0,0,1-.07-.777,3.882,3.882,0,0,1,.07-.79c.047-.221.151-.332.312-.332h1.8v2.23Z" transform="translate(-11.772 -54.749)" fill="#fff"/>
          <path id="Path_2956" data-name="Path 2956" d="M35,149.965c-.161,0-.266-.11-.312-.331a3.8,3.8,0,0,1-.07-.777,3.881,3.881,0,0,1,.07-.79c.047-.221.151-.332.312-.332h1.8v2.23Z" transform="translate(-12.829 -54.749)" fill="#fff"/>
          <path id="Path_2957" data-name="Path 2957" d="M37.855,146.3c-.161,0-.266-.11-.312-.331a3.8,3.8,0,0,1-.07-.777,3.883,3.883,0,0,1,.07-.79c.047-.221.151-.332.312-.332h1.223a9.811,9.811,0,0,0,2.09-.165,4.208,4.208,0,0,0-1.045-1.382,19.677,19.677,0,0,0-1.937-1.574l.242-1.274a4.2,4.2,0,0,1,.1-.434.72.72,0,0,1,.153-.279.665.665,0,0,1,.267-.179,3.461,3.461,0,0,1,.433-.128l3.733-.8.152.191-.254,1.631-2.994.573a8.7,8.7,0,0,1,1.2,1,5.016,5.016,0,0,1,.719.9,3.083,3.083,0,0,1,.351.8,2.6,2.6,0,0,1-.006,1.42,4.267,4.267,0,0,1-.255.7,2.915,2.915,0,0,1-.35.573,1.145,1.145,0,0,1-.389.338,6.688,6.688,0,0,1-2.535.318Z" transform="translate(-13.887 -51.089)" fill="#fff"/>
          <path id="Path_2958" data-name="Path 2958" d="M55.8,146.846a6.2,6.2,0,0,1-.121,1.337,4.319,4.319,0,0,1-.2.7,1.083,1.083,0,0,1-.3.319,3.841,3.841,0,0,1-.72.446,5.767,5.767,0,0,1-1.115.4,5.867,5.867,0,0,1-1.484.172,4.006,4.006,0,0,1-1.421-.21,2.036,2.036,0,0,1-.834-.555,1.825,1.825,0,0,1-.4-.79,4.159,4.159,0,0,1-.1-.93c0-.162.011-.4.032-.713s.045-.633.07-.956q.051-.561.115-1.2l1.249.063q-.025.586-.051,1.109-.025.446-.045.911t-.032.745a1.8,1.8,0,0,0,.656.236,4.913,4.913,0,0,0,.758.057q.331,0,.694-.031t.707-.1q.344-.063.656-.152a3.631,3.631,0,0,0,.555-.2q-.076-.5-.172-.988t-.2-.93q-.109-.44-.223-.821t-.217-.675l1.453-.9.229.05a11.86,11.86,0,0,1,.331,1.555,14.142,14.142,0,0,1,.128,2.051m-4.841-3.427.816-1.351,1.478.943L52.36,144.3Z" transform="translate(-18.2 -52.649)" fill="#fff"/>
          <path id="Path_2959" data-name="Path 2959" d="M60.565,136.348a4.38,4.38,0,0,1-.668-.051,4.95,4.95,0,0,1-.567-.115l-.357.739h-.127l-.828-.637q.267-.522.42-.848c.1-.216.189-.383.261-.5a.832.832,0,0,1,.2-.242.342.342,0,0,1,.2-.064,3.05,3.05,0,0,1,.6.1,5.517,5.517,0,0,0,1.178.1,7.575,7.575,0,0,0,.873-.057,4.678,4.678,0,0,0,.974-.223l.064.089-.318,1.428a4.247,4.247,0,0,1-1.006.235,8.4,8.4,0,0,1-.9.057m-.382,8.6-.191-4.2c-.017-.254-.034-.484-.051-.688a4.474,4.474,0,0,0-.082-.573,4.109,4.109,0,0,0-.147-.517,4.221,4.221,0,0,0-.229-.516l1.338-1.338a4.659,4.659,0,0,1,.382.726,3.75,3.75,0,0,1,.21.7,5.17,5.17,0,0,1,.089.745q.019.388.019.847v4.434l-1.083.509Z" transform="translate(-21.501 -49.858)" fill="#fff"/>
          <path id="Path_2960" data-name="Path 2960" d="M66.9,148.869a1.024,1.024,0,0,1-.363-.121,4.592,4.592,0,0,1-.325,1.357,4.654,4.654,0,0,1-.535.961,2.5,2.5,0,0,1-.567.573.892.892,0,0,1-.42.191,1.647,1.647,0,0,1-.172-.013q-.109-.013-.357-.064l-.675-.14q-.427-.09-1.115-.229v-.638a9.109,9.109,0,0,0,1.841-1.14,4.693,4.693,0,0,0,1.026-1.09,10.251,10.251,0,0,0-.446-1.274q-.306-.738-.637-1.465l1.49-.918.242.1q.191.574.293.918a1.587,1.587,0,0,0,.236.516.6.6,0,0,0,.351.223,2.933,2.933,0,0,0,.637.051V148.9a3.488,3.488,0,0,1-.5-.031" transform="translate(-23.113 -53.684)" fill="#fff"/>
          <path id="Path_2961" data-name="Path 2961" d="M70.139,149.965c-.161,0-.266-.11-.312-.331a3.8,3.8,0,0,1-.07-.777,3.883,3.883,0,0,1,.07-.79c.047-.221.151-.332.312-.332h1.8v2.23Z" transform="translate(-25.851 -54.749)" fill="#fff"/>
          <path id="Path_2962" data-name="Path 2962" d="M72.993,149.965c-.161,0-.266-.11-.312-.331a3.8,3.8,0,0,1-.07-.777,3.882,3.882,0,0,1,.07-.79c.047-.221.151-.332.312-.332h1.8v2.23Z" transform="translate(-26.909 -54.749)" fill="#fff"/>
          <path id="Path_2963" data-name="Path 2963" d="M75.847,145.277q-.242,0-.312-.331a3.8,3.8,0,0,1-.07-.777,3.882,3.882,0,0,1,.07-.79c.047-.22.151-.331.312-.331h1.376q.867,0,1.357-.045a5.8,5.8,0,0,0,.809-.121c-.008-.119-.013-.231-.013-.337a2.146,2.146,0,0,0-.025-.325,4.193,4.193,0,0,1-.72.147,8.467,8.467,0,0,1-.974.045,1.5,1.5,0,0,1-1.026-.312,1.076,1.076,0,0,1-.351-.847,3.447,3.447,0,0,1,.083-.682q.083-.4.2-.842t.255-.872q.14-.433.255-.777l.28-.2a3.081,3.081,0,0,1,1.6.376,2.772,2.772,0,0,1,.981.988,4.119,4.119,0,0,1,.49,1.382,9.02,9.02,0,0,1,.134,1.548,4.536,4.536,0,0,1-.363,1.8,2.764,2.764,0,0,1-.363.617,1.455,1.455,0,0,1-.408.369,2.411,2.411,0,0,1-.853.236,12.265,12.265,0,0,1-1.606.082Zm1.02-10.192,1.287.828.573-.828,1.4.879-.815,1.351-1.287-.816-.573.816-1.4-.879ZM78.2,140.7q.216,0,.42-.019t.395-.045a1.738,1.738,0,0,0-.554-.7,1.674,1.674,0,0,0-.923-.28c-.051.145-.1.3-.154.478s-.089.325-.115.453a1.59,1.59,0,0,0,.363.089,4.77,4.77,0,0,0,.567.025" transform="translate(-27.967 -50.061)" fill="#fff"/>
          <path id="Path_2964" data-name="Path 2964" d="M93.511,143.832q-.294-.178-.574-.357a.961.961,0,0,0-.382-.177.808.808,0,0,0-.407.127,2.164,2.164,0,0,0-.427.337,3.08,3.08,0,0,0-.395.49,2.9,2.9,0,0,0-.3.586.741.741,0,0,0,.242.089,3.571,3.571,0,0,0,.4.064c.157.017.327.033.51.05l.566.052a2.868,2.868,0,0,1,.759.146.95.95,0,0,1,.439.312,1.087,1.087,0,0,1,.2.5,4.85,4.85,0,0,1,.045.7,3.958,3.958,0,0,1-.045.566q-.045.3-.1.573c-.038.183-.076.344-.115.484a1.76,1.76,0,0,1-.1.287,1.062,1.062,0,0,1-.3.318,3.646,3.646,0,0,1-.74.446,6.219,6.219,0,0,1-1.159.4,6.411,6.411,0,0,1-1.561.172,4.381,4.381,0,0,1-1.5-.211,2.133,2.133,0,0,1-.874-.554,1.723,1.723,0,0,1-.4-.79,4.477,4.477,0,0,1-.1-.93q0-.242.033-.713t.071-.956q.05-.56.114-1.2l1.249.064q-.025.586-.052,1.108-.025.446-.043.911c-.014.311-.025.559-.033.746a1.788,1.788,0,0,0,.644.235,5.607,5.607,0,0,0,.885.057,8.072,8.072,0,0,0,1.491-.133,8.823,8.823,0,0,0,1.324-.351c-.008-.042-.014-.079-.019-.108s-.01-.066-.018-.108c-.145-.017-.341-.037-.587-.058s-.51-.04-.791-.057a2.318,2.318,0,0,1-1.268-.376,1.261,1.261,0,0,1-.388-1.039,4.037,4.037,0,0,1,.3-1.529,5.424,5.424,0,0,1,.74-1.305,4.009,4.009,0,0,1,.949-.905,1.74,1.74,0,0,1,.942-.337.766.766,0,0,1,.344.108,3.825,3.825,0,0,1,.433.274q.229.165.459.35c.153.124.293.24.421.351Z" transform="translate(-32.317 -52.424)" fill="#fff"/>
          <path id="Path_2965" data-name="Path 2965" d="M100.994,145.788a1.441,1.441,0,0,1-.707-.446,2,2,0,0,1-.4-.872,6.513,6.513,0,0,1-.128-1.421v-2.611q0-.357-.025-.656a4.759,4.759,0,0,0-.083-.573,3.761,3.761,0,0,0-.159-.548q-.1-.274-.242-.58l1.338-1.274a7.438,7.438,0,0,1,.344.784,4.381,4.381,0,0,1,.191.694,5.378,5.378,0,0,1,.083.713q.019.37.019.828v3.606a.491.491,0,0,0,.185.154.855.855,0,0,0,.229.069,2.268,2.268,0,0,0,.229.026c.072,0,.134.006.185.006v2.229a3.79,3.79,0,0,1-1.057-.127" transform="translate(-36.781 -50.699)" fill="#fff"/>
          <path id="Path_2966" data-name="Path 2966" d="M105.833,147.054a2.542,2.542,0,0,1-.79.4,3.253,3.253,0,0,1-.994.147h-.573c-.161,0-.265-.11-.312-.332a3.838,3.838,0,0,1-.07-.777,3.923,3.923,0,0,1,.07-.79q.071-.331.312-.332h.51a.84.84,0,0,1,.166.013,1.375,1.375,0,0,1-.031-.236c0-.081-.007-.155-.007-.223a2.114,2.114,0,0,1,.211-.955,2.179,2.179,0,0,1,.542-.7l-.459-.166-.089-.254.5-1.491,2.293.828a8.287,8.287,0,0,1,1.351.605,3.782,3.782,0,0,1,.86.656,2.046,2.046,0,0,1,.459.726,2.46,2.46,0,0,1,.134.815,3.851,3.851,0,0,1-.256,1.357,6.133,6.133,0,0,1-.636,1.255Zm.229-3.274a.794.794,0,0,0-.325.1,1.414,1.414,0,0,0-.286.21,1.2,1.2,0,0,0-.211.261.9.9,0,0,0-.108.255.94.94,0,0,0,.217.484,1.071,1.071,0,0,0,.446.344,1.051,1.051,0,0,0,.5-.217,1,1,0,0,0,.363-.484,1.217,1.217,0,0,0-.159-.548.806.806,0,0,0-.44-.408m2.676,1.771a1.045,1.045,0,0,0-.3-.771,2.607,2.607,0,0,0-.847-.528c.008.059.015.116.02.172s.006.117.006.184a1.619,1.619,0,0,1-.089.51,2.1,2.1,0,0,1-.242.5l1.414.267a1.45,1.45,0,0,0,.039-.331" transform="translate(-38.206 -52.386)" fill="#fff"/>
          <path id="Path_2967" data-name="Path 2967" d="M117.142,146.924a2.253,2.253,0,0,1-.835-.128,1.023,1.023,0,0,1-.484-.388,1.519,1.519,0,0,1-.223-.643,6.726,6.726,0,0,1-.051-.879,4.447,4.447,0,0,1,.089-.879,2.765,2.765,0,0,1,.191-.65,8.462,8.462,0,0,1,.765-.585q.51-.358,1.236-.816l-.153-.943,1.21-.624.217.14.587,4.23a.955.955,0,0,0,.331.165,2.676,2.676,0,0,0,.815.089v2.23a5.627,5.627,0,0,1-.745-.045,2.194,2.194,0,0,1-.611-.166,1.547,1.547,0,0,1-.491-.344,1.878,1.878,0,0,1-.369-.58c-.043.128-.081.232-.115.313s-.055.129-.064.146a.454.454,0,0,1-.216.185,1.58,1.58,0,0,1-.344.108,3.049,3.049,0,0,1-.388.051c-.132.009-.249.013-.351.013m-.064-2.039q.216,0,.541-.006a5.863,5.863,0,0,0,.695-.057l-.242-1.465q-.243.141-.5.3c-.171.106-.327.21-.471.312s-.273.193-.383.274a.956.956,0,0,0-.217.2q0,.294.121.37a.926.926,0,0,0,.453.076" transform="translate(-42.822 -52.026)" fill="#fff"/>
          <path id="Path_2968" data-name="Path 2968" d="M123.126,149.094l1.286.816.574-.816,1.4.879-.815,1.351-1.287-.828-.573.828-1.4-.879Zm.217-1.019q-.243,0-.313-.331a3.8,3.8,0,0,1-.07-.777,3.882,3.882,0,0,1,.07-.79q.07-.331.313-.332c.3,0,.56,0,.789-.006s.433-.01.611-.019.338-.023.479-.044a3.28,3.28,0,0,0,.388-.083q-.064-.268-.159-.548t-.2-.56c-.072-.186-.149-.363-.229-.529s-.151-.312-.21-.439l1.414-.981.243.1a8.04,8.04,0,0,1,.376,1.223,5.913,5.913,0,0,1,.133,1.261,3.707,3.707,0,0,1-.1.835,4.014,4.014,0,0,1-.255.764,2.983,2.983,0,0,1-.363.611,1.432,1.432,0,0,1-.407.376,6.832,6.832,0,0,1-2.509.268" transform="translate(-45.327 -52.859)" fill="#fff"/>
          <path id="Path_2969" data-name="Path 2969" d="M130.547,136.348a4.38,4.38,0,0,1-.668-.051,4.95,4.95,0,0,1-.567-.115l-.357.739h-.127l-.828-.637q.267-.522.42-.848c.1-.216.189-.383.261-.5a.832.832,0,0,1,.2-.242.342.342,0,0,1,.2-.064,3.05,3.05,0,0,1,.6.1,5.517,5.517,0,0,0,1.178.1,7.574,7.574,0,0,0,.873-.057,4.678,4.678,0,0,0,.974-.223l.064.089-.318,1.428a4.247,4.247,0,0,1-1.006.235,8.4,8.4,0,0,1-.9.057m-.382,8.6-.191-4.2c-.017-.254-.034-.484-.051-.688a4.48,4.48,0,0,0-.082-.573,4.115,4.115,0,0,0-.147-.517,4.218,4.218,0,0,0-.229-.516l1.338-1.338a4.659,4.659,0,0,1,.382.726,3.75,3.75,0,0,1,.21.7,5.172,5.172,0,0,1,.089.745q.019.388.019.847v4.434l-1.083.509Z" transform="translate(-47.435 -49.858)" fill="#fff"/>
          <path id="Path_2970" data-name="Path 2970" d="M141.184,145.914q-.637,0-1.478-.025t-1.643-.1l-.955-1.974.127-.256q.331.025.612.045c.187.013.369.028.548.045l1.006-.853a1.659,1.659,0,0,0,.236-.261.64.64,0,0,0,.1-.376c0-.034,0-.115-.006-.242s-.011-.278-.02-.452-.014-.352-.019-.536-.011-.346-.019-.49q-.026-.433-.051-.739a5.16,5.16,0,0,0-.077-.561,4.253,4.253,0,0,0-.133-.5q-.083-.248-.2-.555l1.337-1.274a7.634,7.634,0,0,1,.344.784,4.468,4.468,0,0,1,.191.694,5.392,5.392,0,0,1,.083.714q.019.369.019.828c0,.408-.006.731-.019.969a4.43,4.43,0,0,1-.07.611q.5-.408.809-.649c.208-.162.378-.285.509-.37a1.547,1.547,0,0,1,.312-.166.665.665,0,0,1,.2-.038,1.415,1.415,0,0,1,.739.223,2.491,2.491,0,0,1,.669.6,3.264,3.264,0,0,1,.484.879,2.908,2.908,0,0,1,.108,1.681,1.194,1.194,0,0,0,.414.1q.248.019.592.019h.153v2.23h-.153a3.009,3.009,0,0,1-.414-.031,1.756,1.756,0,0,1-.433-.121,1.71,1.71,0,0,1-.414-.255,1.532,1.532,0,0,1-.357-.433,1.836,1.836,0,0,1-.248.293.939.939,0,0,1-.287.191,3.807,3.807,0,0,1-1.013.268,11.43,11.43,0,0,1-1.586.089m1.185-3.822a.568.568,0,0,0-.191.052,2.5,2.5,0,0,0-.388.223q-.262.172-.694.484t-1.108.834h2.063q.357,0,.605-.006t.427-.019a2.436,2.436,0,0,0,.306-.038c.085-.018.174-.038.268-.064a2.084,2.084,0,0,0-.242-.548,3.016,3.016,0,0,0-.356-.471,2.019,2.019,0,0,0-.383-.325.638.638,0,0,0-.305-.121m-.612-3.363.816-1.351,1.478.943-.893,1.287Z" transform="translate(-50.811 -50.699)" fill="#fff"/>
          <path id="Path_2971" data-name="Path 2971" d="M151.152,149.965c-.161,0-.266-.11-.312-.331a3.8,3.8,0,0,1-.07-.777,3.882,3.882,0,0,1,.07-.79c.047-.221.151-.332.312-.332h1.8v2.23Z" transform="translate(-55.874 -54.749)" fill="#fff"/>
          <path id="Path_2972" data-name="Path 2972" d="M154.006,149.965c-.161,0-.266-.11-.312-.331a3.8,3.8,0,0,1-.07-.777,3.883,3.883,0,0,1,.07-.79c.047-.221.151-.332.312-.332h1.8v2.23Z" transform="translate(-56.932 -54.749)" fill="#fff"/>
          <path id="Path_2973" data-name="Path 2973" d="M160.746,146.14a2.694,2.694,0,0,1-1.006-.152,1.8,1.8,0,0,1-.663-.485,1.211,1.211,0,0,1-.306.318,1.807,1.807,0,0,1-.637.242,3.883,3.883,0,0,1-.764.076h-.51c-.161,0-.266-.11-.312-.331a3.8,3.8,0,0,1-.07-.777,3.884,3.884,0,0,1,.07-.79c.047-.22.151-.331.312-.331h.688a1.845,1.845,0,0,1-.089-.561,2.841,2.841,0,0,1,.038-.432,2.363,2.363,0,0,1,.21-.606,8.48,8.48,0,0,1,.516-.9q.344-.534.968-1.324l.306-.064a9.207,9.207,0,0,1,1.026.573,3.427,3.427,0,0,1,.637.529,1.484,1.484,0,0,1,.325.548,2.168,2.168,0,0,1,.089.643,2.9,2.9,0,0,1-.108.739,2.943,2.943,0,0,1-.4.853h1.019v2.229Zm-2.548-7.377.816-1.35,1.478.943-.892,1.287Zm.446,4.192a.944.944,0,0,0,.376.592,1.9,1.9,0,0,0,.707.363,1.845,1.845,0,0,0,.344-.439.865.865,0,0,0,.1-.4.778.778,0,0,0-.032-.223.65.65,0,0,0-.133-.229,1.538,1.538,0,0,0-.293-.255,5.2,5.2,0,0,0-.5-.3q-.217.268-.369.484a1.312,1.312,0,0,0-.2.408" transform="translate(-57.989 -50.924)" fill="#fff"/>
          <path id="Path_2974" data-name="Path 2974" d="M165.159,147.85c-.161,0-.266-.11-.312-.331a3.8,3.8,0,0,1-.07-.777,3.883,3.883,0,0,1,.07-.79c.047-.221.151-.332.312-.332h.816q.98,0,1.528-.025a1.631,1.631,0,0,0,.816-.2q.229-.14.548-.369t.765-.6l-.7-.2c-.239-.068-.459-.127-.663-.178s-.385-.094-.541-.128a1.886,1.886,0,0,0-.338-.05,1.322,1.322,0,0,0-.382.05v.879l-.9.51-.191-.128c-.025-.288-.04-.514-.045-.675s-.006-.34-.006-.535q0-.382.013-.631a3.5,3.5,0,0,1,.038-.395.946.946,0,0,1,.057-.217.342.342,0,0,1,.057-.1c.017-.017.066-.057.147-.121a2.57,2.57,0,0,1,.306-.2,2.236,2.236,0,0,1,.433-.191,1.655,1.655,0,0,1,.529-.083,3.518,3.518,0,0,1,.739.108q.471.109,1.1.286t1.395.433q.765.255,1.631.536l.051.254-.764,1.338q-.268.025-.446.057a1.055,1.055,0,0,0-.376.16,2.908,2.908,0,0,0-.458.388q-.262.261-.694.733a6.367,6.367,0,0,1-.809.777,3.552,3.552,0,0,1-.771.465,3.061,3.061,0,0,1-.84.229,7.929,7.929,0,0,1-1.02.058Z" transform="translate(-61.065 -52.634)" fill="#fff"/>
          <path id="Path_2975" data-name="Path 2975" d="M185.12,149.89q.012.076.019.153c0,.051.007.106.007.165a3.446,3.446,0,0,1-.1.822,1.884,1.884,0,0,1-.172.5,1.742,1.742,0,0,1-.344.325,4.2,4.2,0,0,1-.745.453,6.128,6.128,0,0,1-1.1.4,5.484,5.484,0,0,1-1.427.171,3.977,3.977,0,0,1-1.421-.21,2.036,2.036,0,0,1-.835-.553,1.775,1.775,0,0,1-.388-.79,4.445,4.445,0,0,1-.1-.931c0-.16.011-.4.032-.713s.045-.632.07-.955q.051-.561.115-1.2l1.249.064q-.025.586-.051,1.108-.025.446-.045.911t-.032.745a1.647,1.647,0,0,0,.58.235,4.514,4.514,0,0,0,.822.058q.344,0,.714-.033a6.723,6.723,0,0,0,.726-.1q.357-.07.682-.166a3.945,3.945,0,0,0,.567-.21.7.7,0,0,1-.019-.109.248.248,0,0,0-.02-.082,1.383,1.383,0,0,0-.414-.115q-.261-.039-.592-.057t-.713-.031q-.382-.013-.777-.039l-.064-.165q.127-.46.255-.879a2.113,2.113,0,0,1,.229-.561,1.078,1.078,0,0,1,.166-.2.723.723,0,0,1,.28-.141,2.638,2.638,0,0,1,.522-.082q.331-.026.879-.026h1.783v2.23Z" transform="translate(-66.158 -54.674)" fill="#fff"/>
          <path id="Path_2976" data-name="Path 2976" d="M191.588,145.717a1.338,1.338,0,0,1-.516-.528,1.8,1.8,0,0,1-.318.382.954.954,0,0,1-.2.14,2.584,2.584,0,0,1-.739.179q-.344.026-.484.025-.242,0-.312-.331a3.8,3.8,0,0,1-.07-.777,3.882,3.882,0,0,1,.07-.79q.071-.331.312-.332h.2c.081,0,.17,0,.267-.013s.2-.021.293-.038a1.366,1.366,0,0,0,.274-.077l-.115-3.121q-.013-.433-.045-.739a4.894,4.894,0,0,0-.089-.561q-.058-.255-.14-.5c-.055-.166-.121-.35-.2-.555l1.338-1.273a7.518,7.518,0,0,1,.344.784,4.427,4.427,0,0,1,.191.694,5.354,5.354,0,0,1,.083.713q.019.369.019.828v3.542a.531.531,0,0,0,.369.255,2.035,2.035,0,0,0,.459.063v2.23a1.99,1.99,0,0,1-.988-.2" transform="translate(-70.021 -50.699)" fill="#fff"/>
          <path id="Path_2977" data-name="Path 2977" d="M198.859,148.128a2.539,2.539,0,0,1-.567-.083,7.6,7.6,0,0,1-.739-.217,7.71,7.71,0,0,1-.758-.305,4.112,4.112,0,0,1-.624-.351,3.009,3.009,0,0,1-.771.72,1.725,1.725,0,0,1-.911.235q-.242,0-.312-.331a3.805,3.805,0,0,1-.07-.777,3.884,3.884,0,0,1,.07-.79q.071-.331.312-.332a2.764,2.764,0,0,0,.8-.1,1.355,1.355,0,0,0,.536-.312,2.8,2.8,0,0,0,.439-.554q.21-.338.516-.822a3.039,3.039,0,0,1,.509-.643,2.263,2.263,0,0,1,.58-.395,2.646,2.646,0,0,1,.707-.21,8.27,8.27,0,0,1,.9-.089l.28.267a16.935,16.935,0,0,1,.388,1.669,7.538,7.538,0,0,1,.134,1.249,2.391,2.391,0,0,1-.14.821,2.905,2.905,0,0,1-.35.688,1.976,1.976,0,0,1-.459.478.826.826,0,0,1-.478.179m-.2-3.44c-.2.017-.357.036-.484.057a.939.939,0,0,0-.344.127,1.171,1.171,0,0,0-.293.274q-.141.178-.344.5a3.515,3.515,0,0,0,.822.3,5.14,5.14,0,0,0,.937.146,4.436,4.436,0,0,0-.121-.771q-.1-.388-.172-.63" transform="translate(-71.934 -52.912)" fill="#fff"/>
          <path id="Path_2978" data-name="Path 2978" d="M221.071,145.99a2.955,2.955,0,0,1-.579-.05,1.307,1.307,0,0,1-.44-.172,1.35,1.35,0,0,1-.35-.331,2.758,2.758,0,0,1-.3-.516c-.094.178-.172.321-.236.427a2.318,2.318,0,0,1-.172.255.65.65,0,0,1-.147.14c-.047.03-.1.057-.146.082a1.264,1.264,0,0,1-.376.134,2.423,2.423,0,0,1-.4.031,1.493,1.493,0,0,1-.86-.223,2.081,2.081,0,0,1-.618-.847c-.094.178-.172.321-.236.427a2.309,2.309,0,0,1-.172.255.65.65,0,0,1-.147.14c-.047.03-.1.057-.146.082a1.249,1.249,0,0,1-.4.134,3.088,3.088,0,0,1-.452.031,1.467,1.467,0,0,1-.637-.127,6.972,6.972,0,0,1-.128,1.115,3.137,3.137,0,0,1-.191.669,1.332,1.332,0,0,1-.312.318,3.783,3.783,0,0,1-.719.446,5.765,5.765,0,0,1-2.586.573,3.973,3.973,0,0,1-1.421-.211,2.032,2.032,0,0,1-.835-.553,1.833,1.833,0,0,1-.395-.79,4.166,4.166,0,0,1-.1-.931c0-.16.011-.4.031-.713s.045-.632.07-.955q.051-.56.115-1.2l1.249.064c-.018.264-.032.537-.045.821s-.026.554-.038.809-.023.482-.032.682-.013.351-.013.453a1.772,1.772,0,0,0,.656.235,4.748,4.748,0,0,0,.758.058c.221,0,.452-.011.694-.032s.478-.053.707-.1.448-.094.656-.154a3.626,3.626,0,0,0,.554-.2c-.051-.33-.108-.66-.172-.987s-.132-.637-.2-.93-.146-.567-.223-.823-.149-.48-.217-.675l1.452-.9.23.051c.1.373.186.7.254.968a2.771,2.771,0,0,0,.2.6.681.681,0,0,0,.28.146,1.373,1.373,0,0,0,.357.045c.127,0,.261-.007.4-.019a1.749,1.749,0,0,0,.4-.082l.382-1.745h1.21v1.019a.96.96,0,0,0,.178.586.635.635,0,0,0,.548.242c.05,0,.123,0,.217-.007a1.381,1.381,0,0,0,.318-.057l.42-2.1h1.274v1.337a.914.914,0,0,0,.191.586.762.762,0,0,0,.636.242Zm-5.745-6.943,1.287.828.573-.828,1.4.879-.816,1.35-1.287-.816-.573.816-1.4-.879Zm.65-2.039,1.4.879-.815,1.351-1.478-.943Z" transform="translate(-76.922 -50.774)" fill="#fff"/>
          <path id="Path_2979" data-name="Path 2979" d="M228.2,149.094l1.286.816.573-.816,1.4.879-.816,1.351-1.286-.828-.573.828-1.4-.879Zm.216-1.019c-.161,0-.266-.11-.312-.331a3.8,3.8,0,0,1-.07-.777,3.883,3.883,0,0,1,.07-.79c.047-.221.151-.332.312-.332q.446,0,.79-.006t.611-.019a4.781,4.781,0,0,0,.478-.044,3.262,3.262,0,0,0,.388-.083q-.064-.268-.159-.548t-.2-.56c-.072-.186-.149-.363-.229-.529s-.151-.312-.21-.439l1.414-.981.242.1a7.9,7.9,0,0,1,.376,1.223,5.871,5.871,0,0,1,.134,1.261,3.706,3.706,0,0,1-.1.835,4.017,4.017,0,0,1-.255.764,2.984,2.984,0,0,1-.363.611,1.425,1.425,0,0,1-.408.376,6.828,6.828,0,0,1-2.51.268" transform="translate(-84.266 -52.859)" fill="#fff"/>
          <path id="Path_2980" data-name="Path 2980" d="M237.459,148.278a2.528,2.528,0,0,1-.579-.064,1.25,1.25,0,0,1-.485-.223,1.164,1.164,0,0,1-.337-.414,1.42,1.42,0,0,1-.128-.638,4.013,4.013,0,0,1,.1-.751q.1-.471.236-.981t.293-1q.153-.49.281-.821l.28-.2a3.431,3.431,0,0,1,1.312.274,2.847,2.847,0,0,1,.917.643,3.19,3.19,0,0,1,.592.9,4.932,4.932,0,0,1,.325,1.045h.828v2.23h-.764a4.357,4.357,0,0,1-.42,1.331,4.273,4.273,0,0,1-.624.911,2.7,2.7,0,0,1-.624.522,1.06,1.06,0,0,1-.408.166c-.042,0-.106,0-.191-.013s-.216-.03-.4-.064l-.719-.14q-.452-.089-1.141-.229v-.638a11.4,11.4,0,0,0,1.949-.911,7.222,7.222,0,0,0,1.427-1.064.378.378,0,0,0-.006-.064.454.454,0,0,1-.006-.076,5.129,5.129,0,0,1-.751.191,5.379,5.379,0,0,1-.956.077m.446-2.039a4.5,4.5,0,0,0,.471-.025c.161-.017.314-.035.459-.052a2.033,2.033,0,0,0-.529-.79,1.44,1.44,0,0,0-.937-.344c-.026.068-.055.149-.089.242s-.068.193-.1.3-.064.208-.089.306a2.113,2.113,0,0,0-.051.249,1.922,1.922,0,0,0,.867.115" transform="translate(-87.386 -53.062)" fill="#fff"/>
          <path id="Path_2981" data-name="Path 2981" d="M243.38,149.095l1.286.815.573-.815,1.4.879-.816,1.35-1.287-.828-.573.828-1.4-.879Zm.217-1.02c-.161,0-.266-.11-.312-.331a3.8,3.8,0,0,1-.07-.777,3.883,3.883,0,0,1,.07-.79c.047-.22.151-.331.312-.331q.446,0,.79-.006t.611-.019a4.782,4.782,0,0,0,.478-.044,3.037,3.037,0,0,0,.388-.083c-.043-.179-.1-.361-.159-.548s-.132-.374-.2-.561-.149-.363-.229-.528-.151-.313-.21-.44l1.414-.981.242.1a7.882,7.882,0,0,1,.376,1.224,5.867,5.867,0,0,1,.134,1.261,3.708,3.708,0,0,1-.1.835,4.024,4.024,0,0,1-.255.765,3.016,3.016,0,0,1-.363.611,1.433,1.433,0,0,1-.408.376,6.848,6.848,0,0,1-2.509.267m1.58,5.287-1.4-.879.816-1.351,1.478.943Z" transform="translate(-89.892 -52.859)" fill="#fff"/>
        </g>
      </g>
    </g>
  </g>
</svg>
