<svg width="27" height="37" viewBox="0 0 27 37" fill="none" xmlns="http://www.w3.org/2000/svg"><g clip-path="url(#clip0_302_2)"><mask id="mask0_302_2" maskUnits="userSpaceOnUse" x="0" y="0" width="27" height="37"><path d="M26.24 0H0V36.239H26.24V0Z" fill="white"></path></mask><g mask="url(#mask0_302_2)"><path d="M6.329 30.613C6.5457 31.0469 6.86778 31.4196 7.26575 31.6968C7.66372 31.9741 8.12487 32.1471 8.607 32.2C10.619 32.69 12.525 32.307 14.492 32.484C14.9072 32.5255 15.2986 32.6971 15.6104 32.9744C15.9222 33.2517 16.1384 33.6205 16.228 34.028C16.298 34.3 16.167 34.528 16.401 34.793C16.693 35.117 17.351 34.84 17.48 35.434C17.76 36.718 15.838 36.28 15.259 35.31C14.899 34.71 15.193 34.01 14.55 33.754C12.5588 33.8246 10.5652 33.7286 8.59 33.467C7.027 33.143 5.364 32.354 5.071 30.623C3.046 30.564 0.313 31.17 0 28.39V2.3C0.011813 1.70632 0.247933 1.13912 0.660891 0.712437C1.07385 0.285751 1.63302 0.0312147 2.226 0L19.1 0C21.773 0.379 21.2 3 21.252 4.993C21.8676 5.0482 22.4525 5.2865 22.9314 5.67719C23.4104 6.06788 23.7613 6.59304 23.939 7.185L26.24 23L26.233 34.548C26.1748 34.9863 25.9698 35.3919 25.6515 35.6986C25.3331 36.0054 24.9201 36.1952 24.48 36.237C24.368 36.2578 24.2524 36.2479 24.1455 36.2084C24.0386 36.169 23.9443 36.1014 23.8726 36.0128C23.8009 35.9242 23.7545 35.8179 23.7382 35.7051C23.7219 35.5924 23.7363 35.4773 23.78 35.372C23.98 34.741 24.894 35.272 24.996 34.402V23.078L22.768 7.652C22.6841 7.29233 22.4937 6.96633 22.2216 6.71657C21.9496 6.46681 21.6085 6.3049 21.243 6.252V19.1C21.243 19.42 20.487 19.783 20.217 19.423C18.84 18.318 17.572 16.96 16.204 15.861C15.342 15.169 14.168 14.287 13.121 15.116C12.231 15.816 12.746 16.716 13.215 17.522C13.946 18.78 15.029 19.922 15.84 21.143C16.771 22.543 16.571 22.897 16.908 24.449C17.323 26.3996 18.2164 28.2165 19.508 29.736C19.665 30.012 19.379 30.617 19.096 30.617L6.329 30.613ZM19.994 17.494V2.072C19.9265 1.84238 19.7889 1.6396 19.6004 1.49204C19.412 1.34447 19.1821 1.2595 18.943 1.249H2.3C2.07867 1.24817 1.86275 1.31737 1.68314 1.44669C1.50352 1.57602 1.36941 1.75884 1.3 1.969C1.213 10.849 1.213 19.769 1.3 28.648C1.36482 28.8179 1.46762 28.9708 1.60056 29.0948C1.73349 29.2189 1.89304 29.311 2.067 29.364H17.652L16.894 28.113H3.162C3.07298 28.1208 2.98333 28.109 2.89935 28.0784C2.81538 28.0479 2.73911 27.9993 2.67592 27.9361C2.61273 27.8729 2.56415 27.7966 2.53358 27.7127C2.50302 27.6287 2.49121 27.539 2.499 27.45V10.811C2.562 10.345 2.987 9.972 3.435 10.27C3.56516 10.3763 3.67233 10.508 3.75 10.657V26.857H16.246L15.465 23.499C15.1723 23.598 14.8733 23.6772 14.57 23.736C12.07 23.966 9.218 23.554 6.677 23.736C6.2661 23.7079 5.87698 23.5408 5.57366 23.2622C5.27033 22.9836 5.07084 22.61 5.008 22.203C4.92307 21.142 4.92307 20.076 5.008 19.015C5.05178 18.7564 5.14744 18.5093 5.28923 18.2887C5.43101 18.068 5.61598 17.8783 5.833 17.731C6.03271 17.6379 6.23735 17.5558 6.446 17.485H11.718C11.176 16.13 11.112 15.107 12.301 14.125C14.087 12.652 16.093 14.015 17.501 15.299V3.751H3.752V5.82C3.752 6.241 2.679 6.52 2.519 5.803C2.44493 4.87462 2.44092 3.94198 2.507 3.013C2.52282 2.89539 2.57316 2.78511 2.65166 2.69611C2.73016 2.60711 2.83329 2.54339 2.948 2.513L18.085 2.5C18.1741 2.49237 18.2637 2.50432 18.3477 2.535C18.4317 2.56569 18.5079 2.61437 18.5711 2.67763C18.6343 2.7409 18.6828 2.81721 18.7134 2.90123C18.744 2.98525 18.7558 3.07494 18.748 3.164V16.364C19.0422 16.7439 19.3825 17.0859 19.761 17.382C19.84 17.442 19.861 17.533 19.996 17.499M6.619 18.76C6.356 18.826 6.279 18.996 6.249 19.25C6.19582 20.2464 6.21554 21.2454 6.308 22.239C6.34961 22.3267 6.42026 22.3974 6.508 22.439C9.238 22.539 12.018 22.539 14.747 22.439C15.175 22.239 14.626 21.658 14.439 21.379C13.832 20.479 13.105 19.63 12.448 18.763L6.619 18.76Z" fill="url(#paint0_linear_302_2)"></path><path d="M10.1338 5.02203C15.9338 4.36603 16.7668 13.281 10.9688 13.745C5.35579 14.199 4.50379 5.65803 10.1338 5.02203ZM10.1338 6.27003C6.28279 6.80103 6.83379 12.887 10.9638 12.487C15.0408 12.093 14.4068 5.68103 10.1338 6.27003Z" fill="url(#paint1_linear_302_2)"></path><path d="M12.1629 8.06193C12.8189 7.91393 13.1229 8.36193 12.9079 8.96193L10.5509 10.9769C10.373 11.0383 10.1792 11.0359 10.0029 10.9699C9.38886 10.5847 8.81734 10.1355 8.29791 9.62993C8.259 9.53423 8.24369 9.43058 8.25326 9.32772C8.26283 9.22487 8.297 9.12582 8.35289 9.03894C8.40878 8.95207 8.48475 8.87991 8.57439 8.82857C8.66402 8.77722 8.7647 8.74819 8.86791 8.74393C9.26191 8.74393 10.0999 9.62093 10.2579 9.59693C10.7489 9.37493 11.7309 8.15993 12.1639 8.06193" fill="url(#paint2_linear_302_2)"></path></g></g><defs><linearGradient id="paint0_linear_302_2" x1="13.12" y1="0" x2="13.12" y2="36.2476" gradientUnits="userSpaceOnUse"><stop stop-color="#393C97"></stop><stop offset="1" stop-color="#37BEC1"></stop></linearGradient><linearGradient id="paint1_linear_302_2" x1="10.6172" y1="4.98755" x2="10.6172" y2="13.7625" gradientUnits="userSpaceOnUse"><stop stop-color="#FFBB00"></stop><stop offset="1" stop-color="#805E00"></stop></linearGradient><linearGradient id="paint2_linear_302_2" x1="10.6134" y1="8.03345" x2="10.6134" y2="11.0212" gradientUnits="userSpaceOnUse"><stop stop-color="#FFBB00"></stop><stop offset="1" stop-color="#805E00"></stop></linearGradient><clipPath id="clip0_302_2"><rect width="26.24" height="36.239" fill="white"></rect></clipPath></defs></svg>