<svg width="121" height="20" viewBox="0 0 121 20" fill="none" xmlns="http://www.w3.org/2000/svg">
<mask id="mask0_103_2190" style="mask-type:luminance" maskUnits="userSpaceOnUse" x="0" y="0" width="121" height="20">
<path d="M120.381 0.162109H0.380981V19.1621H120.381V0.162109Z" fill="white"/>
</mask>
<g mask="url(#mask0_103_2190)">
<path d="M66.7255 19.1621H55.2836C54.1582 19.1626 53.0717 18.7481 52.2291 17.9969C51.3866 17.2457 50.8465 16.2099 50.7108 15.0851C49.4527 14.4753 48.4205 13.4776 47.7642 12.2368C47.219 11.3674 46.4537 10.6599 45.547 10.1868L44.5573 9.66161L45.547 9.1374C46.4544 8.66532 47.2199 7.95755 47.7642 7.08742C48.4204 5.8468 49.4527 4.84935 50.7108 4.24016C50.8471 3.1155 51.3873 2.07991 52.2297 1.32869C53.0721 0.57747 54.1583 0.162527 55.2836 0.162109H66.7255C67.851 0.16188 68.9376 0.576598 69.7801 1.32794C70.6226 2.07928 71.1627 3.11524 71.2984 4.24016C72.5565 4.84923 73.5888 5.84671 74.245 7.08742C74.7894 7.95742 75.5549 8.66516 76.4621 9.1374L77.4519 9.66161L76.4621 10.1868C75.5551 10.6594 74.7898 11.3671 74.245 12.2368C73.5893 13.4781 72.5569 14.476 71.2984 15.0851C71.1627 16.2099 70.6225 17.2457 69.78 17.9969C68.9375 18.7481 67.8509 19.1626 66.7255 19.1621ZM46.9456 9.66261C47.6538 10.1836 48.2613 10.8308 48.7381 11.5721C49.4716 12.6623 50.2297 13.7895 51.3947 14.0536L51.8421 14.1532L51.855 14.6147C51.8787 15.5141 52.2502 16.3686 52.8905 16.9963C53.5307 17.624 54.389 17.9752 55.2826 17.9752H66.7246C67.6182 17.9755 68.4767 17.6243 69.117 16.9966C69.7572 16.3689 70.1287 15.5142 70.1522 14.6147L70.1651 14.1532L70.6124 14.0536C71.7784 13.7895 72.5366 12.6584 73.269 11.5721C73.746 10.8309 74.3535 10.1838 75.0615 9.66261C74.3535 9.14104 73.746 8.49358 73.269 7.75214C72.5366 6.66187 71.7784 5.53573 70.6124 5.27163L70.1651 5.17197L70.1522 4.71055C70.129 3.81095 69.7578 2.95604 69.1177 2.32796C68.4777 1.69987 67.6193 1.34827 66.7255 1.34805H55.2836C54.3901 1.34851 53.532 1.70006 52.892 2.32788C52.252 2.9557 51.8807 3.81021 51.8569 4.70955L51.8441 5.17097L51.3967 5.27063C50.2317 5.53373 49.4735 6.66586 48.7401 7.75115C48.2633 8.49271 47.6558 9.14019 46.9476 9.66161" fill="#BEC0E1"/>
<path d="M119.162 9.06958H75.2278V10.2555H119.162V9.06958Z" fill="#BEC0E1"/>
<path d="M45.9123 9.06958H1.97852V10.2555H45.9123V9.06958Z" fill="#BEC0E1"/>
<path d="M59.2526 9.61973C59.2396 9.6325 59.224 9.64231 59.207 9.6485C59.1899 9.65469 59.1717 9.65711 59.1536 9.6556C58.2747 10.2862 57.2473 10.6745 56.1734 10.7818C56.0222 10.7867 55.8718 10.7597 55.7317 10.7026C55.5915 10.6454 55.4648 10.5593 55.3597 10.4499C55.2546 10.3398 55.1723 10.2096 55.1178 10.0671C55.0632 9.9245 55.0375 9.77243 55.042 9.61973C55.0447 9.32775 55.1613 9.04854 55.3667 8.84239C55.4575 8.73453 55.5702 8.64752 55.6972 8.58718C55.8243 8.52684 55.9626 8.49459 56.1031 8.49258C56.4651 8.54534 56.8204 8.63689 57.1631 8.76565C57.8628 8.98889 58.5441 9.26645 59.2011 9.59581L59.2526 9.61973ZM59.795 8.31419C59.7809 8.30503 59.7641 8.30115 59.7475 8.30323C58.6796 8.10804 57.6786 7.64267 56.8385 6.95086C56.7278 6.85057 56.6399 6.72744 56.5808 6.58985C56.5217 6.45226 56.4928 6.30345 56.496 6.15358C56.4932 5.99615 56.5232 5.83988 56.5841 5.69483C56.645 5.54979 56.7353 5.4192 56.8494 5.31147C56.9608 5.20007 57.0933 5.11226 57.239 5.05321C57.3847 4.99416 57.5406 4.96507 57.6976 4.96764C57.9639 4.95308 58.2255 5.0423 58.4281 5.21679C59.0824 6.09487 59.5479 7.10051 59.795 8.16969V8.31419ZM59.795 11.0429C59.593 12.1272 59.095 13.1335 58.3568 13.9489C58.2694 14.0483 58.1631 14.1289 58.044 14.186C57.9249 14.243 57.7957 14.2752 57.664 14.2808C57.5154 14.2825 57.3682 14.2528 57.2318 14.1936C57.0954 14.1344 56.9728 14.0469 56.8721 13.937C56.7666 13.8314 56.6831 13.7058 56.6265 13.5673C56.5699 13.4289 56.5414 13.2804 56.5425 13.1307C56.5327 12.8376 56.6197 12.5495 56.79 12.3115C57.6608 11.6648 58.6496 11.1971 59.7 10.9352H59.7989L59.795 11.0429ZM62.2932 9.64763C62.2927 9.84619 62.2437 10.0416 62.1504 10.2165C62.0572 10.3915 61.9226 10.5406 61.7586 10.6508C61.5945 10.7611 61.4061 10.8289 61.2098 10.8485C61.0136 10.868 60.8156 10.8386 60.6333 10.7629C60.451 10.6871 60.29 10.5674 60.1646 10.4142C60.0391 10.261 59.953 10.0791 59.9139 9.88448C59.8748 9.68987 59.8838 9.48856 59.9402 9.2983C59.9967 9.10805 60.0987 8.9347 60.2374 8.79355C60.4665 8.57199 60.7722 8.44875 61.0898 8.44987C61.4075 8.45098 61.7123 8.57636 61.9399 8.79953C62.0537 8.90866 62.1439 9.04036 62.2047 9.18633C62.2655 9.33229 62.2957 9.48936 62.2932 9.64763ZM62.2457 4.6886C62.2077 5.04054 62.1286 5.38676 62.0101 5.72007C61.798 6.41289 61.5133 7.08103 61.1609 7.71325C61.1421 7.71823 61.1421 7.73717 61.1421 7.76906C61.1421 7.80095 61.1302 7.81689 61.1065 7.81689C61.0827 7.78056 61.0548 7.74711 61.0233 7.71723C60.4093 6.83284 60.0357 5.80216 59.9395 4.72746C59.9343 4.57577 59.9616 4.42473 60.0195 4.28459C60.0774 4.14445 60.1645 4.01848 60.275 3.91524C60.5001 3.70472 60.7984 3.59163 61.1055 3.60032C61.3995 3.60502 61.6803 3.72392 61.8894 3.93218C61.9991 4.02344 62.088 4.13744 62.15 4.26643C62.212 4.39542 62.2457 4.53636 62.2487 4.67963M62.2368 14.5379C62.2392 14.7624 62.1747 14.9824 62.0518 15.1697C61.9288 15.357 61.753 15.5029 61.547 15.5887C61.3409 15.6744 61.1141 15.6961 60.8957 15.651C60.6773 15.6058 60.4773 15.4958 60.3216 15.3352C60.213 15.2372 60.126 15.1174 60.0662 14.9835C60.0064 14.8496 59.975 14.7046 59.9741 14.5578C60.0652 13.4271 60.4559 12.3416 61.1055 11.4146V11.4385L61.153 11.4146C61.779 12.3418 62.1543 13.4172 62.2417 14.5349M65.3517 6.80037C64.4764 7.45704 63.4786 7.92921 62.4179 8.18862C62.3751 8.19714 62.3311 8.19714 62.2883 8.18862C62.3199 8.22051 62.3358 8.17666 62.3358 8.05807C62.5283 6.99641 62.9907 6.00308 63.6779 5.17493C63.7795 5.06688 63.9024 4.9815 64.0388 4.92433C64.1752 4.86717 64.3221 4.83948 64.4698 4.84307C64.6205 4.84078 64.7702 4.86899 64.9099 4.92603C65.0496 4.98307 65.1766 5.06777 65.2832 5.17512C65.3898 5.28246 65.4739 5.41026 65.5306 5.55095C65.5872 5.69163 65.6152 5.84234 65.613 5.99413C65.6236 6.28556 65.5318 6.57141 65.3536 6.80137M65.2992 12.3673C65.4073 12.4664 65.4935 12.5873 65.5524 12.722C65.6112 12.8568 65.6413 13.0025 65.6407 13.1497C65.6431 13.304 65.6152 13.4573 65.5587 13.6008C65.5021 13.7443 65.418 13.8751 65.3111 13.9858C65.2078 14.0987 65.0818 14.1883 64.9416 14.2486C64.8013 14.3089 64.6499 14.3386 64.4975 14.3356C64.3555 14.3436 64.2135 14.3224 64.0799 14.2734C63.9463 14.2244 63.8241 14.1486 63.7205 14.0506C63.4815 13.7649 63.2796 13.4498 63.1197 13.1128C62.8078 12.4403 62.5432 11.7467 62.3279 11.0369V10.9781C62.355 10.9837 62.3824 10.9877 62.41 10.99C63.4714 11.2015 64.4641 11.6747 65.2992 12.3673ZM67.066 9.65062C67.065 9.80198 67.0343 9.95165 66.9757 10.091C66.9171 10.2304 66.8317 10.3568 66.7245 10.4628C66.6274 10.5749 66.508 10.6651 66.3739 10.7274C66.2398 10.7898 66.0942 10.8229 65.9465 10.8246C65.5842 10.7868 65.228 10.7031 64.8865 10.5755C64.1867 10.355 63.5145 10.054 62.8831 9.67853C62.8594 9.67853 62.8475 9.67155 62.8475 9.6556C62.8475 9.63966 62.8594 9.63567 62.8831 9.61973C63.7774 8.97777 64.828 8.59233 65.9228 8.50454C66.0735 8.50226 66.2232 8.53047 66.3629 8.58751C66.5026 8.64454 66.6296 8.72924 66.7362 8.83659C66.8428 8.94393 66.9269 9.07174 66.9836 9.21242C67.0402 9.35311 67.0682 9.50381 67.066 9.6556" fill="#BEC0E1"/>
<path d="M120.378 9.6627C120.378 9.98083 120.284 10.2918 120.109 10.5563C119.933 10.8208 119.684 11.027 119.392 11.1488C119.1 11.2705 118.779 11.3024 118.469 11.2403C118.159 11.1782 117.874 11.025 117.651 10.8001C117.427 10.5751 117.275 10.2885 117.214 9.9765C117.152 9.66448 117.184 9.34107 117.305 9.04715C117.425 8.75324 117.63 8.50202 117.893 8.32528C118.156 8.14854 118.465 8.0542 118.78 8.0542C119.204 8.0542 119.611 8.22367 119.91 8.52532C120.21 8.82697 120.378 9.2361 120.378 9.6627Z" fill="#BEC0E1"/>
<path d="M3.57504 9.6627C3.57504 9.98083 3.48135 10.2918 3.30581 10.5563C3.13028 10.8208 2.88078 11.027 2.58887 11.1488C2.29696 11.2705 1.97575 11.3024 1.66586 11.2403C1.35598 11.1782 1.07133 11.025 0.847908 10.8001C0.624491 10.5751 0.472342 10.2885 0.410701 9.9765C0.349061 9.66448 0.380697 9.34107 0.501609 9.04715C0.622522 8.75324 0.82728 8.50202 1.08999 8.32528C1.3527 8.14854 1.66157 8.0542 1.97752 8.0542C2.18731 8.0542 2.39505 8.0958 2.58887 8.17664C2.78269 8.25747 2.9588 8.37595 3.10714 8.52532C3.25548 8.67468 3.37316 8.852 3.45344 9.04715C3.53372 9.2423 3.57504 9.45147 3.57504 9.6627Z" fill="#BEC0E1"/>
</g>
</svg>
