<svg xmlns="http://www.w3.org/2000/svg" xmlns:xlink="http://www.w3.org/1999/xlink" width="214.413" height="98.226" viewBox="0 0 214.413 98.226">
  <defs>
    <linearGradient id="linear-gradient" x1="0.978" y1="0.339" x2="0.019" y2="0.346" gradientUnits="objectBoundingBox">
      <stop offset="0" stop-color="#82c341"/>
      <stop offset="1" stop-color="#37bec1"/>
    </linearGradient>
    <linearGradient id="linear-gradient-2" x1="0.948" y1="0.06" x2="-0.031" y2="0.456" gradientUnits="objectBoundingBox">
      <stop offset="0" stop-color="#393c97"/>
      <stop offset="1" stop-color="#37bec1"/>
    </linearGradient>
    <linearGradient id="linear-gradient-4" x1="0.93" y1="0.436" x2="-0.621" y2="0.524" gradientUnits="objectBoundingBox">
      <stop offset="0" stop-color="#e0ad70"/>
      <stop offset="1" stop-color="#8c5e2c"/>
    </linearGradient>
    <linearGradient id="linear-gradient-8" x1="0.5" y1="0" x2="0.5" y2="1" xlink:href="#linear-gradient-2"/>
    <clipPath id="clip-path">
      <path id="Path_2010" data-name="Path 2010" d="M344.249,22.838a6.6,6.6,0,0,0-5.293,4.11,6.232,6.232,0,0,0,1.617,6.964,8.739,8.739,0,0,0,3.822,1.227,6.584,6.584,0,0,1-3.824,1.451c-6.321,0-7.775-13.449,3.678-13.752M349.334,5.22a17.867,17.867,0,0,1,7.969,9.273c1.432,4.3,1.064,8.512-.46,13.363A29.224,29.224,0,0,0,349.334,5.22M341.22.879a1.168,1.168,0,0,0,.67,1.352A17.468,17.468,0,0,1,346.9,5.85a26.972,26.972,0,0,1,7.654,22.635c-1.379-5.878-7.361-8.957-13.1-7.507a9.587,9.587,0,0,0-7.465,12.482c.9,2.919,3.392,5.378,6.567,5.345,2.84-.051,5.176-1.623,7.354-3.848h0a1.342,1.342,0,0,0-1.334-2.215,4.82,4.82,0,0,1-4.687-.6,3.962,3.962,0,0,1-.88-4.426c1.019-2.792,4.776-3.452,7.192-2.14,3.225,1.735,4.345,5.882,3.868,9.344-.544,3.845-2.62,7.292-4.583,10.656a62.847,62.847,0,0,0-5.22,10.249l1.871,1.25a60.457,60.457,0,0,1,5.2-10.311h0c.771-1.319,7.633-12.862,9.031-16.61,5.874-15.3-1.564-26.216-15.7-30.118a1.17,1.17,0,0,0-1.447.836" transform="translate(-333.501 0)" fill="url(#linear-gradient)"/>
    </clipPath>
    <clipPath id="clip-path-2">
      <path id="Path_2011" data-name="Path 2011" d="M367.492,37.362A40.241,40.241,0,0,1,393.2,74.934q0,.715-.025,1.435A40.157,40.157,0,0,1,385.346,98.9l-.148.2a26.924,26.924,0,0,1-8.728,7.6,22.472,22.472,0,0,1-10.657,2.793,20.009,20.009,0,0,1-6.585-1.11,21.747,21.747,0,0,1-6.347-3.52,14.983,14.983,0,0,1-4.636-6.262,22.251,22.251,0,0,1-1.473-8.347c0-.918.047-1.859.131-2.812l-2.059-1.377a35.18,35.18,0,0,0-.269,4.189,24.431,24.431,0,0,0,1.634,9.17,17.187,17.187,0,0,0,5.312,7.164,23.951,23.951,0,0,0,6.987,3.87,22.2,22.2,0,0,0,7.306,1.231,24.667,24.667,0,0,0,11.7-3.057,29.12,29.12,0,0,0,9.444-8.224l.155-.208a42.35,42.35,0,0,0,8.256-23.761q.027-.758.026-1.511a42.4,42.4,0,0,0-28.131-39.988,21.3,21.3,0,0,1,.227,2.416" transform="translate(-344.575 -34.946)" fill="url(#linear-gradient-2)"/>
    </clipPath>
    <clipPath id="clip-path-3">
      <path id="Path_2012" data-name="Path 2012" d="M286.4,41.556a41.718,41.718,0,0,0,11.9,68.575,41.609,41.609,0,0,0,15.832,3.547,41.342,41.342,0,0,1-15.6-4.045c-14.609-6.884-24.127-22.909-23.009-39.009l-.063,0,.063,0A40.342,40.342,0,0,1,315.79,31.934q.465,0,.934.011a40.628,40.628,0,0,1,5.59.515c-.246-.794-.517-1.578-.83-2.342a43.16,43.16,0,0,0-4.71-.37q-.494-.011-.984-.012A42.413,42.413,0,0,0,286.4,41.556" transform="translate(-273.294 -29.737)" fill="url(#linear-gradient-2)"/>
    </clipPath>
    <clipPath id="clip-path-4">
      <path id="Path_2016" data-name="Path 2016" d="M348.911,143.9c-.084.954-.132,1.894-.131,2.812a26.947,26.947,0,0,0,.137,2.7l4.122-2.755-4.6-3.073Z" transform="translate(-348.439 -143.584)" fill="url(#linear-gradient-4)"/>
    </clipPath>
    <clipPath id="clip-path-5">
      <path id="Path_2017" data-name="Path 2017" d="M301.6,154.794h13.39l6.294-4.135a29.256,29.256,0,0,1-.4-4.9,36.671,36.671,0,0,1,.237-4.009Z" transform="translate(-301.601 -141.75)" fill="url(#linear-gradient-4)"/>
    </clipPath>
    <clipPath id="clip-path-6">
      <path id="Path_2018" data-name="Path 2018" d="M306.827,97.088c-.106,5.573,3.84,6.348,3.84,6.348-6.519,3.6-2.027,10.976-2.027,10.976.207-.39.5-.906.875-1.481a13.208,13.208,0,0,1,3.424-3.687c.985-.669,3.784-1.81,7.667.642L348.9,128.793h13.5L306.908,91.711c-.014,1.227-.041,3.242-.082,5.377" transform="translate(-306.825 -91.711)" fill="url(#linear-gradient-4)"/>
    </clipPath>
    <clipPath id="clip-path-7">
      <path id="Path_2019" data-name="Path 2019" d="M366.089,108.083l6.748,4.511,4.064-2.716c4.225-2.761,6.681-1.311,7.666-.642a11.6,11.6,0,0,1,2.512,2.415,18.794,18.794,0,0,1,1.788,2.753c.035-.051.063-.1.1-.15.587-1.054,3.864-7.522-2.113-10.825,0,0,3.944-.775,3.84-6.348-.041-2.139-.068-4.158-.082-5.384Z" transform="translate(-366.089 -91.697)" fill="url(#linear-gradient-4)"/>
    </clipPath>
    <clipPath id="clip-path-8">
      <rect id="Rectangle_690" data-name="Rectangle 690" width="48.271" height="0.397" transform="translate(0 27.997) rotate(-35.45)" fill="url(#linear-gradient-8)"/>
    </clipPath>
    <clipPath id="clip-path-9">
      <path id="Path_2937" data-name="Path 2937" d="M143.376,39.145c.185-.939.722-7.629.829-8.746-.539-.068-4.464,3.971-4.413,11.269L116.85,57.816l.207.294,22.707-15.982c-.087,3.11-.961,5.588-3.86,7.081-3.7,2.046-7.712,3.706-10.732,6.763a25.694,25.694,0,0,0-5.58,8.465c-3.431,7.651,7.149,7.929,12.4,8.3,16.294.884,32.519-2.009,48.493-4.9V61.67l-.222.034c-11.819,1.489-46.491,7.168-55.8,1.047-1.414-1.077-.313-2.879.613-3.882,2.784-3.139,6.986-4.312,10.5-6.4,4.652-2.489,7.015-7.8,7.722-12.833l20.07-14.127-.207-.294L143.376,39.145" transform="translate(-116.85 -25.217)" fill="url(#linear-gradient-8)"/>
    </clipPath>
    <clipPath id="clip-path-10">
      <path id="Path_2938" data-name="Path 2938" d="M167.664,0c-7.571,6.085-14.267,9.958-23.088,16.121h.014c-2.172,1.516-4.291,3.116-6.317,4.822a25.028,25.028,0,0,0-4.6,6.453c-.363.509,0,.864.448.295,5.583-4.969,12.6-8.9,18.239-12.887,2.642-1.773,5.265-3.575,7.791-5.511a19.7,19.7,0,0,0,5.129-4.977A31.93,31.93,0,0,0,167.595.557C167.677.393,167.87.134,167.664,0Z" transform="translate(-133.526)" fill="url(#linear-gradient-8)"/>
    </clipPath>
    <clipPath id="clip-path-11">
      <path id="Path_2939" data-name="Path 2939" d="M154.035,14.658c-1.543,1.012-3.081,2.031-4.547,3.154a9.373,9.373,0,0,0-3.082,3.617c-.155.222.005.351.185.122,3.668-3.1,5.762-3.855,9.645-6.673a59.938,59.938,0,0,0,5.725-4.1,10.357,10.357,0,0,0,1.9-2.672c.034-.068.114-.175.028-.23-3.756,3.009-5.889,3.971-9.859,6.781" transform="translate(-146.344 -7.877)" fill="url(#linear-gradient-8)"/>
    </clipPath>
    <clipPath id="clip-path-12">
      <path id="Path_2940" data-name="Path 2940" d="M174.4,57.7a3.7,3.7,0,0,0-.382.733c-2.773,7.491-6.152,12.381-13.423,16.053-.456.315-3.646,1.575-1.942,1.932,6.286-.1,8.154-.98,11.682-6.2.548,2.594,2.348,5.416,5.352,5.207,3.806-.522,4.985-5.962,5.545-9.135.05-.407.622-3.067-.365-2.16-1.17,2.815-4.458,2.913-5.781.223-.955-2.105-.288-4.3-.073-6.458a.392.392,0,0,0-.213-.418.253.253,0,0,0-.1-.024c-.142,0-.229.146-.3.249" transform="translate(-158.154 -57.449)" fill="url(#linear-gradient-8)"/>
    </clipPath>
    <clipPath id="clip-path-13">
      <path id="Path_2941" data-name="Path 2941" d="M222.1,55.824a7.275,7.275,0,0,0-.335.7,51.478,51.478,0,0,1-4.132,8.98,19.26,19.26,0,0,1-2.551,3.456,24.836,24.836,0,0,1-2.477,2.239,56.066,56.066,0,0,1-4.964,3.421,4.942,4.942,0,0,0-1.075.84.608.608,0,0,0-.136.624c.081.219.312.246.531.241.154,0,.309,0,.464,0v-.007a4.1,4.1,0,0,0,.673-.006c.923-.154,1.844-.313,2.76-.5a9.326,9.326,0,0,0,3.3-1.238,10.1,10.1,0,0,0,2.717-2.837,27.724,27.724,0,0,0,2.826-5.5,69.827,69.827,0,0,0,2.6-7.979,6.78,6.78,0,0,0,.463-2.257c-.011-.158.057-.358-.18-.411a.549.549,0,0,0-.121-.014.393.393,0,0,0-.366.244" transform="translate(-206.397 -55.58)" fill="url(#linear-gradient-8)"/>
    </clipPath>
    <clipPath id="clip-path-14">
      <path id="Path_2942" data-name="Path 2942" d="M233.7,27.735c-.148.219-.291.44-.433.662A25.39,25.39,0,0,0,231,32.871a1.2,1.2,0,0,0,.5,1.627c1.037.624,2.027,1.32,3.055,1.957a1.185,1.185,0,0,0,1.745-.3,14.875,14.875,0,0,0,1.629-2.235,5.3,5.3,0,0,0,.8-2.4c0-.127,0-.253,0-.379a.735.735,0,0,0-.046-.157,5.378,5.378,0,0,0-1.6-2.585,5.812,5.812,0,0,0-1.955-1.11,1.7,1.7,0,0,0-.554-.111,1.019,1.019,0,0,0-.868.559" transform="translate(-230.872 -27.176)" fill="url(#linear-gradient-8)"/>
    </clipPath>
    <clipPath id="clip-path-15">
      <path id="Path_2943" data-name="Path 2943" d="M203.925,37.719a25.582,25.582,0,0,0-2.692,5.138,1.215,1.215,0,0,0,.507,1.627q1.5.974,3.021,1.931a1.2,1.2,0,0,0,1.78-.29,15.524,15.524,0,0,0,1.6-2.2,5.369,5.369,0,0,0,.812-2.442c0-.126.005-.253,0-.379a.777.777,0,0,0-.051-.155,5.305,5.305,0,0,0-3.56-3.688,1.691,1.691,0,0,0-.544-.109,1.028,1.028,0,0,0-.874.567" transform="translate(-201.109 -37.152)" fill="url(#linear-gradient-8)"/>
    </clipPath>
    <clipPath id="clip-path-16">
      <path id="Path_2944" data-name="Path 2944" d="M100.5,105.331a25.566,25.566,0,0,0-2.692,5.137,1.215,1.215,0,0,0,.507,1.627q1.5.975,3.021,1.931a1.2,1.2,0,0,0,1.78-.29,15.5,15.5,0,0,0,1.6-2.2,5.364,5.364,0,0,0,.811-2.441c0-.126.005-.253,0-.379a.822.822,0,0,0-.051-.156,5.307,5.307,0,0,0-3.561-3.688,1.684,1.684,0,0,0-.544-.108,1.027,1.027,0,0,0-.873.567" transform="translate(-97.681 -104.764)" fill="url(#linear-gradient-8)"/>
    </clipPath>
    <clipPath id="clip-path-17">
      <path id="Path_2945" data-name="Path 2945" d="M49.649,105.331a26.634,26.634,0,0,0-1.748,3.014,5.292,5.292,0,0,0-3.484-3.473,1.039,1.039,0,0,0-1.418.459,25.643,25.643,0,0,0-2.692,5.137,1.216,1.216,0,0,0,.507,1.627q1.5.975,3.021,1.931a1.2,1.2,0,0,0,1.781-.29,16.606,16.606,0,0,0,1.465-1.977,1.616,1.616,0,0,0,.383.336q1.5.975,3.021,1.931a1.2,1.2,0,0,0,1.78-.29,15.508,15.508,0,0,0,1.6-2.2,5.369,5.369,0,0,0,.811-2.441c0-.126.005-.253,0-.379a.791.791,0,0,0-.051-.156,5.306,5.306,0,0,0-3.56-3.688,1.684,1.684,0,0,0-.544-.108,1.026,1.026,0,0,0-.874.567" transform="translate(-40.183 -104.763)" fill="url(#linear-gradient-8)"/>
    </clipPath>
    <clipPath id="clip-path-18">
      <path id="Path_2946" data-name="Path 2946" d="M46.129,28.022A2.328,2.328,0,0,0,45.1,28.9a4.668,4.668,0,0,0-.684,1.955c-.106.761-.173,1.525-.259,2.31a.206.206,0,0,1-.168-.152,6.73,6.73,0,0,0-1.166-1.66,7.018,7.018,0,0,0-2.768-1.764.934.934,0,0,0-1.306.342,6.156,6.156,0,0,0-.941,1.943.55.55,0,0,0,.369.686,1.65,1.65,0,0,0,.664.134,2.059,2.059,0,0,0,.766-.191,1.775,1.775,0,0,1,2.145.426,4.646,4.646,0,0,1,.9,1.195,4.808,4.808,0,0,1,.359,2.968,17.074,17.074,0,0,0-.238,1.883c0,.072-.057.167.04.212s.2-.035.277-.083a2.2,2.2,0,0,0,.819-.982,14.5,14.5,0,0,0,1.315-4.2c.153-.913.166-1.836.256-2.753a1.442,1.442,0,0,1,.367-.935.744.744,0,0,1,.772-.209,2.2,2.2,0,0,1,1.372.836c.151.222.276.17.442.041a1.552,1.552,0,0,0,.6-1.328,1.912,1.912,0,0,0-1.9-1.782,2.534,2.534,0,0,0-1,.224" transform="translate(-37.784 -27.798)" fill="url(#linear-gradient-8)"/>
    </clipPath>
    <clipPath id="clip-path-19">
      <path id="Path_2947" data-name="Path 2947" d="M122.7,35.3a.331.331,0,0,1,.371-.376.376.376,0,1,1,0,.752.33.33,0,0,1-.371-.376m-.238-2.643a3.118,3.118,0,0,0,.13.813c.016.059.032.117.051.178q.152.485.314.971a1.047,1.047,0,0,0-.238.086q-.46-.865-.667-1.235c-.076-.136-.127-.224-.152-.26a.893.893,0,0,0-.714-.486q-.61,0-.609.657a.676.676,0,0,0,.007.088.987.987,0,0,0,.526.683q.171.114,1.438.713a1.429,1.429,0,0,0-.1.321q-.477-.171-.962-.331a3.1,3.1,0,0,0-.962-.189q-.724,0-.724.637,0,.618.724.618a3.347,3.347,0,0,0,.962-.173q.486-.163.962-.317a1.214,1.214,0,0,0,.1.288q-1.257.611-1.438.726a.977.977,0,0,0-.533.79q0,.638.609.638a.894.894,0,0,0,.714-.476q.124-.181.819-1.5a1.451,1.451,0,0,0,.257.088l-.324.971a3.209,3.209,0,0,0-.191.991q0,.667.609.667t.619-.667a12.193,12.193,0,0,0-.457-1.962.613.613,0,0,0,.2-.088q.657,1.276.8,1.5a.888.888,0,0,0,.705.476.556.556,0,0,0,.619-.638.978.978,0,0,0-.533-.79q-.162-.1-1.41-.726a1.472,1.472,0,0,0,.1-.288,10.512,10.512,0,0,0,1.914.49q.733,0,.733-.618,0-.637-.733-.637a3.116,3.116,0,0,0-.971.189q-.477.161-.943.331a1.654,1.654,0,0,0-.1-.321q1.266-.619,1.41-.713a1.011,1.011,0,0,0,.526-.683.61.61,0,0,0,.008-.088q0-.657-.619-.657a.888.888,0,0,0-.705.486c-.028.043-.078.13-.149.26-.137.251-.354.662-.651,1.235a.872.872,0,0,0-.257-.105q.162-.475.334-.952c.019-.062.035-.119.051-.178a3.119,3.119,0,0,0,.13-.813q0-.695-.619-.7t-.609.7" transform="translate(-119.798 -31.962)" fill="url(#linear-gradient-8)"/>
    </clipPath>
    <clipPath id="clip-path-20">
      <path id="Path_2948" data-name="Path 2948" d="M14.455,20.561a60.514,60.514,0,0,0-3.871,10.985c-1.3,5.745-1.815,10.438,3.685,12.913-3.644,4.9-7.048,10.16-7.2,15.427.268,5.827,5.768,7.313,8.97,1.828,1.473-2.423,2.515-5.331,1.314-7.8q-.8-1.4-1.657-1.4a3.519,3.519,0,0,0-.514,1.058Q14.355,55.6,13.927,55.6c-1-.268-1.411-2.059-1.4-3.257q0-3.171,3.085-7.542.257-.343.429-.6.971-1.514,2-3.257c1.369-2.722,2.039-3.534,2.2-5.713,0-.608-.434-.577-.888-.545a2.473,2.473,0,0,1-.483,0c-3.616-.242-4.468-2.109-4.514-5.142a42.185,42.185,0,0,1,1.429-7.771q.6-2.085,1.314-4.285.4-1.286-.087-1.314-.628,0-2.556,4.385" transform="translate(-7.07 -16.176)" fill="url(#linear-gradient-8)"/>
    </clipPath>
    <clipPath id="clip-path-21">
      <path id="Path_2949" data-name="Path 2949" d="M56.922,69.9q-.433.642-1.208,1.8a4.257,4.257,0,0,1-1.789,1.61c-1.7.833-3.372.346-5.337.179a6.048,6.048,0,0,0-4.234,1.7A25.31,25.31,0,0,0,38.3,83.6q-.567,1.4-.03,1.581.387.09,2.206-1.491A5.837,5.837,0,0,1,45.9,82.352c3.7.494,5.229-.071,7.842-3.041,1.414-1.569,4.443-7.16,4.323-9.332q0-.716-.387-.716-.328,0-.76.641" transform="translate(-38.01 -69.262)" fill="url(#linear-gradient-8)"/>
    </clipPath>
    <clipPath id="clip-path-22">
      <path id="Path_2950" data-name="Path 2950" d="M79.718,25.762l-2.971,6.779C75.361,35.836,75.6,41.63,75.118,45.1c-.413,3.847-.794,8.324-2.085,11.925q-.314,1-.114,1,.771-.11,2.028-2.477a34.742,34.742,0,0,0,2.2-5.146c1.937-5.94,1.766-14.283,2.656-20.71.123-.83.5-3.466.743-4.233q.143-.526-.228-.526-.229,0-.6.83m11.365-14.3A12.646,12.646,0,0,1,80.71,15.034a11.1,11.1,0,0,0-8.153,2.478,16.142,16.142,0,0,0-4.866,5.405q-.359.718-.283.822c.1.17.386.123.565.077a11.76,11.76,0,0,1,6-2.221,28.616,28.616,0,0,1,3.271-.006c.581.024,1.2.047,1.98.044,4.438-.206,6.741-1.855,9.963-5.007a20.2,20.2,0,0,0,2.452-2.991c.543-.9,2.793-3.938,1.707-4.25-.808.4-1.516,1.519-2.26,2.08" transform="translate(-67.395 -9.385)" fill="url(#linear-gradient-8)"/>
    </clipPath>
    <clipPath id="clip-path-23">
      <path id="Path_2951" data-name="Path 2951" d="M99.48,58.694h0v.257a13.944,13.944,0,0,0,1.028,6.428,4.143,4.143,0,0,0,3.6,2.6c5.014-.18,6.98-9.337,7.314-13.056q.086-.914-.372-.914-.4,0-.828,1.271a9.745,9.745,0,0,1-1.043,2.214,2.863,2.863,0,0,1-4.1.685q-1.914-1.428-1.914-5.028V51.816c.15-6.423,1.849-11.487.908-11.487h-.022c-3.2,0-4.234,14.16-4.571,18.365" transform="translate(-99.465 -40.329)" fill="url(#linear-gradient-8)"/>
    </clipPath>
    <clipPath id="clip-path-24">
      <rect id="Rectangle_706" data-name="Rectangle 706" width="119.485" height="76.325" fill="url(#linear-gradient-8)"/>
    </clipPath>
  </defs>
  <g id="Group_1746" data-name="Group 1746" transform="translate(-1565.587 -15.387)">
    <g id="Group_1030" data-name="Group 1030" transform="translate(1499.266 -94.579)">
      <path id="Path_2005" data-name="Path 2005" d="M317.429,77.89c-5.649-1.8-10.4-6.61-10.4-6.61v4.589l21.2,14.166a63.786,63.786,0,0,1,2.952-5.794c-3.358-3.664-9.716-5.063-13.75-6.351" transform="translate(-95.153 72.927)" fill="#ccc"/>
      <path id="Path_2006" data-name="Path 2006" d="M300.108,76.206v2.642l23.648,15.8c.2-.5.41-.993.625-1.488.082-.19.166-.38.25-.569Z" transform="translate(-91.557 70.368)" fill="#999"/>
      <path id="Path_2007" data-name="Path 2007" d="M359.65,93.532l26.435-17.725V71.279s-4.752,4.808-10.4,6.61c-3.9,1.245-10.42,2.719-14.075,6.181a60.861,60.861,0,0,0-4.182,7.977Z" transform="translate(-121.341 72.928)" fill="#ccc"/>
      <path id="Path_2008" data-name="Path 2008" d="M358.726,96.015,356.5,94.529c-.3.689-.586,1.38-.854,2.072l3.078,2.057L388.49,78.7V76.057Z" transform="translate(-120.418 70.445)" fill="#999"/>
      <path id="Path_2009" data-name="Path 2009" d="M372.209,87.32" transform="translate(-129.022 64.593)" fill="url(#linear-gradient-8)"/>
      <g id="Group_386" data-name="Group 386" transform="translate(224.592 109.966)">
        <g id="Group_385" data-name="Group 385" clip-path="url(#clip-path)">
          <rect id="Rectangle_635" data-name="Rectangle 635" width="57.548" height="32.901" transform="translate(-2.162 57.068) rotate(-89.153)" fill="url(#linear-gradient)"/>
        </g>
      </g>
      <g id="Group_388" data-name="Group 388" transform="translate(229.912 126.753)">
        <g id="Group_387" data-name="Group 387" clip-path="url(#clip-path-2)">
          <rect id="Rectangle_636" data-name="Rectangle 636" width="90.046" height="75.443" transform="matrix(0.367, -0.93, 0.93, 0.367, -26.202, 66.412)" fill="url(#linear-gradient-2)"/>
        </g>
      </g>
      <g id="Group_390" data-name="Group 390" transform="translate(195.67 124.251)">
        <g id="Group_389" data-name="Group 389" clip-path="url(#clip-path-3)">
          <rect id="Rectangle_637" data-name="Rectangle 637" width="96.285" height="76.941" transform="translate(-29.232 72.635) rotate(-68.469)" fill="url(#linear-gradient-2)"/>
        </g>
      </g>
      <path id="Path_2013" data-name="Path 2013" d="M346.638,47.541a10.863,10.863,0,0,0-2.3.281,8.65,8.65,0,0,0-3.965,1.969,6.848,6.848,0,0,0-1.927,3.02A7.567,7.567,0,0,0,338.1,55.1a7.771,7.771,0,0,0,.469,2.67,6.337,6.337,0,0,0,1.278,2.134,4.628,4.628,0,0,0,1.184.928,3.977,3.977,0,0,0,1.918.482,5.676,5.676,0,0,0,2.588-.694,9.58,9.58,0,0,0,1.247-.775,8.765,8.765,0,0,1-2.5-.567,7.218,7.218,0,0,1-1.27-.624l-.054-.036-.05-.042a5.451,5.451,0,0,1-1.515-2.081,6.4,6.4,0,0,1-.482-2.462,6.791,6.791,0,0,1,.43-2.378,6.132,6.132,0,0,1,1.3-2.086,6.727,6.727,0,0,1,2.435-1.61,7.581,7.581,0,0,1,1.561-.415" transform="translate(-111.298 85.262)" fill="#b1e01b"/>
      <path id="Path_2014" data-name="Path 2014" d="M366.46,10.867a29.365,29.365,0,0,1,6.079,10.17,28.6,28.6,0,0,1,1.588,9.415,29.672,29.672,0,0,1-.159,3.051,25.535,25.535,0,0,0,1.353-7.821,16.833,16.833,0,0,0-.893-5.543,15.523,15.523,0,0,0-2.306-4.305,20.033,20.033,0,0,0-5.662-4.968" transform="translate(-126.035 104.319)" fill="#b1e01b"/>
      <path id="Path_2015" data-name="Path 2015" d="M369.187,87.87" transform="translate(-127.452 64.307)" fill="url(#linear-gradient-8)"/>
      <g id="Group_394" data-name="Group 394" transform="translate(231.768 178.94)">
        <g id="Group_393" data-name="Group 393" clip-path="url(#clip-path-4)">
          <rect id="Rectangle_639" data-name="Rectangle 639" width="7.341" height="7.398" transform="matrix(0.73, -0.684, 0.684, 0.73, -2.908, 2.723)" fill="url(#linear-gradient-4)"/>
        </g>
      </g>
      <g id="Group_396" data-name="Group 396" transform="translate(209.268 178.06)">
        <g id="Group_395" data-name="Group 395" clip-path="url(#clip-path-5)">
          <rect id="Rectangle_640" data-name="Rectangle 640" width="23.284" height="22.976" transform="translate(-6.508 6.095) rotate(-43.122)" fill="url(#linear-gradient-4)"/>
        </g>
      </g>
      <g id="Group_398" data-name="Group 398" transform="translate(211.778 154.022)">
        <g id="Group_397" data-name="Group 397" clip-path="url(#clip-path-6)">
          <rect id="Rectangle_641" data-name="Rectangle 641" width="67.864" height="66.883" transform="translate(-21.179 17.326) rotate(-43.122)" fill="url(#linear-gradient-4)"/>
        </g>
      </g>
      <g id="Group_400" data-name="Group 400" transform="translate(240.247 154.015)">
        <g id="Group_399" data-name="Group 399" clip-path="url(#clip-path-7)">
          <rect id="Rectangle_642" data-name="Rectangle 642" width="35.039" height="34.852" transform="matrix(0.73, -0.684, 0.684, 0.73, -11.329, 10.61)" fill="url(#linear-gradient-4)"/>
        </g>
      </g>
      <path id="Path_2020" data-name="Path 2020" d="M297.265,79.807Z" transform="translate(-90.08 68.497)" fill="url(#linear-gradient-8)"/>
      <g id="Group_732" data-name="Group 732" transform="translate(66.321 123.206)">
        <g id="Group_733" data-name="Group 733" transform="translate(0.014 20.507)">
          <g id="Group_732-2" data-name="Group 732" transform="translate(0 0)" clip-path="url(#clip-path-8)">
            <rect id="Rectangle_689" data-name="Rectangle 689" width="39.581" height="28.281" transform="translate(-0.014 0.02)" fill="url(#linear-gradient-8)"/>
          </g>
        </g>
        <g id="Group_735" data-name="Group 735" transform="translate(55.853 12.054)">
          <g id="Group_734" data-name="Group 734" clip-path="url(#clip-path-9)">
            <rect id="Rectangle_691" data-name="Rectangle 691" width="64.321" height="48.403" transform="translate(-0.689 0)" fill="url(#linear-gradient-8)"/>
          </g>
        </g>
        <g id="Group_737" data-name="Group 737" transform="translate(63.824)">
          <g id="Group_736" data-name="Group 736" clip-path="url(#clip-path-10)">
            <rect id="Rectangle_692" data-name="Rectangle 692" width="34.558" height="28.26" transform="translate(-0.215)" fill="url(#linear-gradient-8)"/>
          </g>
        </g>
        <g id="Group_739" data-name="Group 739" transform="translate(69.951 3.765)">
          <g id="Group_738" data-name="Group 738" clip-path="url(#clip-path-11)">
            <rect id="Rectangle_693" data-name="Rectangle 693" width="17.728" height="13.903" transform="translate(-0.093 0)" fill="url(#linear-gradient-8)"/>
          </g>
        </g>
        <g id="Group_741" data-name="Group 741" transform="translate(75.596 27.46)">
          <g id="Group_740" data-name="Group 740" clip-path="url(#clip-path-12)">
            <rect id="Rectangle_694" data-name="Rectangle 694" width="24.905" height="18.967" transform="translate(-1.207 0)" fill="url(#linear-gradient-8)"/>
          </g>
        </g>
        <g id="Group_743" data-name="Group 743" transform="translate(98.656 26.567)">
          <g id="Group_742" data-name="Group 742" clip-path="url(#clip-path-13)">
            <rect id="Rectangle_695" data-name="Rectangle 695" width="16.473" height="20.772" transform="translate(-0.042)" fill="url(#linear-gradient-8)"/>
          </g>
        </g>
        <g id="Group_745" data-name="Group 745" transform="translate(110.355 12.99)">
          <g id="Group_744" data-name="Group 744" clip-path="url(#clip-path-14)">
            <rect id="Rectangle_696" data-name="Rectangle 696" width="7.997" height="9.702" transform="translate(-0.142 0)" fill="url(#linear-gradient-8)"/>
          </g>
        </g>
        <g id="Group_747" data-name="Group 747" transform="translate(96.129 17.758)">
          <g id="Group_746" data-name="Group 746" clip-path="url(#clip-path-15)">
            <rect id="Rectangle_697" data-name="Rectangle 697" width="8" height="9.703" transform="translate(-0.147 0)" fill="url(#linear-gradient-8)"/>
          </g>
        </g>
        <g id="Group_749" data-name="Group 749" transform="translate(46.691 50.076)">
          <g id="Group_748" data-name="Group 748" clip-path="url(#clip-path-16)">
            <rect id="Rectangle_698" data-name="Rectangle 698" width="7.999" height="9.703" transform="translate(-0.147 0)" fill="url(#linear-gradient-8)"/>
          </g>
        </g>
        <g id="Group_751" data-name="Group 751" transform="translate(19.207 50.076)">
          <g id="Group_750" data-name="Group 750" clip-path="url(#clip-path-17)">
            <rect id="Rectangle_699" data-name="Rectangle 699" width="14.65" height="9.823" transform="translate(-0.147 -0.12)" fill="url(#linear-gradient-8)"/>
          </g>
        </g>
        <g id="Group_753" data-name="Group 753" transform="translate(18.061 13.287)">
          <g id="Group_752" data-name="Group 752" clip-path="url(#clip-path-18)">
            <rect id="Rectangle_700" data-name="Rectangle 700" width="11.31" height="11.445" transform="translate(-0.06 0)" fill="url(#linear-gradient-8)"/>
          </g>
        </g>
        <g id="Group_755" data-name="Group 755" transform="translate(57.263 15.278)">
          <g id="Group_754" data-name="Group 754" clip-path="url(#clip-path-19)">
            <rect id="Rectangle_701" data-name="Rectangle 701" width="6.562" height="6.657" transform="translate(0 0)" fill="url(#linear-gradient-8)"/>
          </g>
        </g>
        <g id="Group_757" data-name="Group 757" transform="translate(3.379 7.732)">
          <g id="Group_756" data-name="Group 756" clip-path="url(#clip-path-20)">
            <rect id="Rectangle_702" data-name="Rectangle 702" width="13.174" height="51.023" transform="translate(0 0)" fill="url(#linear-gradient-8)"/>
          </g>
        </g>
        <g id="Group_759" data-name="Group 759" transform="translate(18.168 33.107)">
          <g id="Group_758" data-name="Group 758" clip-path="url(#clip-path-21)">
            <rect id="Rectangle_703" data-name="Rectangle 703" width="20.276" height="15.983" transform="translate(-0.097 0)" fill="url(#linear-gradient-8)"/>
          </g>
        </g>
        <g id="Group_761" data-name="Group 761" transform="translate(32.215 4.486)">
          <g id="Group_760" data-name="Group 760" clip-path="url(#clip-path-22)">
            <rect id="Rectangle_704" data-name="Rectangle 704" width="27.072" height="48.64" transform="translate(-0.038 0)" fill="url(#linear-gradient-8)"/>
          </g>
        </g>
        <g id="Group_763" data-name="Group 763" transform="translate(47.543 19.277)">
          <g id="Group_762" data-name="Group 762" clip-path="url(#clip-path-23)">
            <rect id="Rectangle_705" data-name="Rectangle 705" width="12.094" height="27.651" transform="translate(-0.08 -0.001)" fill="url(#linear-gradient-8)"/>
          </g>
        </g>
        <g id="Group_765" data-name="Group 765">
          <g id="Group_764" data-name="Group 764" clip-path="url(#clip-path-24)">
            <path id="Path_2952" data-name="Path 2952" d="M12.3,146.84a1.976,1.976,0,0,1-.682-.126,1.107,1.107,0,0,1-.566-.493,1.222,1.222,0,0,1-.358.45.688.688,0,0,1-.4.169,1.88,1.88,0,0,1-.469-.073q-.275-.072-.566-.179t-.566-.238q-.276-.13-.459-.237v.566c0,.158,0,.343,0,.556s.01.44.019.682.021.479.034.712l-1.026.513-.154-.1q-.02-.445-.024-.929t-.01-.929q-.005-.445,0-.8v-.537a1.5,1.5,0,0,1,.053-.4,1,1,0,0,1,.184-.358,1.186,1.186,0,0,1,.339-.285,1.472,1.472,0,0,1,.518-.169l.552-.852A2.309,2.309,0,0,1,9.1,143.3a1.719,1.719,0,0,1,.44-.3,2.009,2.009,0,0,1,.537-.16,6.279,6.279,0,0,1,.687-.068l.222.193q.058.252.116.562t.116.59q.058.28.111.5a1.322,1.322,0,0,0,.092.286.789.789,0,0,0,.29.174,1.809,1.809,0,0,0,.581.067Zm-2.158-2.612c-.148.013-.27.027-.363.043a.661.661,0,0,0-.251.1,1.011,1.011,0,0,0-.223.208,4.044,4.044,0,0,0-.266.377,3.4,3.4,0,0,0,.682.242,3.931,3.931,0,0,0,.643.1,3.37,3.37,0,0,0-.092-.586q-.072-.295-.13-.478" transform="translate(-3.691 -74.531)" fill="url(#linear-gradient-8)"/>
            <path id="Path_2953" data-name="Path 2953" d="M17.684,146.767c-.122,0-.2-.084-.237-.252a2.885,2.885,0,0,1-.053-.59,2.952,2.952,0,0,1,.053-.6c.035-.167.115-.251.237-.251h.967q.338,0,.6,0t.464-.014a3.463,3.463,0,0,0,.363-.034,2.3,2.3,0,0,0,.3-.063q-.049-.2-.121-.416c-.048-.142-.1-.284-.155-.426s-.113-.275-.174-.4-.115-.237-.16-.334l1.074-.745.184.077a6.071,6.071,0,0,1,.285.929,4.455,4.455,0,0,1,.1.958,2.81,2.81,0,0,1-.072.633,3.078,3.078,0,0,1-.194.581,2.29,2.29,0,0,1-.276.464,1.089,1.089,0,0,1-.31.286,5.185,5.185,0,0,1-1.906.2Zm.416.774.977.619.435-.619,1.064.668-.619,1.026-.977-.63-.435.63-1.064-.668Z" transform="translate(-9.08 -74.456)" fill="url(#linear-gradient-8)"/>
            <path id="Path_2954" data-name="Path 2954" d="M28.027,147.9a.778.778,0,0,1-.276-.092,3.488,3.488,0,0,1-.247,1.031,3.535,3.535,0,0,1-.406.73,1.9,1.9,0,0,1-.431.435.678.678,0,0,1-.319.145,1.118,1.118,0,0,1-.126-.01c-.052-.007-.134-.021-.247-.044l-.455-.092q-.285-.057-.74-.145v-.483a7.246,7.246,0,0,0,1.263-.885,3.436,3.436,0,0,0,.721-.857,7.784,7.784,0,0,0-.339-.967q-.232-.561-.484-1.112l1.132-.7.184.077q.145.436.222.7a1.205,1.205,0,0,0,.179.392.459.459,0,0,0,.266.169,2.229,2.229,0,0,0,.484.039v1.693a2.65,2.65,0,0,1-.382-.024" transform="translate(-12.936 -75.619)" fill="url(#linear-gradient-8)"/>
            <path id="Path_2955" data-name="Path 2955" d="M32.055,149.428c-.122,0-.2-.084-.237-.251a2.888,2.888,0,0,1-.053-.59,2.948,2.948,0,0,1,.053-.6c.035-.168.115-.252.237-.252h1.364v1.694Z" transform="translate(-16.582 -77.119)" fill="url(#linear-gradient-8)"/>
            <path id="Path_2956" data-name="Path 2956" d="M34.909,149.428c-.122,0-.2-.084-.237-.251a2.888,2.888,0,0,1-.053-.59,2.948,2.948,0,0,1,.053-.6c.035-.168.115-.252.237-.252h1.364v1.694Z" transform="translate(-18.071 -77.119)" fill="url(#linear-gradient-8)"/>
            <path id="Path_2957" data-name="Path 2957" d="M37.763,144.273c-.122,0-.2-.084-.237-.251a2.889,2.889,0,0,1-.053-.59,2.949,2.949,0,0,1,.053-.6c.035-.168.115-.252.237-.252h.929a7.451,7.451,0,0,0,1.587-.125,3.2,3.2,0,0,0-.793-1.05,14.948,14.948,0,0,0-1.471-1.195l.184-.967a3.192,3.192,0,0,1,.077-.329.547.547,0,0,1,.116-.212.505.505,0,0,1,.2-.136,2.625,2.625,0,0,1,.329-.1l2.835-.609.116.145-.193,1.239-2.274.435a6.61,6.61,0,0,1,.914.76,3.81,3.81,0,0,1,.546.687,2.341,2.341,0,0,1,.266.6,1.974,1.974,0,0,1,0,1.078,3.24,3.24,0,0,1-.194.532,2.214,2.214,0,0,1-.266.435.869.869,0,0,1-.3.257,5.079,5.079,0,0,1-1.925.242Z" transform="translate(-19.561 -71.963)" fill="url(#linear-gradient-8)"/>
            <path id="Path_2958" data-name="Path 2958" d="M54.191,145.7a4.707,4.707,0,0,1-.092,1.016,3.281,3.281,0,0,1-.15.532.823.823,0,0,1-.228.242,2.917,2.917,0,0,1-.547.338,4.38,4.38,0,0,1-.847.3,4.456,4.456,0,0,1-1.127.131,3.042,3.042,0,0,1-1.079-.16,1.546,1.546,0,0,1-.633-.421,1.386,1.386,0,0,1-.3-.6,3.159,3.159,0,0,1-.077-.706c0-.123.008-.3.024-.542s.034-.481.053-.726q.039-.426.087-.909l.948.048q-.019.445-.039.842-.019.338-.034.692t-.024.566a1.367,1.367,0,0,0,.5.179,3.731,3.731,0,0,0,.576.043q.252,0,.527-.024t.537-.073q.261-.048.5-.116a2.759,2.759,0,0,0,.421-.155q-.058-.377-.131-.75t-.154-.706q-.082-.334-.17-.624t-.164-.513l1.1-.687.174.038a9.005,9.005,0,0,1,.251,1.181,10.739,10.739,0,0,1,.1,1.558m-3.677-2.6.619-1.026,1.122.716-.677.978Z" transform="translate(-25.636 -74.16)" fill="url(#linear-gradient-8)"/>
            <path id="Path_2959" data-name="Path 2959" d="M59.952,135.912a3.328,3.328,0,0,1-.508-.039,3.761,3.761,0,0,1-.431-.087l-.271.561h-.1l-.629-.484q.2-.4.319-.644c.077-.164.143-.291.2-.382a.632.632,0,0,1,.15-.184.26.26,0,0,1,.155-.049,2.316,2.316,0,0,1,.459.073,4.19,4.19,0,0,0,.895.073,5.752,5.752,0,0,0,.663-.043,3.552,3.552,0,0,0,.74-.17l.048.068L61.4,135.69a3.225,3.225,0,0,1-.764.179,6.379,6.379,0,0,1-.687.044m-.29,6.531-.145-3.193c-.013-.193-.026-.368-.039-.522a3.4,3.4,0,0,0-.063-.435,3.12,3.12,0,0,0-.111-.392,3.2,3.2,0,0,0-.174-.391l1.016-1.016a3.538,3.538,0,0,1,.29.552,2.848,2.848,0,0,1,.16.532,3.926,3.926,0,0,1,.068.566q.014.295.014.643v3.367l-.822.387Z" transform="translate(-30.285 -70.23)" fill="url(#linear-gradient-8)"/>
            <path id="Path_2960" data-name="Path 2960" d="M65.809,147.9a.778.778,0,0,1-.276-.092,3.488,3.488,0,0,1-.247,1.031,3.535,3.535,0,0,1-.406.73,1.9,1.9,0,0,1-.431.435.677.677,0,0,1-.319.145,1.249,1.249,0,0,1-.13-.01q-.082-.01-.271-.049l-.513-.106q-.324-.068-.847-.174v-.484a6.917,6.917,0,0,0,1.4-.866,3.563,3.563,0,0,0,.779-.827,7.787,7.787,0,0,0-.339-.967q-.232-.561-.484-1.112l1.132-.7.184.077q.145.436.222.7a1.205,1.205,0,0,0,.179.392.459.459,0,0,0,.266.169,2.229,2.229,0,0,0,.484.039v1.693a2.65,2.65,0,0,1-.382-.024" transform="translate(-32.557 -75.619)" fill="url(#linear-gradient-8)"/>
            <path id="Path_2961" data-name="Path 2961" d="M70.047,149.428c-.122,0-.2-.084-.237-.251a2.889,2.889,0,0,1-.053-.59,2.949,2.949,0,0,1,.053-.6c.035-.168.115-.252.237-.252h1.364v1.694Z" transform="translate(-36.414 -77.119)" fill="url(#linear-gradient-8)"/>
            <path id="Path_2962" data-name="Path 2962" d="M72.9,149.428c-.122,0-.2-.084-.237-.251a2.888,2.888,0,0,1-.053-.59,2.949,2.949,0,0,1,.053-.6c.035-.168.115-.252.237-.252h1.364v1.694Z" transform="translate(-37.903 -77.119)" fill="url(#linear-gradient-8)"/>
            <path id="Path_2963" data-name="Path 2963" d="M75.755,142.825q-.184,0-.237-.251a2.886,2.886,0,0,1-.053-.59,2.948,2.948,0,0,1,.053-.6c.036-.167.115-.251.237-.251H76.8q.658,0,1.031-.034a4.407,4.407,0,0,0,.614-.092c-.006-.09-.01-.175-.01-.256a1.631,1.631,0,0,0-.019-.247,3.184,3.184,0,0,1-.547.111,6.432,6.432,0,0,1-.74.034,1.135,1.135,0,0,1-.779-.237.817.817,0,0,1-.266-.643,2.618,2.618,0,0,1,.063-.518q.063-.305.15-.639t.194-.662q.106-.329.194-.59l.213-.155a2.34,2.34,0,0,1,1.219.285,2.105,2.105,0,0,1,.745.75,3.128,3.128,0,0,1,.372,1.05,6.85,6.85,0,0,1,.1,1.176,3.446,3.446,0,0,1-.276,1.369,2.1,2.1,0,0,1-.276.469,1.105,1.105,0,0,1-.31.281,1.832,1.832,0,0,1-.648.179,9.317,9.317,0,0,1-1.219.063Zm.774-7.74.977.629.435-.629,1.064.668-.619,1.026-.977-.619-.435.619-1.064-.668Zm1.016,4.267q.164,0,.319-.014t.3-.034a1.32,1.32,0,0,0-.421-.532,1.271,1.271,0,0,0-.7-.213c-.039.11-.078.23-.117.363s-.067.247-.087.344a1.206,1.206,0,0,0,.276.068,3.621,3.621,0,0,0,.431.019" transform="translate(-39.393 -70.515)" fill="url(#linear-gradient-8)"/>
            <path id="Path_2964" data-name="Path 2964" d="M91.994,143.262q-.223-.136-.436-.271a.73.73,0,0,0-.29-.135.614.614,0,0,0-.309.1,1.643,1.643,0,0,0-.324.256,2.34,2.34,0,0,0-.3.372,2.2,2.2,0,0,0-.228.445.563.563,0,0,0,.184.068,2.715,2.715,0,0,0,.3.049c.119.013.248.025.387.038l.43.039a2.178,2.178,0,0,1,.576.111.721.721,0,0,1,.333.237.825.825,0,0,1,.151.377,3.684,3.684,0,0,1,.034.532,3.007,3.007,0,0,1-.034.43q-.034.227-.078.435c-.029.139-.058.261-.087.368a1.338,1.338,0,0,1-.073.218.807.807,0,0,1-.227.242,2.769,2.769,0,0,1-.562.339,4.723,4.723,0,0,1-.88.3,4.868,4.868,0,0,1-1.185.131,3.327,3.327,0,0,1-1.136-.16,1.62,1.62,0,0,1-.663-.421,1.308,1.308,0,0,1-.3-.6,3.4,3.4,0,0,1-.073-.706q0-.184.025-.542t.054-.726q.038-.425.087-.909l.948.048q-.019.445-.039.842-.019.338-.033.692c-.011.236-.019.424-.025.566a1.358,1.358,0,0,0,.489.179,4.257,4.257,0,0,0,.672.044,6.13,6.13,0,0,0,1.132-.1,6.7,6.7,0,0,0,1.006-.266c-.006-.032-.011-.06-.014-.082s-.008-.05-.014-.082c-.11-.013-.259-.028-.445-.044s-.387-.03-.6-.043a1.76,1.76,0,0,1-.963-.285.957.957,0,0,1-.295-.789,3.066,3.066,0,0,1,.228-1.161,4.119,4.119,0,0,1,.562-.991,3.044,3.044,0,0,1,.72-.687,1.321,1.321,0,0,1,.716-.256.581.581,0,0,1,.261.082,2.9,2.9,0,0,1,.329.208q.174.125.348.266c.116.094.223.183.32.266Z" transform="translate(-45.521 -73.844)" fill="url(#linear-gradient-8)"/>
            <path id="Path_2965" data-name="Path 2965" d="M100.574,143.627a1.094,1.094,0,0,1-.537-.339,1.519,1.519,0,0,1-.3-.662,4.946,4.946,0,0,1-.1-1.079v-1.983q0-.271-.019-.5a3.613,3.613,0,0,0-.063-.435,2.857,2.857,0,0,0-.121-.416q-.077-.208-.184-.44l1.016-.967a5.648,5.648,0,0,1,.261.6,3.329,3.329,0,0,1,.145.527,4.085,4.085,0,0,1,.063.542q.014.281.014.629v2.738a.373.373,0,0,0,.141.117.649.649,0,0,0,.174.053,1.724,1.724,0,0,0,.174.02c.055,0,.1,0,.141,0v1.693a2.878,2.878,0,0,1-.8-.1" transform="translate(-51.809 -71.414)" fill="url(#linear-gradient-8)"/>
            <path id="Path_2966" data-name="Path 2966" d="M105.174,145.684a1.931,1.931,0,0,1-.6.3,2.471,2.471,0,0,1-.755.111h-.435c-.122,0-.2-.084-.237-.252a2.915,2.915,0,0,1-.053-.59,2.98,2.98,0,0,1,.053-.6q.054-.252.237-.252h.387a.638.638,0,0,1,.126.01,1.044,1.044,0,0,1-.024-.179c0-.061-.005-.118-.005-.169a1.606,1.606,0,0,1,.16-.726,1.655,1.655,0,0,1,.412-.532l-.349-.126-.068-.193.378-1.132,1.741.629a6.292,6.292,0,0,1,1.026.46,2.871,2.871,0,0,1,.653.5,1.554,1.554,0,0,1,.348.551,1.868,1.868,0,0,1,.1.619,2.925,2.925,0,0,1-.194,1.031,4.658,4.658,0,0,1-.483.953Zm.174-2.487a.6.6,0,0,0-.247.077,1.073,1.073,0,0,0-.217.16.909.909,0,0,0-.16.2.682.682,0,0,0-.082.194.714.714,0,0,0,.164.368.813.813,0,0,0,.338.261.8.8,0,0,0,.382-.164.762.762,0,0,0,.276-.368.924.924,0,0,0-.121-.416.613.613,0,0,0-.334-.31m2.032,1.345a.794.794,0,0,0-.228-.586,1.98,1.98,0,0,0-.643-.4c.006.045.011.088.015.13s0,.089,0,.14a1.23,1.23,0,0,1-.068.387,1.6,1.6,0,0,1-.184.378l1.074.2a1.1,1.1,0,0,0,.03-.251" transform="translate(-53.816 -73.79)" fill="url(#linear-gradient-8)"/>
            <path id="Path_2967" data-name="Path 2967" d="M116.759,145.351a1.711,1.711,0,0,1-.634-.1.777.777,0,0,1-.368-.295,1.153,1.153,0,0,1-.169-.489,5.106,5.106,0,0,1-.039-.668,3.378,3.378,0,0,1,.068-.667,2.1,2.1,0,0,1,.145-.494,6.421,6.421,0,0,1,.581-.445q.387-.272.938-.619l-.116-.716.919-.474.164.107.445,3.212a.725.725,0,0,0,.251.126,2.032,2.032,0,0,0,.619.067v1.694a4.277,4.277,0,0,1-.566-.034,1.667,1.667,0,0,1-.464-.126,1.175,1.175,0,0,1-.373-.261,1.426,1.426,0,0,1-.281-.44c-.032.1-.061.176-.087.238s-.042.1-.048.111a.344.344,0,0,1-.164.141,1.2,1.2,0,0,1-.261.082,2.31,2.31,0,0,1-.295.039c-.1.007-.189.01-.266.01m-.048-1.548q.164,0,.411,0a4.455,4.455,0,0,0,.528-.044l-.184-1.113c-.123.071-.249.147-.377.228s-.249.16-.358.237-.207.147-.291.208a.726.726,0,0,0-.164.15q0,.223.092.281a.7.7,0,0,0,.344.058" transform="translate(-60.318 -73.284)" fill="url(#linear-gradient-8)"/>
            <path id="Path_2968" data-name="Path 2968" d="M122.93,147.54l.977.619.436-.619,1.064.668-.619,1.026-.977-.629-.435.629-1.064-.668Zm.165-.774q-.184,0-.238-.251a2.888,2.888,0,0,1-.053-.59,2.948,2.948,0,0,1,.053-.6q.053-.252.238-.252c.225,0,.425,0,.6,0s.329-.008.464-.014a3.65,3.65,0,0,0,.364-.033,2.492,2.492,0,0,0,.294-.063q-.049-.2-.121-.416t-.155-.425c-.055-.141-.113-.276-.174-.4s-.115-.237-.16-.334l1.074-.745.184.077a6.106,6.106,0,0,1,.285.929,4.49,4.49,0,0,1,.1.958,2.816,2.816,0,0,1-.073.634,3.049,3.049,0,0,1-.194.58,2.265,2.265,0,0,1-.276.464,1.088,1.088,0,0,1-.309.286,5.189,5.189,0,0,1-1.906.2" transform="translate(-63.847 -74.456)" fill="url(#linear-gradient-8)"/>
            <path id="Path_2969" data-name="Path 2969" d="M129.934,135.912a3.328,3.328,0,0,1-.508-.039,3.761,3.761,0,0,1-.431-.087l-.271.561h-.1l-.629-.484q.2-.4.319-.644c.077-.164.143-.291.2-.382a.632.632,0,0,1,.15-.184.26.26,0,0,1,.155-.049,2.317,2.317,0,0,1,.459.073,4.19,4.19,0,0,0,.895.073,5.751,5.751,0,0,0,.663-.043,3.551,3.551,0,0,0,.74-.17l.048.068-.242,1.084a3.225,3.225,0,0,1-.764.179,6.379,6.379,0,0,1-.687.044m-.29,6.531-.145-3.193c-.013-.193-.026-.368-.039-.522a3.4,3.4,0,0,0-.063-.435,3.12,3.12,0,0,0-.111-.392,3.2,3.2,0,0,0-.174-.391l1.016-1.016a3.539,3.539,0,0,1,.29.552,2.848,2.848,0,0,1,.16.532,3.931,3.931,0,0,1,.068.566q.014.295.014.643v3.367l-.822.387Z" transform="translate(-66.816 -70.23)" fill="url(#linear-gradient-8)"/>
            <path id="Path_2970" data-name="Path 2970" d="M140.2,143.723q-.484,0-1.122-.019t-1.248-.077l-.726-1.5.1-.194.465.034c.142.01.281.021.416.034l.764-.648a1.261,1.261,0,0,0,.179-.2.486.486,0,0,0,.073-.285c0-.026,0-.087,0-.184s-.008-.211-.015-.343-.011-.268-.014-.407-.008-.262-.014-.372q-.02-.329-.039-.561a3.925,3.925,0,0,0-.058-.426,3.233,3.233,0,0,0-.1-.382q-.063-.189-.15-.421l1.016-.967a5.792,5.792,0,0,1,.261.6,3.391,3.391,0,0,1,.145.527,4.1,4.1,0,0,1,.063.542q.014.28.014.629c0,.31,0,.555-.014.736a3.369,3.369,0,0,1-.053.464q.377-.31.614-.493c.158-.123.287-.216.387-.281a1.176,1.176,0,0,1,.237-.126.505.505,0,0,1,.155-.029,1.074,1.074,0,0,1,.561.169,1.891,1.891,0,0,1,.508.459,2.479,2.479,0,0,1,.368.668,2.208,2.208,0,0,1,.082,1.277.907.907,0,0,0,.315.073q.189.014.45.014h.116v1.694h-.116a2.284,2.284,0,0,1-.315-.024,1.334,1.334,0,0,1-.329-.092,1.3,1.3,0,0,1-.315-.194,1.164,1.164,0,0,1-.271-.329,1.4,1.4,0,0,1-.188.222.713.713,0,0,1-.218.145,2.891,2.891,0,0,1-.769.2,8.682,8.682,0,0,1-1.2.068m.9-2.9a.431.431,0,0,0-.145.039,1.9,1.9,0,0,0-.295.169q-.2.13-.527.368t-.842.633h1.567q.271,0,.46,0t.324-.014a1.849,1.849,0,0,0,.232-.029c.065-.013.132-.029.2-.049a1.582,1.582,0,0,0-.184-.416,2.289,2.289,0,0,0-.271-.358,1.533,1.533,0,0,0-.291-.247.484.484,0,0,0-.232-.092m-.465-2.554.619-1.026,1.122.716-.678.978Z" transform="translate(-71.571 -71.413)" fill="url(#linear-gradient-8)"/>
            <path id="Path_2971" data-name="Path 2971" d="M151.06,149.428c-.122,0-.2-.084-.237-.251a2.889,2.889,0,0,1-.053-.59,2.949,2.949,0,0,1,.053-.6c.035-.168.115-.252.237-.252h1.364v1.694Z" transform="translate(-78.703 -77.119)" fill="url(#linear-gradient-8)"/>
            <path id="Path_2972" data-name="Path 2972" d="M153.914,149.428c-.122,0-.2-.084-.237-.251a2.888,2.888,0,0,1-.053-.59,2.949,2.949,0,0,1,.053-.6c.035-.168.115-.252.237-.252h1.364v1.694Z" transform="translate(-80.193 -77.119)" fill="url(#linear-gradient-8)"/>
            <path id="Path_2973" data-name="Path 2973" d="M159.719,144.04a2.046,2.046,0,0,1-.764-.116,1.367,1.367,0,0,1-.5-.368.919.919,0,0,1-.232.242,1.372,1.372,0,0,1-.484.184,2.95,2.95,0,0,1-.58.058h-.387c-.122,0-.2-.084-.237-.251a2.885,2.885,0,0,1-.053-.59,2.948,2.948,0,0,1,.053-.6c.035-.167.115-.251.237-.251h.522a1.4,1.4,0,0,1-.068-.426,2.156,2.156,0,0,1,.029-.328,1.794,1.794,0,0,1,.16-.46,6.441,6.441,0,0,1,.392-.682q.261-.406.735-1.006l.232-.049a7,7,0,0,1,.779.435,2.6,2.6,0,0,1,.484.4,1.127,1.127,0,0,1,.247.416,1.646,1.646,0,0,1,.067.489,2.2,2.2,0,0,1-.082.561,2.236,2.236,0,0,1-.3.648h.774v1.693Zm-1.935-5.6.619-1.025,1.122.716-.677.977Zm.339,3.183a.717.717,0,0,0,.285.45,1.444,1.444,0,0,0,.537.276,1.4,1.4,0,0,0,.261-.334.657.657,0,0,0,.077-.3.591.591,0,0,0-.024-.169.494.494,0,0,0-.1-.174,1.169,1.169,0,0,0-.223-.194,3.957,3.957,0,0,0-.377-.228q-.165.2-.281.368a1,1,0,0,0-.155.31" transform="translate(-81.683 -71.731)" fill="url(#linear-gradient-8)"/>
            <path id="Path_2974" data-name="Path 2974" d="M165.067,146.449c-.122,0-.2-.084-.237-.251a2.889,2.889,0,0,1-.053-.59,2.949,2.949,0,0,1,.053-.6c.035-.168.115-.252.237-.252h.619q.744,0,1.161-.019a1.238,1.238,0,0,0,.619-.155q.174-.106.416-.281t.581-.455l-.532-.155c-.181-.052-.348-.1-.5-.135s-.292-.071-.411-.1a1.433,1.433,0,0,0-.257-.038,1,1,0,0,0-.29.038v.668l-.687.387-.145-.1c-.019-.219-.031-.39-.034-.512s0-.258,0-.406q0-.29.01-.479a2.655,2.655,0,0,1,.029-.3.715.715,0,0,1,.043-.164.26.26,0,0,1,.043-.073c.013-.013.05-.044.111-.092a1.954,1.954,0,0,1,.232-.155,1.7,1.7,0,0,1,.329-.145,1.257,1.257,0,0,1,.4-.063,2.671,2.671,0,0,1,.561.082q.358.082.837.217t1.059.329q.581.194,1.238.407l.039.193-.58,1.016q-.2.019-.339.043a.8.8,0,0,0-.285.121,2.21,2.21,0,0,0-.348.295q-.2.2-.527.556a4.835,4.835,0,0,1-.615.59,2.7,2.7,0,0,1-.586.353,2.325,2.325,0,0,1-.638.174,6.021,6.021,0,0,1-.774.044Z" transform="translate(-86.015 -74.14)" fill="url(#linear-gradient-8)"/>
            <path id="Path_2975" data-name="Path 2975" d="M183.533,149.323q.009.058.014.116c0,.039.005.081.005.126a2.616,2.616,0,0,1-.073.624,1.431,1.431,0,0,1-.13.382,1.324,1.324,0,0,1-.261.247,3.188,3.188,0,0,1-.566.344,4.652,4.652,0,0,1-.837.3,4.164,4.164,0,0,1-1.084.13,3.02,3.02,0,0,1-1.079-.16,1.547,1.547,0,0,1-.634-.42,1.348,1.348,0,0,1-.295-.6,3.375,3.375,0,0,1-.073-.707c0-.122.008-.3.024-.542s.034-.48.053-.726q.039-.426.087-.91l.948.049q-.019.445-.039.842-.019.338-.034.692t-.024.566a1.25,1.25,0,0,0,.44.179,3.428,3.428,0,0,0,.624.044q.261,0,.542-.025a5.089,5.089,0,0,0,.551-.077q.271-.053.518-.126a2.994,2.994,0,0,0,.431-.16.529.529,0,0,1-.014-.083.188.188,0,0,0-.015-.062,1.05,1.05,0,0,0-.315-.087q-.2-.029-.45-.043t-.542-.024q-.29-.01-.59-.03l-.048-.125q.1-.349.194-.668a1.606,1.606,0,0,1,.174-.426.82.82,0,0,1,.126-.15.549.549,0,0,1,.213-.107,2,2,0,0,1,.4-.062q.252-.02.668-.02h1.354v1.693Z" transform="translate(-93.189 -77.013)" fill="url(#linear-gradient-8)"/>
            <path id="Path_2976" data-name="Path 2976" d="M190.953,143.573a1.016,1.016,0,0,1-.392-.4,1.365,1.365,0,0,1-.242.29.723.723,0,0,1-.155.106,1.963,1.963,0,0,1-.561.136q-.261.019-.368.019-.184,0-.237-.251a2.887,2.887,0,0,1-.053-.59,2.948,2.948,0,0,1,.053-.6q.054-.252.237-.252h.15c.061,0,.129,0,.2-.01s.148-.016.223-.029a1.037,1.037,0,0,0,.208-.058l-.087-2.37q-.01-.329-.034-.561a3.719,3.719,0,0,0-.068-.426q-.044-.194-.106-.382c-.042-.126-.092-.266-.15-.421l1.016-.967a5.716,5.716,0,0,1,.261.6,3.362,3.362,0,0,1,.145.527,4.068,4.068,0,0,1,.063.542q.014.28.014.629v2.69a.4.4,0,0,0,.281.194,1.546,1.546,0,0,0,.348.048v1.694a1.511,1.511,0,0,1-.75-.15" transform="translate(-98.631 -71.414)" fill="url(#linear-gradient-8)"/>
            <path id="Path_2977" data-name="Path 2977" d="M197.716,146.84a1.928,1.928,0,0,1-.431-.063,5.777,5.777,0,0,1-.561-.164,5.853,5.853,0,0,1-.576-.232,3.123,3.123,0,0,1-.474-.266,2.285,2.285,0,0,1-.586.547,1.31,1.31,0,0,1-.692.179q-.184,0-.237-.251a2.889,2.889,0,0,1-.053-.59,2.948,2.948,0,0,1,.053-.6q.054-.252.237-.252a2.1,2.1,0,0,0,.609-.072,1.029,1.029,0,0,0,.407-.237,2.129,2.129,0,0,0,.334-.421q.159-.257.392-.624a2.309,2.309,0,0,1,.387-.489,1.719,1.719,0,0,1,.44-.3,2.01,2.01,0,0,1,.537-.16,6.279,6.279,0,0,1,.687-.068l.213.2a12.864,12.864,0,0,1,.295,1.268,5.726,5.726,0,0,1,.1.948,1.816,1.816,0,0,1-.107.624,2.209,2.209,0,0,1-.266.522,1.5,1.5,0,0,1-.348.363.627.627,0,0,1-.363.136m-.155-2.612c-.148.013-.271.027-.368.043a.713.713,0,0,0-.261.1.89.89,0,0,0-.222.208q-.107.135-.261.377a2.67,2.67,0,0,0,.624.228,3.9,3.9,0,0,0,.711.111,3.369,3.369,0,0,0-.092-.586q-.072-.295-.13-.478" transform="translate(-101.325 -74.531)" fill="url(#linear-gradient-8)"/>
            <path id="Path_2978" data-name="Path 2978" d="M217.822,143.829a2.244,2.244,0,0,1-.44-.038.992.992,0,0,1-.334-.131,1.024,1.024,0,0,1-.266-.251,2.093,2.093,0,0,1-.228-.392c-.071.135-.13.244-.179.324a1.762,1.762,0,0,1-.13.194.494.494,0,0,1-.111.107c-.035.022-.072.043-.111.063a.96.96,0,0,1-.285.1,1.84,1.84,0,0,1-.3.024,1.134,1.134,0,0,1-.653-.169,1.58,1.58,0,0,1-.469-.643c-.071.135-.131.244-.179.324a1.757,1.757,0,0,1-.131.194.494.494,0,0,1-.111.107c-.035.022-.072.043-.111.063a.948.948,0,0,1-.3.1,2.344,2.344,0,0,1-.343.024,1.115,1.115,0,0,1-.484-.1,5.3,5.3,0,0,1-.1.847,2.383,2.383,0,0,1-.145.508,1.011,1.011,0,0,1-.237.241,2.872,2.872,0,0,1-.546.339,4.378,4.378,0,0,1-1.964.435,3.018,3.018,0,0,1-1.079-.16,1.543,1.543,0,0,1-.634-.42,1.392,1.392,0,0,1-.3-.6,3.165,3.165,0,0,1-.077-.707c0-.122.008-.3.024-.542s.034-.48.054-.726q.039-.425.087-.91l.948.049c-.013.2-.024.408-.034.624s-.02.421-.029.614-.018.366-.024.518-.01.266-.01.344a1.346,1.346,0,0,0,.5.179,3.607,3.607,0,0,0,.576.044c.168,0,.343-.008.527-.024s.363-.04.537-.072.34-.071.5-.117a2.753,2.753,0,0,0,.421-.155c-.039-.251-.082-.5-.13-.749s-.1-.484-.155-.706-.111-.431-.169-.625-.113-.364-.164-.513l1.1-.686.174.039c.077.283.141.529.193.735a2.106,2.106,0,0,0,.155.455.517.517,0,0,0,.213.111,1.043,1.043,0,0,0,.271.034c.1,0,.2-.005.3-.015a1.329,1.329,0,0,0,.3-.063l.29-1.325h.919v.774a.729.729,0,0,0,.135.445.482.482,0,0,0,.416.184c.038,0,.093,0,.164-.005a1.049,1.049,0,0,0,.242-.043l.319-1.6h.967v1.016a.694.694,0,0,0,.145.445.579.579,0,0,0,.483.184Zm-4.363-5.273.977.629.435-.629,1.064.668-.619,1.025-.977-.619-.435.619-1.064-.668Zm.493-1.548,1.064.668L214.4,138.7l-1.122-.716Z" transform="translate(-108.351 -71.519)" fill="url(#linear-gradient-8)"/>
            <path id="Path_2979" data-name="Path 2979" d="M228,147.54l.977.619.435-.619,1.065.668-.62,1.026-.977-.629-.435.629-1.064-.668Zm.164-.774c-.122,0-.2-.084-.237-.251a2.889,2.889,0,0,1-.053-.59,2.949,2.949,0,0,1,.053-.6c.035-.168.115-.252.237-.252q.338,0,.6,0t.464-.014a3.624,3.624,0,0,0,.363-.033,2.477,2.477,0,0,0,.295-.063q-.049-.2-.121-.416t-.155-.425c-.055-.141-.113-.276-.174-.4s-.115-.237-.16-.334l1.074-.745.184.077a6,6,0,0,1,.285.929,4.459,4.459,0,0,1,.1.958,2.814,2.814,0,0,1-.073.634,3.05,3.05,0,0,1-.194.58,2.266,2.266,0,0,1-.276.464,1.083,1.083,0,0,1-.31.286,5.186,5.186,0,0,1-1.906.2" transform="translate(-118.696 -74.456)" fill="url(#linear-gradient-8)"/>
            <path id="Path_2980" data-name="Path 2980" d="M237.061,147.052a1.919,1.919,0,0,1-.44-.049.949.949,0,0,1-.368-.169.884.884,0,0,1-.256-.314,1.078,1.078,0,0,1-.1-.484,3.047,3.047,0,0,1,.073-.571q.073-.358.179-.745t.222-.76q.116-.372.213-.624l.213-.155a2.605,2.605,0,0,1,1,.208,2.162,2.162,0,0,1,.7.488,2.423,2.423,0,0,1,.45.687,3.745,3.745,0,0,1,.247.794h.629v1.694h-.58a3.309,3.309,0,0,1-.319,1.011,3.244,3.244,0,0,1-.474.692,2.053,2.053,0,0,1-.474.4.8.8,0,0,1-.31.126c-.032,0-.08,0-.145-.01s-.164-.023-.3-.048l-.546-.107q-.343-.067-.866-.174v-.484a8.656,8.656,0,0,0,1.48-.692,5.483,5.483,0,0,0,1.084-.808.29.29,0,0,0,0-.048.344.344,0,0,1,0-.058,3.9,3.9,0,0,1-.571.145,4.086,4.086,0,0,1-.726.058m.339-1.548a3.417,3.417,0,0,0,.358-.019l.348-.039a1.543,1.543,0,0,0-.4-.6,1.094,1.094,0,0,0-.711-.261c-.02.052-.042.113-.068.184s-.052.147-.077.227-.048.158-.068.232a1.6,1.6,0,0,0-.039.189,1.459,1.459,0,0,0,.658.087" transform="translate(-123.091 -74.742)" fill="url(#linear-gradient-8)"/>
            <path id="Path_2981" data-name="Path 2981" d="M243.183,147.541l.977.619.435-.619,1.064.668-.619,1.025-.977-.629-.435.629-1.065-.668Zm.164-.774c-.122,0-.2-.084-.237-.251a2.887,2.887,0,0,1-.053-.59,2.95,2.95,0,0,1,.053-.6c.035-.167.115-.251.237-.251q.338,0,.6,0t.464-.015a3.628,3.628,0,0,0,.363-.033,2.307,2.307,0,0,0,.295-.063c-.032-.136-.073-.274-.121-.416s-.1-.284-.155-.426-.113-.276-.174-.4-.115-.238-.16-.334l1.074-.745.184.077a5.986,5.986,0,0,1,.285.929,4.455,4.455,0,0,1,.1.957,2.816,2.816,0,0,1-.073.634,3.059,3.059,0,0,1-.194.581,2.29,2.29,0,0,1-.276.464,1.089,1.089,0,0,1-.31.286,5.2,5.2,0,0,1-1.906.2m1.2,4.015-1.064-.667.619-1.026,1.122.716Z" transform="translate(-126.62 -74.456)" fill="url(#linear-gradient-8)"/>
          </g>
        </g>
      </g>
    </g>
    <path id="Path_3127" data-name="Path 3127" d="M317.429,77.89c-5.649-1.8-10.4-6.61-10.4-6.61v4.589l21.2,14.166a63.786,63.786,0,0,1,2.952-5.794c-3.358-3.664-9.716-5.063-13.75-6.351" transform="translate(1404.113 -21.652)" fill="#ccc"/>
    <path id="Path_3128" data-name="Path 3128" d="M300.108,76.206v2.642l23.648,15.8c.2-.5.41-.993.625-1.488.082-.19.166-.38.25-.569Z" transform="translate(1407.709 -24.211)" fill="#999"/>
    <path id="Path_3129" data-name="Path 3129" d="M359.65,93.532l26.435-17.725V71.279s-4.752,4.808-10.4,6.61c-3.9,1.245-10.42,2.719-14.075,6.181a60.861,60.861,0,0,0-4.182,7.977Z" transform="translate(1377.925 -21.651)" fill="#ccc"/>
    <path id="Path_3131" data-name="Path 3131" d="M372.209,87.32" transform="translate(1370.244 -29.986)" fill="url(#linear-gradient-8)"/>
    <g id="Group_1044" data-name="Group 1044" transform="translate(1723.858 15.387)">
      <g id="Group_385-2" data-name="Group 385" clip-path="url(#clip-path)">
        <rect id="Rectangle_635-2" data-name="Rectangle 635" width="57.548" height="32.901" transform="translate(-2.162 57.068) rotate(-89.153)" fill="url(#linear-gradient)"/>
      </g>
    </g>
    <g id="Group_1046" data-name="Group 1046" transform="translate(1694.937 29.672)">
      <g id="Group_389-2" data-name="Group 389" clip-path="url(#clip-path-3)">
        <rect id="Rectangle_637-2" data-name="Rectangle 637" width="96.285" height="76.941" transform="translate(-29.232 72.635) rotate(-68.469)" fill="url(#linear-gradient-2)"/>
      </g>
    </g>
    <path id="Path_3132" data-name="Path 3132" d="M346.638,47.541a10.863,10.863,0,0,0-2.3.281,8.65,8.65,0,0,0-3.965,1.969,6.848,6.848,0,0,0-1.927,3.02A7.567,7.567,0,0,0,338.1,55.1a7.771,7.771,0,0,0,.469,2.67,6.337,6.337,0,0,0,1.278,2.134,4.628,4.628,0,0,0,1.184.928,3.977,3.977,0,0,0,1.918.482,5.676,5.676,0,0,0,2.588-.694,9.58,9.58,0,0,0,1.247-.775,8.765,8.765,0,0,1-2.5-.567,7.218,7.218,0,0,1-1.27-.624l-.054-.036-.05-.042a5.451,5.451,0,0,1-1.515-2.081,6.4,6.4,0,0,1-.482-2.462,6.791,6.791,0,0,1,.43-2.378,6.132,6.132,0,0,1,1.3-2.086,6.727,6.727,0,0,1,2.435-1.61,7.581,7.581,0,0,1,1.561-.415" transform="translate(1387.968 -9.316)" fill="#b1e01b"/>
    <path id="Path_3133" data-name="Path 3133" d="M366.46,10.867a29.365,29.365,0,0,1,6.079,10.17,28.6,28.6,0,0,1,1.588,9.415,29.672,29.672,0,0,1-.159,3.051,25.535,25.535,0,0,0,1.353-7.821,16.833,16.833,0,0,0-.893-5.543,15.523,15.523,0,0,0-2.306-4.305,20.033,20.033,0,0,0-5.662-4.968" transform="translate(1373.231 9.74)" fill="#b1e01b"/>
    <path id="Path_3134" data-name="Path 3134" d="M369.187,87.87" transform="translate(1371.814 -30.272)" fill="url(#linear-gradient-8)"/>
    <g id="Group_1047" data-name="Group 1047" transform="translate(1731.034 84.362)">
      <g id="Group_393-2" data-name="Group 393" clip-path="url(#clip-path-4)">
        <rect id="Rectangle_639-2" data-name="Rectangle 639" width="7.341" height="7.398" transform="matrix(0.73, -0.684, 0.684, 0.73, -2.908, 2.723)" fill="url(#linear-gradient-4)"/>
      </g>
    </g>
    <g id="Group_1048" data-name="Group 1048" transform="translate(1708.534 83.481)">
      <g id="Group_395-2" data-name="Group 395" clip-path="url(#clip-path-5)">
        <rect id="Rectangle_640-2" data-name="Rectangle 640" width="23.284" height="22.976" transform="translate(-6.508 6.095) rotate(-43.122)" fill="url(#linear-gradient-4)"/>
      </g>
    </g>
    <g id="Group_1049" data-name="Group 1049" transform="translate(1711.044 59.443)">
      <g id="Group_397-2" data-name="Group 397" clip-path="url(#clip-path-6)">
        <rect id="Rectangle_641-2" data-name="Rectangle 641" width="67.864" height="66.883" transform="translate(-21.179 17.326) rotate(-43.122)" fill="url(#linear-gradient-4)"/>
      </g>
    </g>
    <g id="Group_1050" data-name="Group 1050" transform="translate(1739.513 59.436)">
      <g id="Group_399-2" data-name="Group 399" clip-path="url(#clip-path-7)">
        <rect id="Rectangle_642-2" data-name="Rectangle 642" width="35.039" height="34.852" transform="matrix(0.73, -0.684, 0.684, 0.73, -11.329, 10.61)" fill="url(#linear-gradient-4)"/>
      </g>
    </g>
    <path id="Path_3135" data-name="Path 3135" d="M297.265,79.807Z" transform="translate(1409.187 -26.082)" fill="url(#linear-gradient-8)"/>
  </g>
</svg>
