<svg width="356" height="76" viewBox="0 0 356 76" fill="none" xmlns="http://www.w3.org/2000/svg">
<path d="M107.914 22.22C105.914 22.2067 104.3 22.0133 103.074 21.64C101.847 21.2667 100.934 20.6 100.334 19.64C99.9071 18.96 99.6938 18.14 99.6938 17.18C99.6938 15.8867 100.1 14.3067 100.914 12.44L104.314 13.88L104.214 14.32C103.947 15.4133 103.8 16.06 103.774 16.26C104.667 16.5133 106.08 16.64 108.014 16.64C108.934 16.64 109.787 16.6 110.574 16.52C111.374 16.4267 111.967 16.3133 112.354 16.18C112.127 15.6467 111.92 15.18 111.734 14.78L111.114 13.4L114.634 11.46C115.007 12.22 115.354 13.1267 115.674 14.18C115.994 15.2333 116.154 16.1667 116.154 16.98C116.154 17.9533 115.814 18.84 115.134 19.64C114.467 20.4267 113.52 21.0533 112.294 21.52C111.08 21.9733 109.687 22.2067 108.114 22.22H107.994H107.914ZM105.794 8.48L107.734 10.42C108.054 10.0867 108.547 9.6 109.214 8.96L109.714 8.48L111.774 10.56L110.214 12.14L109.714 12.66L107.734 10.7C107.294 11.1267 106.647 11.78 105.794 12.66L103.674 10.56L105.794 8.48ZM123.27 22C121.603 22 120.323 21.54 119.43 20.62C118.537 19.6867 118.083 18.28 118.07 16.4C118.003 12.9333 117.75 9.94667 117.31 7.44L121.59 6.44C121.817 7.50667 122.003 8.90667 122.15 10.64C122.31 12.36 122.39 13.9533 122.39 15.42C122.39 15.7533 122.457 16.0067 122.59 16.18C122.723 16.34 122.997 16.42 123.41 16.42H123.73L124.01 19.22L123.73 22H123.27ZM123.486 16.42H124.066H124.386C124.373 16.3 124.366 16.12 124.366 15.88C124.366 15.64 124.373 15.4667 124.386 15.36C124.506 14.4 124.78 13.5333 125.206 12.76C125.633 11.9867 126.16 11.38 126.786 10.94C127.426 10.5 128.113 10.28 128.846 10.28C129.673 10.28 130.393 10.5267 131.006 11.02C131.633 11.5 132.106 12.12 132.426 12.88C132.746 13.6267 132.906 14.3867 132.906 15.16C132.906 15.4933 132.88 15.7867 132.826 16.04L132.746 16.42H133.766L134.086 19.1L133.766 22H131.886C130.686 22 129.546 21.7733 128.466 21.32C127.32 21.7733 126.093 22 124.786 22H123.486V16.42ZM126.906 5.62L128.846 7.56C129.166 7.22667 129.66 6.74 130.326 6.1L130.826 5.62L132.886 7.7L131.326 9.28L130.826 9.8L128.846 7.84C128.406 8.26667 127.76 8.92 126.906 9.8L124.786 7.7L126.906 5.62ZM127.866 15.42C128.026 15.7133 128.286 15.94 128.646 16.1C129.02 15.9933 129.266 15.8267 129.386 15.6C129.426 15.4133 129.38 15.2133 129.246 15C129.126 14.7867 128.92 14.68 128.626 14.68C128.413 14.68 128.24 14.76 128.106 14.92C127.973 15.08 127.893 15.2467 127.866 15.42ZM133.584 16.42H134.084C134.484 16.42 134.937 16.3933 135.444 16.34C135.964 16.2867 136.297 16.2333 136.444 16.18L135.204 13.4L138.724 11.46C139.097 12.2067 139.437 13.1133 139.744 14.18C140.064 15.2333 140.224 16.1667 140.224 16.98C140.224 18.5133 139.79 19.7333 138.924 20.64C138.057 21.5467 136.797 22 135.144 22H133.584V16.42ZM135.064 23.38L137.324 25.64L135.064 27.92L132.784 25.64L135.064 23.38ZM147.352 22C145.685 22 144.405 21.54 143.512 20.62C142.619 19.6867 142.165 18.28 142.152 16.4C142.085 12.9333 141.832 9.94667 141.392 7.44L145.672 6.44C145.899 7.50667 146.085 8.90667 146.232 10.64C146.392 12.36 146.472 13.9533 146.472 15.42C146.472 15.7533 146.539 16.0067 146.672 16.18C146.805 16.34 147.079 16.42 147.492 16.42H147.812L148.092 19.22L147.812 22H147.352ZM166.608 22C165.022 22 163.795 21.4467 162.928 20.34C162.515 20.8867 162.055 21.3 161.548 21.58C161.042 21.86 160.582 22 160.168 22H160.048H159.968C159.302 21.9867 158.722 21.8467 158.228 21.58C157.748 21.3 157.382 20.9533 157.128 20.54C156.848 20.94 156.482 21.28 156.028 21.56C155.588 21.84 155.115 21.9867 154.608 22H154.508H154.468C153.735 21.9867 153.095 21.8267 152.548 21.52C152.002 21.2 151.595 20.8267 151.328 20.4C150.968 20.8267 150.442 21.2 149.748 21.52C149.055 21.84 148.382 22 147.728 22H147.548L147.408 19.24L147.548 16.42H147.708C148.175 16.42 148.628 16.3467 149.068 16.2C149.522 16.04 149.848 15.8333 150.048 15.58C150.448 15.0467 150.735 14.4067 150.908 13.66L153.908 14L153.688 15.28C153.688 15.28 153.635 15.5467 153.528 16.08C153.595 16.2533 153.722 16.3867 153.908 16.48C154.108 16.5733 154.315 16.62 154.528 16.62C155.035 16.62 155.415 16.3 155.668 15.66C155.842 15.1533 155.995 14.5067 156.128 13.72L159.168 13.9C159.102 14.8067 159.035 15.5333 158.968 16.08C159.062 16.2533 159.208 16.3867 159.408 16.48C159.622 16.5733 159.848 16.62 160.088 16.62C160.328 16.62 160.568 16.5733 160.808 16.48C161.062 16.3733 161.235 16.2067 161.328 15.98L160.768 13.52L164.008 12.46L164.388 13.84C164.468 14.1867 164.535 14.4467 164.588 14.62C164.748 15.26 164.988 15.72 165.308 16C165.642 16.28 166.075 16.42 166.608 16.42H166.748L167.048 19.22L166.748 22H166.608ZM166.512 16.42H167.432C167.899 16.42 168.286 16.2667 168.592 15.96C168.912 15.64 169.259 15.1667 169.632 14.54C170.219 13.5 170.839 12.6533 171.492 12C172.146 11.3467 172.939 11.02 173.872 11.02C174.779 11.02 175.552 11.2933 176.192 11.84C176.846 12.3867 177.332 13.1 177.652 13.98C177.986 14.8467 178.152 15.7733 178.152 16.76C178.152 17.8 177.966 18.7667 177.592 19.66C177.232 20.5533 176.712 21.2333 176.032 21.7C175.579 22.02 175.039 22.18 174.412 22.18C173.359 22.18 172.059 21.7133 170.512 20.78C169.752 21.5933 168.739 22 167.472 22H166.512V16.42ZM172.912 16.6C173.672 16.96 174.206 17.14 174.512 17.14C174.699 17.14 174.792 17.0333 174.792 16.82C174.792 16.6067 174.712 16.3867 174.552 16.16C174.392 15.9333 174.206 15.82 173.992 15.82C173.659 15.82 173.299 16.08 172.912 16.6ZM191.715 22C190.395 22 189.375 21.5467 188.655 20.64C188.001 20.8133 187.341 20.9 186.675 20.9C185.795 20.9 185.015 20.74 184.335 20.42C183.655 20.0867 183.121 19.6133 182.735 19C182.348 18.3733 182.155 17.64 182.155 16.8C182.155 16.5333 182.175 16.26 182.215 15.98C182.535 13.9133 183.948 12.3 186.455 11.14L186.355 10.38L190.435 9.48C190.568 10.48 190.695 11.4867 190.815 12.5C191.041 14.2067 191.161 15.1067 191.175 15.2C191.241 15.64 191.355 15.9533 191.515 16.14C191.675 16.3267 191.948 16.42 192.335 16.42H192.795L193.095 19.22L192.795 22H191.715ZM185.515 16.12C185.501 16.2133 185.581 16.3067 185.755 16.4C185.941 16.4933 186.188 16.54 186.495 16.54C186.735 16.54 186.968 16.5133 187.195 16.46C187.181 16.4333 187.175 16.4 187.175 16.36C187.081 15.68 187.035 15.3267 187.035 15.3C186.568 15.4333 186.201 15.5733 185.935 15.72C185.668 15.8533 185.528 15.9867 185.515 16.12ZM208.188 22C206.988 22 206.034 21.7467 205.328 21.24C204.634 20.72 204.134 19.9667 203.828 18.98L202.628 19.56C201.348 20.2133 200.228 20.7133 199.268 21.06C198.308 21.4067 197.361 21.6533 196.428 21.8C195.508 21.9333 194.448 22 193.248 22H192.587V16.42H194.568C195.848 16.42 197.008 16.3933 198.048 16.34C199.088 16.2733 199.974 16.14 200.708 15.94C200.601 15.8867 200.468 15.8267 200.308 15.76C200.148 15.68 199.968 15.5867 199.768 15.48C199.421 15.32 199.054 15.1867 198.668 15.08C198.281 14.9733 197.934 14.92 197.628 14.92C197.281 14.92 196.988 14.9733 196.748 15.08C196.521 15.1733 196.341 15.2867 196.208 15.42C196.088 15.5533 195.914 15.76 195.688 16.04L193.208 14.3C193.861 12.9133 194.561 11.9133 195.308 11.3C196.068 10.6733 196.974 10.36 198.028 10.36C198.494 10.36 198.961 10.4467 199.428 10.62C199.908 10.78 200.501 11.0267 201.208 11.36C201.528 11.52 201.721 11.6133 201.788 11.64C203.134 12.28 204.321 12.7333 205.348 13L205.448 15.66C205.914 16.1667 206.828 16.42 208.188 16.42H208.708L208.988 19.22L208.708 22H208.188ZM201.308 27.06L199.228 25.02L200.108 24.12C200.654 23.6 201.054 23.2 201.308 22.92C201.561 23.2 201.961 23.6 202.508 24.12L203.388 25.02L201.308 27.06ZM198.868 25.02C198.601 25.26 198.368 25.48 198.168 25.68C197.968 25.8933 197.781 26.08 197.608 26.24C197.608 26.24 197.334 26.5133 196.788 27.06L194.728 25.02L195.548 24.18C196.241 23.4867 196.654 23.0667 196.788 22.92C197.708 23.8667 198.401 24.5667 198.868 25.02ZM199.068 29.44L197.348 27.72C197.934 27.1067 198.508 26.5133 199.068 25.94C199.641 26.5133 200.214 27.1067 200.788 27.72L199.068 29.44ZM224.047 22C222.847 22 221.894 21.7467 221.187 21.24C220.494 20.72 219.994 19.9667 219.687 18.98L218.487 19.56C217.207 20.2133 216.087 20.7133 215.127 21.06C214.167 21.4067 213.22 21.6533 212.287 21.8C211.367 21.9333 210.307 22 209.107 22H208.447V16.42H210.427C211.707 16.42 212.867 16.3933 213.907 16.34C214.947 16.2733 215.834 16.14 216.567 15.94C216.46 15.8867 216.327 15.8267 216.167 15.76C216.007 15.68 215.827 15.5867 215.627 15.48C215.28 15.32 214.914 15.1867 214.527 15.08C214.14 14.9733 213.794 14.92 213.487 14.92C213.14 14.92 212.847 14.9733 212.607 15.08C212.38 15.1733 212.2 15.2867 212.067 15.42C211.947 15.5533 211.774 15.76 211.547 16.04L209.067 14.3C209.72 12.9133 210.42 11.9133 211.167 11.3C211.927 10.6733 212.834 10.36 213.887 10.36C214.354 10.36 214.82 10.4467 215.287 10.62C215.767 10.78 216.36 11.0267 217.067 11.36C217.387 11.52 217.58 11.6133 217.647 11.64C218.994 12.28 220.18 12.7333 221.207 13L221.307 15.66C221.774 16.1667 222.687 16.42 224.047 16.42H224.567L224.847 19.22L224.567 22H224.047ZM213.887 4.62L216.147 6.88L213.887 9.16L211.607 6.88L213.887 4.62ZM224.306 16.42H224.806C225.833 16.42 226.68 16.4 227.346 16.36C228.026 16.3067 228.44 16.2467 228.586 16.18L227.346 13.4L230.866 11.46C231.24 12.1933 231.586 13.0933 231.906 14.16C232.226 15.2267 232.386 16.1667 232.386 16.98C232.386 18.0467 232.18 18.9467 231.766 19.68C231.366 20.4133 230.646 20.9867 229.606 21.4C228.566 21.8 227.14 22 225.326 22H224.306V16.42ZM228.486 27.76L226.546 25.82C226.226 26.1533 225.733 26.64 225.066 27.28L224.566 27.76L222.506 25.68L224.066 24.1L224.566 23.58L226.546 25.54C226.986 25.1133 227.633 24.46 228.486 23.58L230.606 25.68L228.486 27.76ZM231.828 23.16C233.068 22.6933 234.101 22.28 234.928 21.92C235.768 21.5467 236.328 21.2133 236.608 20.92C236.555 20.4933 236.301 19.64 235.848 18.36C235.408 17.0667 235.148 16.2933 235.068 16.04L234.928 15.64L238.808 14.1C239.141 14.98 239.501 16.1933 239.888 17.74C240.275 19.2867 240.468 20.42 240.468 21.14C240.468 22.74 239.895 24.12 238.748 25.28C237.615 26.4533 236.121 27.4067 234.268 28.14L231.828 23.16ZM247.782 22C246.115 22 244.835 21.54 243.942 20.62C243.048 19.6867 242.595 18.28 242.582 16.4C242.515 12.9333 242.262 9.94667 241.822 7.44L246.102 6.44C246.328 7.50667 246.515 8.90667 246.662 10.64C246.822 12.36 246.902 13.9533 246.902 15.42C246.902 15.7533 246.968 16.0067 247.102 16.18C247.235 16.34 247.508 16.42 247.922 16.42H248.242L248.522 19.22L248.242 22H247.782ZM247.978 16.42H248.478C249.505 16.42 250.351 16.4 251.018 16.36C251.698 16.3067 252.111 16.2467 252.258 16.18L251.018 13.4L254.538 11.46C254.911 12.1933 255.258 13.0933 255.578 14.16C255.898 15.2267 256.058 16.1667 256.058 16.98C256.058 18.0467 255.851 18.9467 255.438 19.68C255.038 20.4133 254.318 20.9867 253.278 21.4C252.238 21.8 250.811 22 248.998 22H247.978V16.42ZM250.278 6.24L252.218 8.18C252.538 7.84667 253.031 7.36 253.698 6.72L254.198 6.24L256.258 8.32L254.698 9.9L254.198 10.42L252.218 8.46C251.778 8.88667 251.131 9.54 250.278 10.42L248.158 8.32L250.278 6.24Z" fill="#393C97"/>
<mask id="mask0_120_1747" style="mask-type:luminance" maskUnits="userSpaceOnUse" x="117" y="56" width="121" height="19">
<path d="M237.381 56H117.381V75H237.381V56Z" fill="white"/>
</mask>
<g mask="url(#mask0_120_1747)">
<path d="M183.726 75H172.284C171.158 75.0005 170.072 74.586 169.229 73.8348C168.387 73.0836 167.846 72.0478 167.711 70.9229C166.453 70.3132 165.421 69.3155 164.764 68.0747C164.219 67.2053 163.454 66.4977 162.547 66.0247L161.557 65.4995L162.547 64.9753C163.454 64.5032 164.22 63.7954 164.764 62.9253C165.42 61.6847 166.453 60.6872 167.711 60.078C167.847 58.9534 168.387 57.9178 169.23 57.1666C170.072 56.4154 171.158 56.0004 172.284 56H183.726C184.851 55.9998 185.938 56.4145 186.78 57.1658C187.623 57.9172 188.163 58.9531 188.298 60.078C189.557 60.6871 190.589 61.6846 191.245 62.9253C191.789 63.7953 192.555 64.503 193.462 64.9753L194.452 65.4995L193.462 66.0247C192.555 66.4973 191.79 67.205 191.245 68.0747C190.589 69.316 189.557 70.3139 188.298 70.9229C188.163 72.0478 187.623 73.0836 186.78 73.8348C185.937 74.586 184.851 75.0005 183.726 75ZM163.946 65.5005C164.654 66.0215 165.261 66.6687 165.738 67.41C166.472 68.5002 167.23 69.6274 168.395 69.8915L168.842 69.9911L168.855 70.4526C168.879 71.352 169.25 72.2065 169.89 72.8342C170.531 73.4619 171.389 73.8131 172.283 73.8131H183.725C184.618 73.8134 185.477 73.4622 186.117 72.8345C186.757 72.2068 187.129 71.3521 187.152 70.4526L187.165 69.9911L187.612 69.8915C188.778 69.6274 189.537 68.4962 190.269 67.41C190.746 66.6688 191.353 66.0217 192.062 65.5005C191.353 64.9789 190.746 64.3315 190.269 63.59C189.537 62.4998 188.778 61.3736 187.612 61.1095L187.165 61.0099L187.152 60.5484C187.129 59.6488 186.758 58.7939 186.118 58.1658C185.478 57.5378 184.619 57.1862 183.726 57.1859H172.284C171.39 57.1864 170.532 57.538 169.892 58.1658C169.252 58.7936 168.881 59.6481 168.857 60.5474L168.844 61.0089L168.397 61.1085C167.232 61.3716 166.474 62.5037 165.74 63.589C165.263 64.3306 164.656 64.9781 163.948 65.4995" fill="#BEC0E1"/>
<path d="M236.162 64.9077H192.228V66.0937H236.162V64.9077Z" fill="#BEC0E1"/>
<path d="M162.912 64.9077H118.979V66.0937H162.912V64.9077Z" fill="#BEC0E1"/>
<path d="M176.253 65.4574C176.24 65.4701 176.224 65.48 176.207 65.4861C176.19 65.4923 176.172 65.4948 176.154 65.4932C175.275 66.1239 174.247 66.5121 173.173 66.6194C173.022 66.6243 172.872 66.5974 172.732 66.5402C172.592 66.483 172.465 66.397 172.36 66.2875C172.255 66.1774 172.172 66.0472 172.118 65.9047C172.063 65.7622 172.038 65.6101 172.042 65.4574C172.045 65.1654 172.161 64.8862 172.367 64.68C172.458 64.5722 172.57 64.4852 172.697 64.4248C172.824 64.3645 172.963 64.3322 173.103 64.3302C173.465 64.383 173.821 64.4745 174.163 64.6033C174.863 64.8265 175.544 65.1041 176.201 65.4335L176.253 65.4574ZM176.795 64.1518C176.781 64.1427 176.764 64.1388 176.748 64.1409C175.68 63.9457 174.679 63.4803 173.839 62.7885C173.728 62.6882 173.64 62.5651 173.581 62.4275C173.522 62.2899 173.493 62.1411 173.496 61.9912C173.493 61.8338 173.523 61.6775 173.584 61.5325C173.645 61.3874 173.735 61.2568 173.849 61.1491C173.961 61.0377 174.093 60.9499 174.239 60.8909C174.385 60.8318 174.541 60.8027 174.698 60.8053C174.964 60.7907 175.226 60.8799 175.428 61.0544C176.082 61.9325 176.548 62.9382 176.795 64.0073V64.1518ZM176.795 66.8805C176.593 67.9649 176.095 68.9712 175.357 69.7866C175.27 69.886 175.163 69.9666 175.044 70.0236C174.925 70.0806 174.796 70.1129 174.664 70.1184C174.515 70.1202 174.368 70.0905 174.232 70.0312C174.095 69.972 173.973 69.8846 173.872 69.7746C173.767 69.6691 173.683 69.5434 173.627 69.405C173.57 69.2665 173.541 69.1181 173.543 68.9684C173.533 68.6752 173.62 68.3871 173.79 68.1492C174.661 67.5024 175.65 67.0348 176.7 66.7729H176.799L176.795 66.8805ZM179.293 65.4853C179.293 65.6838 179.244 65.8792 179.15 66.0542C179.057 66.2291 178.923 66.3783 178.759 66.4885C178.595 66.5987 178.406 66.6666 178.21 66.6861C178.014 66.7056 177.816 66.6762 177.633 66.6005C177.451 66.5248 177.29 66.405 177.165 66.2518C177.039 66.0987 176.953 65.9167 176.914 65.7221C176.875 65.5275 176.884 65.3262 176.94 65.136C176.997 64.9457 177.099 64.7723 177.237 64.6312C177.467 64.4096 177.772 64.2864 178.09 64.2875C178.408 64.2886 178.712 64.414 178.94 64.6372C179.054 64.7463 179.144 64.878 179.205 65.024C179.266 65.1699 179.296 65.327 179.293 65.4853ZM179.246 60.5262C179.208 60.8782 179.129 61.2244 179.01 61.5577C178.798 62.2505 178.513 62.9187 178.161 63.5509C178.142 63.5559 178.142 63.5748 178.142 63.6067C178.142 63.6386 178.13 63.6545 178.107 63.6545C178.083 63.6182 178.055 63.5848 178.023 63.5549C177.409 62.6705 177.036 61.6398 176.94 60.5651C176.934 60.4134 176.962 60.2624 177.02 60.1222C177.077 59.9821 177.165 59.8561 177.275 59.7529C177.5 59.5424 177.798 59.4293 178.106 59.438C178.4 59.4427 178.68 59.5616 178.889 59.7698C178.999 59.8611 179.088 59.9751 179.15 60.1041C179.212 60.2331 179.246 60.374 179.249 60.5173M179.237 70.3755C179.239 70.6 179.175 70.8201 179.052 71.0074C178.929 71.1946 178.753 71.3405 178.547 71.4263C178.341 71.5121 178.114 71.5338 177.896 71.4886C177.677 71.4434 177.477 71.3334 177.322 71.1728C177.213 71.0748 177.126 70.955 177.066 70.8212C177.006 70.6873 176.975 70.5423 176.974 70.3955C177.065 69.2647 177.456 68.1792 178.106 67.2522V67.2762L178.153 67.2522C178.779 68.1794 179.154 69.2549 179.242 70.3726M182.352 62.638C181.476 63.2947 180.479 63.7669 179.418 64.0263C179.375 64.0348 179.331 64.0348 179.288 64.0263C179.32 64.0582 179.336 64.0143 179.336 63.8957C179.528 62.8341 179.991 61.8407 180.678 61.0126C180.78 60.9045 180.902 60.8191 181.039 60.762C181.175 60.7048 181.322 60.6771 181.47 60.6807C181.621 60.6784 181.77 60.7066 181.91 60.7637C182.05 60.8207 182.177 60.9054 182.283 61.0128C182.39 61.1201 182.474 61.2479 182.531 61.3886C182.587 61.5293 182.615 61.68 182.613 61.8318C182.624 62.1232 182.532 62.4091 182.354 62.639M182.299 68.205C182.407 68.3041 182.494 68.4249 182.552 68.5597C182.611 68.6944 182.641 68.8401 182.641 68.9873C182.643 69.1416 182.615 69.295 182.559 69.4384C182.502 69.5819 182.418 69.7128 182.311 69.8234C182.208 69.9364 182.082 70.026 181.942 70.0863C181.801 70.1466 181.65 70.1762 181.498 70.1732C181.356 70.1812 181.214 70.1601 181.08 70.1111C180.946 70.0621 180.824 69.9862 180.721 69.8882C180.482 69.6026 180.28 69.2874 180.12 68.9504C179.808 68.278 179.543 67.5843 179.328 66.8745V66.8157C179.355 66.8213 179.382 66.8253 179.41 66.8277C180.471 67.0391 181.464 67.5124 182.299 68.205ZM184.066 65.4883C184.065 65.6396 184.034 65.7893 183.976 65.9287C183.917 66.0681 183.832 66.1944 183.725 66.3005C183.628 66.4126 183.508 66.5027 183.374 66.5651C183.24 66.6274 183.094 66.6605 182.947 66.6623C182.584 66.6244 182.228 66.5407 181.887 66.4131C181.187 66.1926 180.515 65.8917 179.883 65.5162C179.859 65.5162 179.848 65.5092 179.848 65.4932C179.848 65.4773 179.859 65.4733 179.883 65.4574C180.777 64.8154 181.828 64.43 182.923 64.3422C183.074 64.3399 183.223 64.3681 183.363 64.4252C183.503 64.4822 183.63 64.5669 183.736 64.6742C183.843 64.7816 183.927 64.9094 183.984 65.0501C184.04 65.1908 184.068 65.3415 184.066 65.4932" fill="#BEC0E1"/>
<path d="M237.378 65.5006C237.378 65.8187 237.284 66.1297 237.109 66.3942C236.933 66.6587 236.684 66.8649 236.392 66.9866C236.1 67.1084 235.779 67.1402 235.469 67.0782C235.159 67.0161 234.874 66.8629 234.651 66.638C234.427 66.413 234.275 66.1264 234.214 65.8144C234.152 65.5024 234.184 65.179 234.305 64.885C234.425 64.5911 234.63 64.3399 234.893 64.1632C235.156 63.9864 235.465 63.8921 235.78 63.8921C236.204 63.8921 236.611 64.0616 236.91 64.3632C237.21 64.6649 237.378 65.074 237.378 65.5006Z" fill="#BEC0E1"/>
<path d="M120.575 65.5006C120.575 65.8187 120.481 66.1297 120.306 66.3942C120.13 66.6587 119.881 66.8649 119.589 66.9866C119.297 67.1084 118.976 67.1402 118.666 67.0782C118.356 67.0161 118.071 66.8629 117.848 66.638C117.624 66.413 117.472 66.1264 117.411 65.8144C117.349 65.5024 117.381 65.179 117.502 64.885C117.623 64.5911 117.827 64.3399 118.09 64.1632C118.353 63.9864 118.662 63.8921 118.978 63.8921C119.187 63.8921 119.395 63.9337 119.589 64.0145C119.783 64.0954 119.959 64.2138 120.107 64.3632C120.255 64.5126 120.373 64.6899 120.453 64.885C120.534 65.0802 120.575 65.2894 120.575 65.5006Z" fill="#BEC0E1"/>
</g>
</svg>
