<svg width="388" height="92" viewBox="0 0 388 92" fill="none" xmlns="http://www.w3.org/2000/svg">
<path d="M105.696 23.154C104.581 23.154 103.635 22.934 102.858 22.494C102.08 22.054 101.501 21.46 101.12 20.712C100.738 19.964 100.548 19.1207 100.548 18.182C100.548 17.6247 100.628 17.0087 100.79 16.334C101.024 15.3953 101.428 14.4713 102 13.562L101.318 13.232L104.068 8.92C106.414 10.1813 108.16 11.516 109.304 12.924C110.448 14.3173 111.02 15.8353 111.02 17.478C111.02 17.6393 111.005 17.896 110.976 18.248C110.814 19.8173 110.242 21.0273 109.26 21.878C108.292 22.7287 107.104 23.154 105.696 23.154ZM104.728 16.84C104.728 17.016 104.816 17.148 104.992 17.236C105.168 17.324 105.402 17.368 105.696 17.368C105.93 17.368 106.128 17.3313 106.29 17.258C106.451 17.1847 106.554 17.0967 106.598 16.994C106.554 16.7007 106.158 16.2607 105.41 15.674C104.955 16.1727 104.728 16.5613 104.728 16.84ZM113.003 22.912C113.105 21.6213 113.157 20.0593 113.157 18.226C113.157 16.1727 113.083 14.134 112.937 12.11C112.805 10.086 112.607 8.37733 112.343 6.984L117.271 5.84C117.461 7.13067 117.615 8.71467 117.733 10.592C117.85 12.4693 117.909 14.4127 117.909 16.422C117.909 18.886 117.813 21.2107 117.623 23.396L113.003 22.912ZM126.349 23C126.217 23 126.114 22.9927 126.041 22.978C125.821 24.5033 125.102 25.8307 123.885 26.96C122.667 28.104 121.135 29.0353 119.287 29.754L116.603 24.276C117.967 23.7627 119.103 23.308 120.013 22.912C120.937 22.5013 121.553 22.1347 121.861 21.812C121.802 21.3427 121.523 20.404 121.025 18.996C120.541 17.5733 120.255 16.7227 120.167 16.444L120.013 16.004L124.281 14.31L124.523 15.014C124.757 15.6153 124.941 16.0333 125.073 16.268C125.219 16.5027 125.388 16.664 125.579 16.752C125.769 16.8253 126.063 16.862 126.459 16.862H126.701L127.009 19.942L126.701 23H126.349ZM126.46 16.862H127.054C127.568 16.862 127.993 16.6933 128.33 16.356C128.682 16.004 129.064 15.4833 129.474 14.794C130.09 13.6793 130.736 12.77 131.41 12.066C132.1 11.362 132.936 10.9807 133.918 10.922C134.945 10.8633 135.788 11.0833 136.448 11.582C137.123 12.066 137.724 12.8653 138.252 13.98L138.626 14.816C138.905 15.4173 139.11 15.85 139.242 16.114C139.389 16.3633 139.543 16.554 139.704 16.686C139.866 16.8033 140.071 16.862 140.32 16.862H140.782L141.112 19.92L140.782 23H140.32C139.866 23 139.382 22.9047 138.868 22.714C138.37 22.5087 137.886 22.2153 137.416 21.834C137.123 22.2007 136.822 22.4793 136.514 22.67C136.001 23.022 135.4 23.198 134.71 23.198C133.566 23.198 132.144 22.6847 130.442 21.658C129.592 22.5527 128.477 23 127.098 23H126.46V16.862ZM135.326 17.654C135.209 17.302 135.04 16.972 134.82 16.664C134.6 16.356 134.329 16.202 134.006 16.202C133.713 16.202 133.405 16.4587 133.082 16.972C133.361 17.192 133.691 17.368 134.072 17.5C134.468 17.6173 134.806 17.676 135.084 17.676C135.202 17.676 135.282 17.6687 135.326 17.654ZM140.533 16.862H141.655C141.655 16.466 141.736 16.0407 141.897 15.586C142.058 15.0873 142.256 14.596 142.491 14.112L141.853 13.958L143.965 8.59C147.016 9.47 149.406 10.3427 151.137 11.208C152.868 12.0733 154.078 12.9533 154.767 13.848C155.471 14.7427 155.823 15.718 155.823 16.774C155.823 17.61 155.61 18.666 155.185 19.942C154.848 20.9247 154.21 21.6653 153.271 22.164C152.347 22.6627 151.254 22.912 149.993 22.912C148.878 22.912 147.764 22.7213 146.649 22.34C145.432 22.78 143.914 23 142.095 23H140.533V16.862ZM145.461 15.938C145.373 16.334 145.666 16.708 146.341 17.06C146.737 17.0013 147.03 16.8987 147.221 16.752C147.426 16.5907 147.529 16.4147 147.529 16.224C147.529 16.004 147.441 15.7913 147.265 15.586C147.104 15.3807 146.854 15.256 146.517 15.212C146.312 15.168 146.099 15.2193 145.879 15.366C145.659 15.5127 145.52 15.7033 145.461 15.938ZM150.653 18.006C151.782 18.0353 152.347 17.8813 152.347 17.544C152.347 17.2507 151.87 16.9133 150.917 16.532C150.888 16.8547 150.858 17.0893 150.829 17.236C150.8 17.456 150.741 17.7127 150.653 18.006ZM165.358 23.154C164.243 23.154 163.297 22.934 162.52 22.494C161.742 22.054 161.163 21.46 160.782 20.712C160.4 19.964 160.21 19.1207 160.21 18.182C160.21 17.6247 160.29 17.0087 160.452 16.334C160.686 15.3953 161.09 14.4713 161.662 13.562L160.98 13.232L163.73 8.92C166.076 10.1813 167.822 11.516 168.966 12.924C170.11 14.3173 170.682 15.8353 170.682 17.478C170.682 17.6393 170.667 17.896 170.638 18.248C170.476 19.8173 169.904 21.0273 168.922 21.878C167.954 22.7287 166.766 23.154 165.358 23.154ZM164.39 16.84C164.39 17.016 164.478 17.148 164.654 17.236C164.83 17.324 165.064 17.368 165.358 17.368C165.592 17.368 165.79 17.3313 165.952 17.258C166.113 17.1847 166.216 17.0967 166.26 16.994C166.216 16.7007 165.82 16.2607 165.072 15.674C164.617 16.1727 164.39 16.5613 164.39 16.84ZM169.153 24.276C170.517 23.7627 171.654 23.308 172.563 22.912C173.487 22.5013 174.103 22.1347 174.411 21.812C174.353 21.3427 174.074 20.404 173.575 18.996C173.091 17.5733 172.805 16.7227 172.717 16.444L172.563 16.004L176.831 14.31C177.198 15.278 177.594 16.6127 178.019 18.314C178.445 20.0153 178.657 21.262 178.657 22.054C178.657 23.814 178.027 25.332 176.765 26.608C175.519 27.8987 173.876 28.9473 171.837 29.754L169.153 24.276ZM186.702 23C184.869 23 183.461 22.494 182.478 21.482C181.496 20.4553 180.997 18.908 180.982 16.84C180.909 13.0267 180.63 9.74133 180.146 6.984L184.854 5.884C185.104 7.05733 185.309 8.59733 185.47 10.504C185.646 12.396 185.734 14.1487 185.734 15.762C185.734 16.1287 185.808 16.4073 185.954 16.598C186.101 16.774 186.402 16.862 186.856 16.862H187.208L187.516 19.942L187.208 23H186.702ZM186.874 16.862H187.468C187.982 16.862 188.407 16.6933 188.744 16.356C189.096 16.004 189.478 15.4833 189.888 14.794C190.504 13.6793 191.15 12.77 191.824 12.066C192.514 11.362 193.35 10.9807 194.332 10.922C195.359 10.8633 196.202 11.0833 196.862 11.582C197.537 12.066 198.138 12.8653 198.666 13.98L199.04 14.816C199.319 15.4173 199.524 15.85 199.656 16.114C199.803 16.3633 199.957 16.554 200.118 16.686C200.28 16.8033 200.485 16.862 200.734 16.862H201.196L201.526 19.92L201.196 23H200.734C200.28 23 199.796 22.9047 199.282 22.714C198.784 22.5087 198.3 22.2153 197.83 21.834C197.537 22.2007 197.236 22.4793 196.928 22.67C196.415 23.022 195.814 23.198 195.124 23.198C193.98 23.198 192.558 22.6847 190.856 21.658C190.006 22.5527 188.891 23 187.512 23H186.874V16.862ZM195.74 17.654C195.623 17.302 195.454 16.972 195.234 16.664C195.014 16.356 194.743 16.202 194.42 16.202C194.127 16.202 193.819 16.4587 193.496 16.972C193.775 17.192 194.105 17.368 194.486 17.5C194.882 17.6173 195.22 17.676 195.498 17.676C195.616 17.676 195.696 17.6687 195.74 17.654ZM214.653 23C213.905 22.9853 213.26 22.8313 212.717 22.538C212.189 22.23 211.786 21.8487 211.507 21.394C211.199 21.834 210.796 22.208 210.297 22.516C209.813 22.824 209.292 22.9853 208.735 23H208.625H208.581C207.774 22.9853 207.07 22.8093 206.469 22.472C205.868 22.12 205.42 21.7093 205.127 21.24C204.731 21.7093 204.152 22.12 203.389 22.472C202.626 22.824 201.886 23 201.167 23H200.969L200.815 19.964L200.969 16.862H201.145C201.658 16.862 202.157 16.7813 202.641 16.62C203.14 16.444 203.499 16.2167 203.719 15.938C204.159 15.3513 204.474 14.6473 204.665 13.826L207.965 14.2L207.723 15.608C207.723 15.608 207.664 15.9013 207.547 16.488C207.62 16.6787 207.76 16.8253 207.965 16.928C208.185 17.0307 208.412 17.082 208.647 17.082C209.204 17.082 209.622 16.73 209.901 16.026C210.092 15.4687 210.26 14.7573 210.407 13.892L213.751 14.09C213.678 15.0873 213.604 15.8867 213.531 16.488C213.634 16.6787 213.795 16.8253 214.015 16.928C214.235 17.0307 214.477 17.082 214.741 17.082C214.946 17.082 215.144 17.0453 215.335 16.972C215.54 16.8987 215.694 16.8033 215.797 16.686L214.719 13.54L218.283 11.846C218.664 12.6233 218.994 13.5327 219.273 14.574C219.566 15.6007 219.713 16.5687 219.713 17.478C219.713 19.15 219.295 20.4847 218.459 21.482C217.638 22.4793 216.428 22.9853 214.829 23H214.719H214.653ZM209.285 7.358L211.573 9.602L210.605 10.592C210.004 11.164 209.564 11.604 209.285 11.912C209.006 11.604 208.566 11.164 207.965 10.592L206.997 9.602L209.285 7.358ZM211.969 9.602C212.262 9.338 212.519 9.096 212.739 8.876C212.959 8.64133 213.164 8.436 213.355 8.26C213.355 8.26 213.656 7.95933 214.257 7.358L216.523 9.602L215.621 10.526C214.858 11.2887 214.404 11.7507 214.257 11.912C213.245 10.8707 212.482 10.1007 211.969 9.602ZM211.749 4.74L213.641 6.632C213.01 7.30667 212.38 7.95933 211.749 8.59C211.133 7.95933 210.502 7.30667 209.857 6.632L211.749 4.74ZM230.616 23C228.783 23 227.375 22.494 226.392 21.482C225.41 20.4553 224.911 18.908 224.896 16.84C224.823 13.0267 224.544 9.74133 224.06 6.984L228.768 5.884C229.018 7.05733 229.223 8.59733 229.384 10.504C229.56 12.396 229.648 14.1487 229.648 15.762C229.648 16.1287 229.722 16.4073 229.868 16.598C230.015 16.774 230.316 16.862 230.77 16.862H231.122L231.43 19.942L231.122 23H230.616ZM230.832 16.862H231.382C231.822 16.862 232.321 16.8327 232.878 16.774C233.45 16.7153 233.817 16.6567 233.978 16.598L232.614 13.54L236.486 11.406C236.897 12.2273 237.271 13.2247 237.608 14.398C237.96 15.5567 238.136 16.5833 238.136 17.478C238.136 19.1647 237.66 20.5067 236.706 21.504C235.753 22.5013 234.367 23 232.548 23H230.832V16.862ZM232.46 24.518L234.946 27.004L232.46 29.512L229.952 27.004L232.46 24.518ZM247.158 23.176C246.249 23.176 245.369 23.0147 244.518 22.692C243.667 22.3693 242.934 21.9807 242.318 21.526L244.496 16.62C244.995 16.796 245.523 16.9427 246.08 17.06C246.652 17.1773 247.173 17.236 247.642 17.236C248.331 17.236 248.837 17.17 249.16 17.038C248.984 16.7153 248.522 16.246 247.774 15.63C247.041 15.014 246.175 14.376 245.178 13.716L247.818 8.92C248.874 9.58 249.82 10.3867 250.656 11.34C251.492 12.2787 252.145 13.2907 252.614 14.376C253.098 15.4467 253.34 16.5027 253.34 17.544C253.34 18.3213 253.201 19.0547 252.922 19.744C252.438 20.9027 251.661 21.768 250.59 22.34C249.534 22.8973 248.39 23.176 247.158 23.176ZM254.655 24.056C257.119 23.528 258.82 23.044 259.759 22.604C258.776 22.516 257.889 22.2667 257.097 21.856C256.305 21.4453 255.718 20.8513 255.337 20.074C255.088 19.4873 254.963 18.7687 254.963 17.918C254.963 16.8327 255.183 15.7547 255.623 14.684C256.063 13.5987 256.686 12.704 257.493 12C258.314 11.296 259.26 10.944 260.331 10.944C261.27 10.944 262.135 11.34 262.927 12.132C263.734 12.924 264.372 13.9653 264.841 15.256C265.31 16.5467 265.545 17.9033 265.545 19.326C265.545 19.6633 265.538 19.9127 265.523 20.074C265.362 22.67 264.526 24.7747 263.015 26.388C261.504 28.016 259.451 29.138 256.855 29.754L254.655 24.056ZM258.945 16.532C258.945 16.708 259.165 16.8693 259.605 17.016C260.045 17.148 260.595 17.236 261.255 17.28C261.006 16.5467 260.558 16.114 259.913 15.982C259.869 15.9673 259.803 15.96 259.715 15.96C259.495 15.96 259.312 16.026 259.165 16.158C259.018 16.2753 258.945 16.4 258.945 16.532ZM265.532 24.276C266.896 23.7627 268.033 23.308 268.942 22.912C269.866 22.5013 270.482 22.1347 270.79 21.812C270.732 21.3427 270.453 20.404 269.954 18.996C269.47 17.5733 269.184 16.7227 269.096 16.444L268.942 16.004L273.21 14.31C273.577 15.278 273.973 16.6127 274.398 18.314C274.824 20.0153 275.036 21.262 275.036 22.054C275.036 23.814 274.406 25.332 273.144 26.608C271.898 27.8987 270.255 28.9473 268.216 29.754L265.532 24.276ZM276.569 24.056C279.033 23.528 280.735 23.044 281.673 22.604C280.691 22.516 279.803 22.2667 279.011 21.856C278.219 21.4453 277.633 20.8513 277.251 20.074C277.002 19.4873 276.877 18.7687 276.877 17.918C276.877 16.8327 277.097 15.7547 277.537 14.684C277.977 13.5987 278.601 12.704 279.407 12C280.229 11.296 281.175 10.944 282.245 10.944C283.184 10.944 284.049 11.34 284.841 12.132C285.648 12.924 286.286 13.9653 286.755 15.256C287.225 16.5467 287.459 17.9033 287.459 19.326C287.459 19.6633 287.452 19.9127 287.437 20.074C287.276 22.67 286.44 24.7747 284.929 26.388C283.419 28.016 281.365 29.138 278.769 29.754L276.569 24.056ZM280.859 16.532C280.859 16.708 281.079 16.8693 281.519 17.016C281.959 17.148 282.509 17.236 283.169 17.28C282.92 16.5467 282.473 16.114 281.827 15.982C281.783 15.9673 281.717 15.96 281.629 15.96C281.409 15.96 281.226 16.026 281.079 16.158C280.933 16.2753 280.859 16.4 280.859 16.532Z" fill="#37BEC1"/>
<mask id="mask0_252_2889" style="mask-type:luminance" maskUnits="userSpaceOnUse" x="123" y="39" width="141" height="25">
<path d="M263.387 39.4965H123.468V63.6643H263.387V39.4965Z" fill="white"/>
</mask>
<g mask="url(#mask0_252_2889)">
<path d="M200.824 63.6643H187.483C186.171 63.6649 184.904 63.1377 183.922 62.1822C182.939 61.2267 182.309 59.9091 182.151 58.4783C180.684 57.7027 179.481 56.4336 178.715 54.8554C178.08 53.7495 177.187 52.8495 176.13 52.2478L174.976 51.5797L176.13 50.913C177.188 50.3125 178.081 49.4122 178.715 48.3054C179.481 46.7273 180.684 45.4586 182.151 44.6837C182.31 43.2531 182.94 41.9359 183.922 40.9803C184.904 40.0248 186.171 39.497 187.483 39.4965H200.824C202.137 39.4962 203.403 40.0237 204.386 40.9794C205.368 41.9351 205.998 43.2528 206.156 44.6837C207.623 45.4584 208.827 46.7272 209.592 48.3054C210.227 49.412 211.119 50.3123 212.177 50.913L213.331 51.5797L212.177 52.2478C211.119 52.8489 210.227 53.7491 209.592 54.8554C208.827 56.4343 207.624 57.7036 206.156 58.4783C205.998 59.9091 205.368 61.2267 204.386 62.1822C203.403 63.1377 202.136 63.6649 200.824 63.6643ZM177.761 51.581C178.587 52.2437 179.295 53.0669 179.851 54.0098C180.706 55.3966 181.59 56.8304 182.949 57.1663L183.47 57.2931L183.485 57.88C183.513 59.024 183.946 60.111 184.693 60.9094C185.439 61.7078 186.44 62.1546 187.482 62.1545H200.823C201.865 62.1549 202.866 61.7083 203.613 60.9098C204.359 60.1113 204.792 59.0241 204.82 57.88L204.835 57.2931L205.356 57.1663C206.716 56.8304 207.6 55.3916 208.454 54.0098C209.01 53.0671 209.718 52.2439 210.544 51.581C209.718 50.9176 209.01 50.094 208.454 49.1509C207.6 47.7641 206.716 46.3317 205.356 45.9957L204.835 45.869L204.82 45.282C204.793 44.1378 204.36 43.0503 203.614 42.2514C202.867 41.4525 201.866 41.0052 200.824 41.005H187.483C186.441 41.0056 185.441 41.4527 184.694 42.2513C183.948 43.0499 183.515 44.1368 183.488 45.2808L183.473 45.8677L182.951 45.9945C181.593 46.3291 180.709 47.7692 179.853 49.1496C179.297 50.0929 178.589 50.9165 177.763 51.5797" fill="#BEC0E1"/>
<path d="M261.965 50.8268H210.738V52.3353H261.965V50.8268Z" fill="#BEC0E1"/>
<path d="M176.557 50.8268H125.331V52.3353H176.557V50.8268Z" fill="#BEC0E1"/>
<path d="M192.112 51.5265C192.096 51.5427 192.078 51.5552 192.058 51.5631C192.039 51.571 192.017 51.574 191.996 51.5721C190.971 52.3743 189.773 52.8681 188.521 53.0046C188.345 53.0109 188.17 52.9765 188.006 52.9038C187.843 52.8311 187.695 52.7217 187.573 52.5824C187.45 52.4424 187.354 52.2768 187.29 52.0955C187.227 51.9142 187.197 51.7207 187.202 51.5265C187.205 51.1551 187.341 50.7999 187.581 50.5377C187.687 50.4005 187.818 50.2898 187.966 50.2131C188.114 50.1364 188.276 50.0953 188.439 50.0928C188.861 50.1599 189.276 50.2763 189.675 50.4401C190.491 50.7241 191.286 51.0771 192.052 51.4961L192.112 51.5265ZM192.744 49.8659C192.728 49.8542 192.708 49.8493 192.689 49.8519C191.444 49.6036 190.276 49.0117 189.297 48.1317C189.168 48.0041 189.065 47.8475 188.996 47.6725C188.927 47.4975 188.894 47.3082 188.897 47.1176C188.894 46.9173 188.929 46.7186 189 46.5341C189.071 46.3496 189.177 46.1835 189.31 46.0464C189.439 45.9047 189.594 45.793 189.764 45.7179C189.934 45.6428 190.115 45.6058 190.299 45.6091C190.609 45.5906 190.914 45.704 191.15 45.926C191.913 47.0429 192.456 48.3221 192.744 49.6821V49.8659ZM192.744 53.3367C192.508 54.716 191.928 55.996 191.067 57.0332C190.965 57.1596 190.841 57.2622 190.702 57.3347C190.564 57.4072 190.413 57.4483 190.259 57.4553C190.086 57.4575 189.914 57.4198 189.755 57.3444C189.596 57.2691 189.453 57.1579 189.336 57.018C189.213 56.8838 189.116 56.7239 189.05 56.5478C188.984 56.3717 188.95 56.1829 188.952 55.9924C188.94 55.6196 189.042 55.2531 189.24 54.9504C190.256 54.1278 191.409 53.5329 192.633 53.1998H192.749L192.744 53.3367ZM195.657 51.562C195.656 51.8145 195.599 52.0631 195.49 52.2856C195.382 52.5082 195.225 52.6979 195.034 52.8381C194.842 52.9783 194.623 53.0646 194.394 53.0894C194.165 53.1143 193.934 53.0769 193.722 52.9805C193.509 52.8842 193.321 52.7319 193.175 52.5371C193.029 52.3422 192.928 52.1108 192.883 51.8633C192.837 51.6157 192.848 51.3596 192.913 51.1176C192.979 50.8756 193.098 50.6551 193.26 50.4756C193.527 50.1938 193.883 50.037 194.254 50.0384C194.624 50.0399 194.98 50.1993 195.245 50.4832C195.378 50.622 195.483 50.7895 195.554 50.9752C195.625 51.1609 195.66 51.3607 195.657 51.562ZM195.602 45.2541C195.557 45.7018 195.465 46.1422 195.327 46.5662C195.08 47.4474 194.748 48.2973 194.337 49.1015C194.315 49.1078 194.315 49.1319 194.315 49.1725C194.315 49.213 194.301 49.2333 194.273 49.2333C194.245 49.1871 194.213 49.1445 194.176 49.1065C193.46 47.9816 193.025 46.6706 192.913 45.3036C192.907 45.1106 192.938 44.9185 193.006 44.7402C193.073 44.562 193.175 44.4018 193.304 44.2704C193.566 44.0027 193.914 43.8588 194.272 43.8699C194.615 43.8758 194.942 44.0271 195.186 44.292C195.314 44.4081 195.418 44.5531 195.49 44.7171C195.562 44.8812 195.602 45.0605 195.605 45.2427M195.591 57.7824C195.594 58.0679 195.519 58.3478 195.375 58.586C195.232 58.8242 195.027 59.0098 194.787 59.1189C194.547 59.228 194.282 59.2556 194.027 59.1982C193.773 59.1407 193.54 59.0008 193.358 58.7965C193.231 58.6718 193.13 58.5195 193.06 58.3492C192.991 58.1789 192.954 57.9944 192.953 57.8077C193.059 56.3694 193.515 54.9887 194.272 53.8095V53.84L194.327 53.8095C195.057 54.9889 195.495 56.3569 195.597 57.7786M199.223 47.9403C198.203 48.7756 197.039 49.3762 195.802 49.7061C195.752 49.717 195.701 49.717 195.651 49.7061C195.688 49.7467 195.707 49.6909 195.707 49.5401C195.931 48.1897 196.47 46.9261 197.272 45.8727C197.39 45.7353 197.533 45.6267 197.692 45.554C197.851 45.4813 198.023 45.4461 198.195 45.4506C198.371 45.4477 198.545 45.4836 198.708 45.5562C198.871 45.6287 199.019 45.7364 199.143 45.873C199.268 46.0095 199.366 46.1721 199.432 46.351C199.498 46.53 199.53 46.7217 199.528 46.9148C199.54 47.2855 199.433 47.6491 199.225 47.9416M199.162 55.0214C199.288 55.1475 199.389 55.3012 199.457 55.4726C199.526 55.644 199.561 55.8293 199.56 56.0165C199.563 56.2129 199.53 56.4079 199.464 56.5904C199.398 56.7729 199.3 56.9393 199.176 57.0801C199.055 57.2237 198.908 57.3377 198.745 57.4144C198.581 57.4911 198.405 57.5288 198.227 57.525C198.062 57.5352 197.896 57.5083 197.74 57.4459C197.585 57.3836 197.442 57.2872 197.321 57.1625C197.042 56.7991 196.807 56.3983 196.621 55.9696C196.257 55.1143 195.948 54.2319 195.697 53.3291V53.2543C195.729 53.2614 195.761 53.2665 195.793 53.2695C197.031 53.5385 198.188 54.1404 199.162 55.0214ZM201.222 51.5658C201.221 51.7583 201.185 51.9487 201.117 52.126C201.048 52.3033 200.949 52.464 200.824 52.5989C200.711 52.7415 200.571 52.8562 200.415 52.9355C200.259 53.0148 200.089 53.0569 199.917 53.0591C199.494 53.011 199.079 52.9045 198.681 52.7422C197.865 52.4617 197.081 52.0789 196.345 51.6013C196.317 51.6013 196.303 51.5924 196.303 51.5721C196.303 51.5518 196.317 51.5468 196.345 51.5265C197.388 50.7099 198.612 50.2196 199.889 50.108C200.065 50.1051 200.239 50.141 200.402 50.2135C200.565 50.2861 200.713 50.3938 200.837 50.5303C200.962 50.6669 201.06 50.8294 201.126 51.0084C201.192 51.1874 201.225 51.379 201.222 51.5721" fill="#BEC0E1"/>
<path d="M263.383 51.581C263.383 51.9857 263.274 52.3813 263.069 52.7177C262.865 53.0542 262.574 53.3164 262.233 53.4713C261.893 53.6261 261.518 53.6667 261.157 53.5877C260.796 53.5088 260.464 53.3139 260.203 53.0278C259.943 52.7416 259.765 52.3771 259.694 51.9802C259.622 51.5833 259.659 51.1719 259.8 50.7981C259.94 50.4242 260.179 50.1047 260.486 49.8798C260.792 49.655 261.152 49.535 261.52 49.535C262.014 49.535 262.488 49.7506 262.838 50.1343C263.187 50.518 263.383 51.0384 263.383 51.581Z" fill="#BEC0E1"/>
<path d="M127.192 51.581C127.192 51.9857 127.083 52.3813 126.878 52.7177C126.674 53.0542 126.383 53.3164 126.042 53.4713C125.702 53.6261 125.328 53.6667 124.966 53.5877C124.605 53.5088 124.273 53.3139 124.012 53.0278C123.752 52.7416 123.575 52.3771 123.503 51.9802C123.431 51.5833 123.468 51.1719 123.609 50.7981C123.75 50.4242 123.988 50.1047 124.295 49.8798C124.601 49.655 124.961 49.535 125.33 49.535C125.574 49.535 125.816 49.588 126.042 49.6908C126.268 49.7936 126.474 49.9443 126.647 50.1343C126.82 50.3243 126.957 50.5498 127.051 50.7981C127.144 51.0463 127.192 51.3123 127.192 51.581Z" fill="#BEC0E1"/>
</g>
<path d="M114.153 86C113.733 86 113.359 85.9253 113.033 85.776C112.706 85.6173 112.412 85.3793 112.151 85.062C111.404 85.7247 110.531 86.056 109.533 86.056C108.87 86.056 108.301 85.9533 107.825 85.748C107.349 85.5427 106.919 85.3 106.537 85.02L107.153 83.914C107.517 84.1193 107.862 84.2873 108.189 84.418C108.525 84.5393 108.931 84.6 109.407 84.6C110.172 84.6 110.872 84.3947 111.507 83.984L109.547 79.406L110.709 78.79L112.627 83.326C112.804 83.7553 113.005 84.054 113.229 84.222C113.453 84.3807 113.761 84.46 114.153 84.46H114.307L114.391 85.23L114.307 86H114.153ZM114.168 84.46H114.28C115.008 84.46 115.573 84.4273 115.974 84.362C116.376 84.2967 116.665 84.2033 116.842 84.082C117.029 83.9513 117.155 83.7693 117.22 83.536C117.258 83.4147 117.276 83.242 117.276 83.018C117.276 82.766 117.253 82.4813 117.206 82.164C117.16 81.8373 117.132 81.6367 117.122 81.562L118.284 81.324C118.415 81.9493 118.48 82.7053 118.48 83.592C118.527 83.8627 118.648 84.0773 118.844 84.236C119.05 84.3853 119.325 84.46 119.67 84.46H119.768L119.852 85.23L119.768 86H119.67C119.278 86 118.924 85.9067 118.606 85.72C118.298 85.524 118.046 85.2627 117.85 84.936C117.617 85.328 117.225 85.6033 116.674 85.762C116.133 85.9207 115.335 86 114.28 86H114.168V84.46ZM117.878 88.296C117.412 88.7627 117.178 88.996 117.178 88.996L116.814 89.36L115.764 88.296L116.814 87.246L117.878 88.296ZM115.386 88.296C114.92 88.7627 114.686 88.996 114.686 88.996L114.322 89.36L113.272 88.296L114.322 87.246L115.386 88.296ZM119.623 84.46H120.211C121.191 84.46 121.882 84.3713 122.283 84.194C122.685 84.0073 122.885 83.718 122.885 83.326C122.876 83.0647 122.778 82.64 122.591 82.052C122.405 81.464 122.251 81.0487 122.129 80.806L123.291 80.176C123.478 80.5493 123.66 81.0487 123.837 81.674C124.024 82.2993 124.117 82.8453 124.117 83.312C124.117 84.1987 123.809 84.8707 123.193 85.328C122.577 85.776 121.653 86 120.421 86H119.623V84.46ZM123.319 88.324C122.853 88.7907 122.619 89.024 122.619 89.024L122.255 89.388L121.205 88.324L122.255 87.274L123.319 88.324ZM120.827 88.324C120.361 88.7907 120.127 89.024 120.127 89.024L119.763 89.388L118.713 88.324L119.763 87.274L120.827 88.324ZM128.533 86C127.544 86 126.849 85.7433 126.447 85.23C126.055 84.7073 125.859 83.8813 125.859 82.752C125.859 81.7253 125.831 80.5587 125.775 79.252C125.729 77.936 125.659 76.9653 125.565 76.34L126.895 76.046C126.97 76.578 127.031 77.4273 127.077 78.594C127.124 79.7513 127.147 80.8293 127.147 81.828V82.444C127.138 83.004 127.161 83.4193 127.217 83.69C127.273 83.9607 127.399 84.1567 127.595 84.278C127.791 84.3993 128.104 84.46 128.533 84.46H128.603L128.687 85.23L128.603 86H128.533ZM128.469 84.46H128.749C129.514 84.46 130.13 84.026 130.597 83.158C131.064 82.3087 131.507 81.6553 131.927 81.198C132.356 80.7407 132.828 80.512 133.341 80.512C133.901 80.512 134.349 80.708 134.685 81.1C135.03 81.492 135.301 82.0333 135.497 82.724C135.674 83.3587 135.838 83.8067 135.987 84.068C136.146 84.3293 136.36 84.46 136.631 84.46H136.771L136.855 85.23L136.771 86H136.631C135.987 86 135.53 85.6453 135.259 84.936C135.231 85.1413 135.142 85.3327 134.993 85.51C134.844 85.678 134.676 85.8133 134.489 85.916C134.302 86.0187 134.088 86.07 133.845 86.07C133.154 86.07 132.207 85.6827 131.003 84.908C130.723 85.272 130.387 85.5473 129.995 85.734C129.603 85.9113 129.178 86 128.721 86H128.469V84.46ZM134.349 84.698C134.48 84.5113 134.545 84.2547 134.545 83.928C134.545 83.62 134.494 83.312 134.391 83.004C134.288 82.6867 134.144 82.4253 133.957 82.22C133.77 82.0147 133.556 81.912 133.313 81.912C132.837 81.912 132.286 82.5 131.661 83.676C132.165 84.0307 132.636 84.2967 133.075 84.474C133.523 84.642 133.878 84.726 134.139 84.726C134.204 84.726 134.274 84.7167 134.349 84.698ZM136.631 84.46H137.359C138.087 84.46 138.61 84.3713 138.927 84.194C139.245 84.0167 139.403 83.7413 139.403 83.368C139.403 83.116 139.305 82.6867 139.109 82.08C138.923 81.464 138.773 81.0393 138.661 80.806L139.823 80.176C140.001 80.54 140.183 81.0487 140.369 81.702C140.556 82.346 140.649 82.9013 140.649 83.368C140.649 84.236 140.365 84.894 139.795 85.342C139.235 85.7807 138.423 86 137.359 86H136.631V84.46ZM137.723 78.314C138.097 77.9593 138.461 77.5953 138.815 77.222L139.907 78.314L138.815 79.42L137.723 78.314ZM148.557 86.056C147.801 86.056 147.157 85.9487 146.625 85.734C146.093 85.5193 145.673 85.2813 145.365 85.02L145.981 83.914C146.345 84.11 146.704 84.2733 147.059 84.404C147.413 84.5253 147.866 84.586 148.417 84.586C148.921 84.586 149.331 84.5207 149.649 84.39C149.975 84.2593 150.19 84.11 150.293 83.942C150.321 83.8673 150.335 83.7787 150.335 83.676C150.335 83.2747 150.097 82.7613 149.621 82.136C149.154 81.5013 148.421 80.8247 147.423 80.106L148.179 78.776C149.224 79.5507 150.045 80.372 150.643 81.24C151.249 82.0987 151.553 82.9013 151.553 83.648C151.553 84.0027 151.487 84.3247 151.357 84.614C151.161 85.0713 150.806 85.426 150.293 85.678C149.779 85.93 149.201 86.056 148.557 86.056ZM151.029 88.73C151.636 88.506 152.182 88.226 152.667 87.89C153.162 87.554 153.549 87.204 153.829 86.84C154.119 86.4853 154.263 86.154 154.263 85.846C154.263 85.454 154.016 84.2967 153.521 82.374L154.753 81.898C154.968 82.5607 155.141 83.2607 155.271 83.998C155.411 84.726 155.481 85.342 155.481 85.846C155.481 86.7047 155.122 87.512 154.403 88.268C153.694 89.0333 152.77 89.626 151.631 90.046L151.029 88.73ZM157.097 85.916C157.172 85.356 157.209 84.376 157.209 82.976C157.209 81.6973 157.176 80.386 157.111 79.042C157.055 77.6887 156.99 76.788 156.915 76.34L158.245 76.046C158.31 76.5127 158.376 77.432 158.441 78.804C158.506 80.176 158.539 81.5013 158.539 82.78C158.539 84.236 158.492 85.3327 158.399 86.07L157.097 85.916ZM159.872 88.688C161.206 88.3987 162.233 88.03 162.952 87.582C163.67 87.1433 164.104 86.602 164.254 85.958C163.936 86.014 163.6 86.042 163.246 86.042C162.611 86.042 162.037 85.9393 161.524 85.734C161.01 85.5193 160.646 85.1927 160.432 84.754C160.273 84.418 160.194 84.0493 160.194 83.648C160.194 83.144 160.301 82.64 160.516 82.136C160.74 81.632 161.034 81.2167 161.398 80.89C161.771 80.5633 162.172 80.4 162.602 80.4C163.152 80.4 163.642 80.6427 164.072 81.128C164.51 81.604 164.846 82.22 165.08 82.976C165.322 83.7227 165.444 84.474 165.444 85.23C165.444 86.4433 164.991 87.47 164.086 88.31C163.19 89.15 161.939 89.7287 160.334 90.046L159.872 88.688ZM161.454 83.9C161.603 84.1147 161.86 84.2733 162.224 84.376C162.588 84.4787 163.008 84.53 163.484 84.53C163.745 84.53 164.002 84.516 164.254 84.488C164.142 83.7787 163.936 83.172 163.638 82.668C163.348 82.164 162.994 81.8887 162.574 81.842C162.368 81.814 162.168 81.884 161.972 82.052C161.785 82.2107 161.631 82.4207 161.51 82.682C161.398 82.9433 161.342 83.1953 161.342 83.438C161.342 83.634 161.379 83.788 161.454 83.9ZM170.81 85.916C170.884 85.356 170.922 84.376 170.922 82.976C170.922 81.6973 170.889 80.386 170.824 79.042C170.768 77.6887 170.702 76.788 170.628 76.34L171.958 76.046C172.023 76.5127 172.088 77.432 172.154 78.804C172.219 80.176 172.252 81.5013 172.252 82.78C172.252 84.236 172.205 85.3327 172.112 86.07L170.81 85.916ZM172.084 88.73C172.691 88.506 173.237 88.226 173.722 87.89C174.217 87.554 174.604 87.204 174.884 86.84C175.173 86.4853 175.318 86.154 175.318 85.846C175.318 85.454 175.071 84.2967 174.576 82.374L175.808 81.898C176.023 82.5607 176.195 83.2607 176.326 83.998C176.466 84.726 176.536 85.342 176.536 85.846C176.536 86.7047 176.177 87.512 175.458 88.268C174.749 89.0333 173.825 89.626 172.686 90.046L172.084 88.73ZM184.432 86.056C183.676 86.056 183.032 85.9487 182.5 85.734C181.968 85.5193 181.548 85.2813 181.24 85.02L181.856 83.914C182.22 84.11 182.579 84.2733 182.934 84.404C183.288 84.5253 183.741 84.586 184.292 84.586C184.796 84.586 185.206 84.5207 185.524 84.39C185.85 84.2593 186.065 84.11 186.168 83.942C186.196 83.8673 186.21 83.7787 186.21 83.676C186.21 83.2747 185.972 82.7613 185.496 82.136C185.029 81.5013 184.296 80.8247 183.298 80.106L184.054 78.776C185.099 79.5507 185.92 80.372 186.518 81.24C187.124 82.0987 187.428 82.9013 187.428 83.648C187.428 84.0027 187.362 84.3247 187.232 84.614C187.036 85.0713 186.681 85.426 186.168 85.678C185.654 85.93 185.076 86.056 184.432 86.056ZM188.405 88.688C189.721 88.408 190.733 88.0487 191.443 87.61C192.161 87.1807 192.605 86.6487 192.773 86.014C191.755 86.014 190.929 85.9347 190.295 85.776C189.66 85.608 189.217 85.2673 188.965 84.754C188.806 84.418 188.727 84.0493 188.727 83.648C188.727 83.144 188.834 82.64 189.049 82.136C189.273 81.632 189.567 81.2167 189.931 80.89C190.304 80.5633 190.705 80.4 191.135 80.4C191.629 80.4 192.077 80.596 192.479 80.988C192.88 81.3707 193.202 81.8747 193.445 82.5C193.697 83.116 193.86 83.7693 193.935 84.46H194.481L194.565 85.23L194.481 86H193.907C193.729 87.0173 193.202 87.876 192.325 88.576C191.447 89.276 190.295 89.766 188.867 90.046L188.405 88.688ZM189.987 83.9C190.127 84.1147 190.439 84.264 190.925 84.348C191.419 84.4227 192.04 84.46 192.787 84.46C192.684 83.732 192.474 83.116 192.157 82.612C191.849 82.0987 191.475 81.842 191.037 81.842C190.841 81.842 190.649 81.926 190.463 82.094C190.285 82.262 190.141 82.472 190.029 82.724C189.926 82.9667 189.875 83.2047 189.875 83.438C189.875 83.634 189.912 83.788 189.987 83.9ZM194.285 84.46H195.489C196.637 84.46 197.71 84.3247 198.709 84.054C199.708 83.7833 200.725 83.3727 201.761 82.822L201.999 82.696C201.514 82.556 201.005 82.3507 200.473 82.08C199.605 81.6227 198.872 81.394 198.275 81.394C197.892 81.394 197.547 81.506 197.239 81.73C196.931 81.954 196.702 82.2107 196.553 82.5L195.657 81.87C195.974 81.2353 196.357 80.7547 196.805 80.428C197.253 80.1013 197.752 79.938 198.303 79.938C198.704 79.938 199.082 80.008 199.437 80.148C199.801 80.2787 200.31 80.512 200.963 80.848C201.57 81.156 202.055 81.3847 202.419 81.534C202.783 81.6833 203.189 81.8047 203.637 81.898L203.693 83.256C203.516 83.3027 203.292 83.396 203.021 83.536C202.75 83.6667 202.456 83.8207 202.139 83.998C200.86 84.6793 199.712 85.1833 198.695 85.51C197.687 85.8367 196.572 86 195.349 86H194.285V84.46ZM197.197 77.74C197.197 77.74 197.44 77.4973 197.925 77.012L198.289 76.648C198.289 76.648 198.532 76.8907 199.017 77.376L199.381 77.74L199.017 78.104C198.532 78.5893 198.289 78.832 198.289 78.832L197.925 78.468C197.44 77.9827 197.197 77.74 197.197 77.74ZM217.957 86C217.397 86 216.926 85.818 216.543 85.454C216.469 86.7513 216.067 87.7593 215.339 88.478C214.611 89.1967 213.622 89.556 212.371 89.556C211.643 89.556 210.981 89.4067 210.383 89.108C209.786 88.8187 209.31 88.3987 208.955 87.848C208.61 87.3067 208.437 86.6813 208.437 85.972C208.437 85.4587 208.526 84.8847 208.703 84.25C208.89 83.606 209.114 83.032 209.375 82.528L210.453 83.032C210.211 83.5453 210.024 84.026 209.893 84.474C209.763 84.9127 209.697 85.3467 209.697 85.776C209.697 86.448 209.94 86.9893 210.425 87.4C210.911 87.82 211.559 88.03 212.371 88.03C214.425 88.03 215.409 86.9427 215.325 84.768C215.251 82.864 215.167 81.1747 215.073 79.7C214.989 78.216 214.905 77.096 214.821 76.34L216.137 76.046C216.249 77.1753 216.366 79.4573 216.487 82.892H216.501C216.529 83.3213 216.585 83.648 216.669 83.872C216.763 84.0867 216.907 84.2407 217.103 84.334C217.299 84.418 217.584 84.46 217.957 84.46H218.125L218.209 85.23L218.125 86H217.957ZM217.965 84.46H218.553C219.533 84.46 220.224 84.3713 220.625 84.194C221.026 84.0073 221.227 83.718 221.227 83.326C221.218 83.0647 221.12 82.64 220.933 82.052C220.746 81.464 220.592 81.0487 220.471 80.806L221.633 80.176C221.82 80.5493 222.002 81.0487 222.179 81.674C222.366 82.2993 222.459 82.8453 222.459 83.312C222.459 84.1987 222.151 84.8707 221.535 85.328C220.919 85.776 219.995 86 218.763 86H217.965V84.46ZM221.661 88.324C221.194 88.7907 220.961 89.024 220.961 89.024L220.597 89.388L219.547 88.324L220.597 87.274L221.661 88.324ZM219.169 88.324C218.702 88.7907 218.469 89.024 218.469 89.024L218.105 89.388L217.055 88.324L218.105 87.274L219.169 88.324ZM226.875 86C225.886 86 225.19 85.7433 224.789 85.23C224.397 84.7073 224.201 83.8813 224.201 82.752C224.201 81.7253 224.173 80.5587 224.117 79.252C224.07 77.936 224 76.9653 223.907 76.34L225.237 76.046C225.312 76.578 225.372 77.4273 225.419 78.594C225.466 79.7513 225.489 80.8293 225.489 81.828V82.444C225.48 83.004 225.503 83.4193 225.559 83.69C225.615 83.9607 225.741 84.1567 225.937 84.278C226.133 84.3993 226.446 84.46 226.875 84.46H226.945L227.029 85.23L226.945 86H226.875ZM226.811 84.46H227.539C228.267 84.46 228.79 84.3713 229.107 84.194C229.424 84.0167 229.583 83.7413 229.583 83.368C229.583 83.116 229.485 82.6867 229.289 82.08C229.102 81.464 228.953 81.0393 228.841 80.806L230.003 80.176C230.18 80.54 230.362 81.0487 230.549 81.702C230.736 82.346 230.829 82.9013 230.829 83.368C230.829 84.236 230.544 84.894 229.975 85.342C229.415 85.7807 228.603 86 227.539 86H226.811V84.46ZM226.783 88.338C226.783 88.338 227.026 88.0953 227.511 87.61L227.875 87.246L228.239 87.61C228.724 88.0953 228.967 88.338 228.967 88.338L228.603 88.702C228.118 89.1873 227.875 89.43 227.875 89.43C227.875 89.43 227.632 89.1873 227.147 88.702L226.783 88.338ZM231.786 88.688C233.102 88.408 234.114 88.0487 234.824 87.61C235.542 87.1807 235.986 86.6487 236.154 86.014C235.136 86.014 234.31 85.9347 233.676 85.776C233.041 85.608 232.598 85.2673 232.346 84.754C232.187 84.418 232.108 84.0493 232.108 83.648C232.108 83.144 232.215 82.64 232.43 82.136C232.654 81.632 232.948 81.2167 233.312 80.89C233.685 80.5633 234.086 80.4 234.516 80.4C235.01 80.4 235.458 80.596 235.86 80.988C236.261 81.3707 236.583 81.8747 236.826 82.5C237.078 83.116 237.241 83.7693 237.316 84.46H237.862L237.946 85.23L237.862 86H237.288C237.11 87.0173 236.583 87.876 235.706 88.576C234.828 89.276 233.676 89.766 232.248 90.046L231.786 88.688ZM233.368 83.9C233.508 84.1147 233.82 84.264 234.306 84.348C234.8 84.4227 235.421 84.46 236.168 84.46C236.065 83.732 235.855 83.116 235.538 82.612C235.23 82.0987 234.856 81.842 234.418 81.842C234.222 81.842 234.03 81.926 233.844 82.094C233.666 82.262 233.522 82.472 233.41 82.724C233.307 82.9667 233.256 83.2047 233.256 83.438C233.256 83.634 233.293 83.788 233.368 83.9ZM237.708 84.46H237.96C238.333 84.46 238.679 84.3527 238.996 84.138C239.313 83.9233 239.584 83.5967 239.808 83.158C240.219 82.3553 240.634 81.7207 241.054 81.254C241.474 80.7873 241.931 80.54 242.426 80.512C242.921 80.484 243.35 80.6147 243.714 80.904C244.087 81.1933 244.372 81.576 244.568 82.052C244.764 82.528 244.862 83.0273 244.862 83.55C244.862 84.0633 244.764 84.5347 244.568 84.964C244.372 85.384 244.083 85.7013 243.7 85.916C243.532 86.0187 243.317 86.07 243.056 86.07C242.375 86.07 241.423 85.6827 240.2 84.908C239.631 85.636 238.875 86 237.932 86H237.68L237.708 84.46ZM240.886 83.69C241.353 83.9887 241.777 84.222 242.16 84.39C242.552 84.5487 242.855 84.628 243.07 84.628C243.163 84.628 243.238 84.614 243.294 84.586C243.434 84.5113 243.541 84.39 243.616 84.222C243.691 84.0447 243.728 83.844 243.728 83.62C243.728 83.1907 243.616 82.7987 243.392 82.444C243.168 82.0893 242.879 81.912 242.524 81.912C242.048 81.912 241.502 82.5047 240.886 83.69ZM252.288 86.042C251.495 86.042 250.869 85.8227 250.412 85.384C249.964 84.936 249.74 84.376 249.74 83.704C249.74 83.4987 249.773 83.2513 249.838 82.962C250.043 82.15 250.501 81.3567 251.21 80.582L250.72 80.274L251.49 79.07C252.675 79.77 253.557 80.4747 254.136 81.184C254.724 81.884 255.018 82.626 255.018 83.41C255.018 83.914 254.897 84.3667 254.654 84.768C254.421 85.1693 254.094 85.482 253.674 85.706C253.263 85.93 252.801 86.042 252.288 86.042ZM250.958 83.242C250.949 83.2887 250.944 83.354 250.944 83.438C250.944 83.774 251.061 84.0447 251.294 84.25C251.537 84.446 251.887 84.544 252.344 84.544C252.764 84.544 253.109 84.4553 253.38 84.278C253.66 84.0913 253.814 83.8533 253.842 83.564C253.833 83.1907 253.697 82.822 253.436 82.458C253.175 82.0847 252.764 81.688 252.204 81.268C251.429 82.0053 251.014 82.6633 250.958 83.242ZM254.361 88.73C254.968 88.506 255.514 88.226 255.999 87.89C256.494 87.554 256.881 87.204 257.161 86.84C257.451 86.4853 257.595 86.154 257.595 85.846C257.595 85.454 257.348 84.2967 256.853 82.374L258.085 81.898C258.3 82.5607 258.473 83.2607 258.603 83.998C258.743 84.726 258.813 85.342 258.813 85.846C258.813 86.7047 258.454 87.512 257.735 88.268C257.026 89.0333 256.102 89.626 254.963 90.046L254.361 88.73ZM263.215 86C262.226 86 261.53 85.7433 261.129 85.23C260.737 84.7073 260.541 83.8813 260.541 82.752C260.541 81.7253 260.513 80.5587 260.457 79.252C260.41 77.936 260.34 76.9653 260.247 76.34L261.577 76.046C261.652 76.578 261.712 77.4273 261.759 78.594C261.806 79.7513 261.829 80.8293 261.829 81.828V82.444C261.82 83.004 261.843 83.4193 261.899 83.69C261.955 83.9607 262.081 84.1567 262.277 84.278C262.473 84.3993 262.786 84.46 263.215 84.46H263.285L263.369 85.23L263.285 86H263.215ZM263.151 84.46H263.431C264.196 84.46 264.812 84.026 265.279 83.158C265.745 82.3087 266.189 81.6553 266.609 81.198C267.038 80.7407 267.509 80.512 268.023 80.512C268.583 80.512 269.031 80.708 269.367 81.1C269.712 81.492 269.983 82.0333 270.179 82.724C270.356 83.3587 270.519 83.8067 270.669 84.068C270.827 84.3293 271.042 84.46 271.313 84.46H271.453L271.537 85.23L271.453 86H271.313C270.669 86 270.211 85.6453 269.941 84.936C269.913 85.1413 269.824 85.3327 269.675 85.51C269.525 85.678 269.357 85.8133 269.171 85.916C268.984 86.0187 268.769 86.07 268.527 86.07C267.836 86.07 266.889 85.6827 265.685 84.908C265.405 85.272 265.069 85.5473 264.677 85.734C264.285 85.9113 263.86 86 263.403 86H263.151V84.46ZM269.031 84.698C269.161 84.5113 269.227 84.2547 269.227 83.928C269.227 83.62 269.175 83.312 269.073 83.004C268.97 82.6867 268.825 82.4253 268.639 82.22C268.452 82.0147 268.237 81.912 267.995 81.912C267.519 81.912 266.968 82.5 266.343 83.676C266.847 84.0307 267.318 84.2967 267.757 84.474C268.205 84.642 268.559 84.726 268.821 84.726C268.886 84.726 268.956 84.7167 269.031 84.698ZM279.125 86C278.658 85.9907 278.271 85.8693 277.963 85.636C277.664 85.3933 277.449 85.0527 277.319 84.614C277.095 85.034 276.815 85.37 276.479 85.622C276.152 85.8647 275.793 85.9907 275.401 86H275.345C274.925 86 274.57 85.8787 274.281 85.636C273.991 85.3933 273.809 85.0667 273.735 84.656C273.119 85.552 272.339 86 271.397 86H271.341L271.257 85.23L271.341 84.46H271.411C271.747 84.46 272.059 84.3853 272.349 84.236C272.647 84.0867 272.876 83.8953 273.035 83.662C273.221 83.4193 273.366 83.1533 273.469 82.864C273.581 82.5747 273.679 82.262 273.763 81.926L274.939 82.052C274.929 82.0987 274.878 82.29 274.785 82.626C274.691 82.962 274.645 83.2793 274.645 83.578C274.645 83.8673 274.701 84.0867 274.813 84.236C274.934 84.3853 275.121 84.46 275.373 84.46H275.401C275.914 84.46 276.334 84.1567 276.661 83.55C276.782 83.326 276.875 83.074 276.941 82.794C277.015 82.5047 277.085 82.1733 277.151 81.8L278.327 81.856C278.205 82.4907 278.145 82.9527 278.145 83.242C278.145 83.6433 278.224 83.9467 278.383 84.152C278.551 84.3573 278.807 84.46 279.153 84.46C279.479 84.46 279.727 84.3713 279.895 84.194C280.063 84.0073 280.147 83.746 280.147 83.41C280.147 83.1113 280.053 82.6867 279.867 82.136C279.689 81.576 279.531 81.1373 279.391 80.82L280.525 80.19C280.711 80.5913 280.898 81.1093 281.085 81.744C281.281 82.3787 281.379 82.9433 281.379 83.438C281.379 83.9047 281.285 84.334 281.099 84.726C280.912 85.118 280.651 85.4307 280.315 85.664C279.979 85.888 279.601 86 279.181 86H279.125ZM275.443 78.776C275.443 78.776 275.667 78.552 276.115 78.104L276.437 77.782L277.445 78.776L276.437 79.784L275.443 78.776ZM278.019 78.776C278.289 78.5053 278.425 78.37 278.425 78.37L279.041 77.782L280.035 78.776L279.041 79.784L278.019 78.776ZM277.739 76.312L278.621 77.208L277.739 78.104L276.829 77.208L277.739 76.312Z" fill="#54C7C8"/>
</svg>
