<svg id="Group_597" data-name="Group 597" xmlns="http://www.w3.org/2000/svg" xmlns:xlink="http://www.w3.org/1999/xlink" width="26.592" height="30.427" viewBox="0 0 26.592 30.427">
  <defs>
    <linearGradient id="linear-gradient" x1="0.5" x2="0.5" y2="1" gradientUnits="objectBoundingBox">
      <stop offset="0" stop-color="#fb0"/>
      <stop offset="1" stop-color="#805e00"/>
    </linearGradient>
    <clipPath id="clip-path">
      <rect id="Rectangle_644" data-name="Rectangle 644" width="26.592" height="30.427" fill="url(#linear-gradient)"/>
    </clipPath>
  </defs>
  <g id="Group_596" data-name="Group 596" clip-path="url(#clip-path)">
    <path id="Path_7940" data-name="Path 7940" d="M25.62,33.011h-.973a11.351,11.351,0,1,1-3.325-8.026,11.312,11.312,0,0,1,3.325,8.026h1.945a13.3,13.3,0,1,0-3.894,9.4,13.259,13.259,0,0,0,3.894-9.4Z" transform="translate(0 -15.88)" fill="url(#linear-gradient)"/>
    <path id="Path_7941" data-name="Path 7941" d="M14.027,62.358a7.325,7.325,0,0,1,2.156,2.655,7.724,7.724,0,0,1,.79,3.352,6.33,6.33,0,0,1-.4,2.259,5.568,5.568,0,0,1-1.253,1.947,6.486,6.486,0,0,1-2.366,1.5,8.293,8.293,0,0,1-2.883.5,8.889,8.889,0,0,1-2.893-.481A7.366,7.366,0,0,1,4.74,72.709a8.071,8.071,0,0,1-2.066-2.826,8.559,8.559,0,0,1-.729-3.449H0a10.508,10.508,0,0,0,.895,4.235,10.017,10.017,0,0,0,2.566,3.506A9.309,9.309,0,0,0,6.539,75.93a10.831,10.831,0,0,0,3.53.589,10.24,10.24,0,0,0,3.562-.625A8.435,8.435,0,0,0,16.7,73.94a7.52,7.52,0,0,0,1.688-2.622,8.275,8.275,0,0,0,.53-2.953,9.662,9.662,0,0,0-.987-4.2,9.264,9.264,0,0,0-2.738-3.36Z" transform="translate(0 -48.975)" fill="url(#linear-gradient)"/>
    <path id="Path_7942" data-name="Path 7942" d="M44.466,22.676s2.167-4.835-.778-9.059C41.727,10.805,38.492,6.295,42.076,0c0,0-8.586,2.584-6.407,11.921,0,0-5.4,1.445-2.012,8.948,0,0,1.042-3.946,4.626-4.863s5.981,3.71,3.772,6.9c-2.593,3.742,2.411-.229,2.411-.229" transform="translate(-26.21 -0.001)" fill-rule="evenodd" fill="url(#linear-gradient)"/>
  </g>
</svg>
