<svg id="Group_1077" data-name="Group 1077" xmlns="http://www.w3.org/2000/svg" xmlns:xlink="http://www.w3.org/1999/xlink" width="58.585" height="69.549" viewBox="0 0 58.585 69.549">
  <defs>
    <linearGradient id="linear-gradient" x1="0.5" x2="0.5" y2="1" gradientUnits="objectBoundingBox">
      <stop offset="0" stop-color="#393c97"/>
      <stop offset="1" stop-color="#37bec1"/>
    </linearGradient>
    <clipPath id="clip-path">
      <rect id="Rectangle_1449" data-name="Rectangle 1449" width="58.585" height="69.549" fill="url(#linear-gradient)"/>
    </clipPath>
    <linearGradient id="linear-gradient-3" x1="0.5" x2="0.5" y2="1" gradientUnits="objectBoundingBox">
      <stop offset="0" stop-color="#fb0"/>
      <stop offset="1" stop-color="#805e00"/>
    </linearGradient>
  </defs>
  <g id="Group_1702" data-name="Group 1702" clip-path="url(#clip-path)">
    <path id="Path_18307" data-name="Path 18307" d="M30.413,7.674v3.778A28.638,28.638,0,0,1,46.3,16.762c.7-1.01,1.577-1.927,2.176-2.992-.018-.248-3.415-1.975-2.858-2.985l3.49-4.918a1.286,1.286,0,0,1,1.509-.132l7.208,5.525a.95.95,0,0,1,0,1.08l-3.7,4.834c-1.046.926-3.3-2.042-3.885-1.925-.261.386-2.143,2.543-2.177,2.729a.285.285,0,0,0,.12.267,28.973,28.973,0,0,1,6.866,36.1c.683.032,1.556-.518,2.2-.245a1.143,1.143,0,0,1,.419,1.816A19.752,19.752,0,0,1,52.6,56.926c-.532-.081-.741-.452-.882-.939A32.636,32.636,0,0,1,51,51.949a1.1,1.1,0,0,1,1.948-.788l.555,1.574A26.98,26.98,0,0,0,36.629,14.543C13.509,8.251-6.2,32.489,5.57,53.578c8.2,14.69,26.7,17.817,40.224,8.312.564-.4,1.675-1.6,2.324-1.582a1.132,1.132,0,0,1,.77,1.876,22.477,22.477,0,0,1-3.094,2.364A29.63,29.63,0,0,1,12.4,64.242,29.061,29.061,0,0,1,8.457,19.934,12.082,12.082,0,0,1,10.4,18.307L8.233,15.373c-.724.418-2.584,2.276-3.324,2.211a1.481,1.481,0,0,1-.6-.253A51.425,51.425,0,0,1,.742,12.647a.992.992,0,0,1,.067-1.342l7.163-5.43c.755-.451,1.247.084,1.726.614A49.268,49.268,0,0,1,13,11.033c.269,1.1-2.219,2.356-3.019,2.942l2.049,2.787a24.9,24.9,0,0,0,2.9-1.7,28.57,28.57,0,0,1,13.248-3.615V7.674H22.646c-.324,0-.713-.748-.761-1.059a34.364,34.364,0,0,1-.009-5.309c.083-.743.369-1.2,1.183-1.2,3.971.285,8.415-.356,12.328,0,.716.065,1.1.3,1.186,1.053a36.711,36.711,0,0,1,0,5.464c-.042.364-.4,1.047-.773,1.047Zm3.918-5.458H24.116V5.575H34.331ZM50.093,8.242A14.38,14.38,0,0,0,48.246,10.9l5.032,3.769L55.3,12.081c-.567-.489-4.9-3.934-5.2-3.839M5.086,14.95,10.4,10.963,8.367,8.374,3.125,12.156Z" transform="translate(0 0)" fill="url(#linear-gradient)"/>
    <path id="Path_18308" data-name="Path 18308" d="M54.117,92.705c15.8-1.007,27.3,13.615,24.046,28.488a22.425,22.425,0,0,1-2.3,5.85c-8.782,15.792-31.86,15.78-40.631,0A23.172,23.172,0,0,1,54.117,92.705m-.7,2.24c-13.771,1.127-22.61,15.887-17.431,28.683,6.148,15.191,26.959,17.8,36.606,4.485,10.74-14.826-1.094-34.648-19.174-33.168" transform="translate(-26.251 -75.333)" fill="url(#linear-gradient-3)"/>
    <path id="Path_18309" data-name="Path 18309" d="M142.683,151.936c.036.058.883.461,1.17.719a9.441,9.441,0,0,1,1.139,1.52c2.016.256,4.6-.27,6.547.031a1.06,1.06,0,0,1,0,2.083h-6.694a3.479,3.479,0,0,1-6.53.226c-.767-2.06.246-3.748,2.112-4.648l-.009-9.636a1.124,1.124,0,0,1,2.234-.129Zm-1.461,2.009a1.347,1.347,0,0,0,.377,2.63c1.791-.1,1.491-3.042-.377-2.63" transform="translate(-112.246 -114.756)" fill="url(#linear-gradient-3)"/>
    <path id="Path_18310" data-name="Path 18310" d="M151.236,111.4c1.732-.374,1.642,2.227,1.377,3.34a1.1,1.1,0,0,1-2.166-.232c-.115-.821-.236-2.887.789-3.108" transform="translate(-122.26 -90.546)" fill="url(#linear-gradient)"/>
    <path id="Path_18311" data-name="Path 18311" d="M65.721,160.909c.66-.145,2.664.977,3.056,1.5a1.092,1.092,0,0,1-1.238,1.662,21.072,21.072,0,0,1-2.273-1.369,1.117,1.117,0,0,1,.454-1.8" transform="translate(-52.838 -130.816)" fill="url(#linear-gradient)"/>
    <path id="Path_18312" data-name="Path 18312" d="M229.531,160.853a1.093,1.093,0,0,1,1.159,1.724,21.232,21.232,0,0,1-2.235,1.4,1.127,1.127,0,0,1-1.473-1.473,9.078,9.078,0,0,1,2.55-1.653" transform="translate(-184.46 -130.758)" fill="url(#linear-gradient)"/>
    <path id="Path_18313" data-name="Path 18313" d="M151.262,297.786c1.71-.377,1.635,2.254,1.377,3.34a1.1,1.1,0,0,1-2.166-.232c-.111-.8-.213-2.888.789-3.108" transform="translate(-122.286 -242.084)" fill="url(#linear-gradient)"/>
    <path id="Path_18314" data-name="Path 18314" d="M68.705,255.511a10.636,10.636,0,0,1-2.543,1.318,1.08,1.08,0,0,1-.758-1.89,10.586,10.586,0,0,1,2.579-1.346,1.117,1.117,0,0,1,.722,1.919" transform="translate(-52.894 -206.182)" fill="url(#linear-gradient)"/>
    <path id="Path_18315" data-name="Path 18315" d="M227.37,255.511a1.117,1.117,0,0,1,.722-1.919,10.588,10.588,0,0,1,2.579,1.346,1.08,1.08,0,0,1-.758,1.89,10.635,10.635,0,0,1-2.543-1.318" transform="translate(-184.594 -206.182)" fill="url(#linear-gradient)"/>
    <path id="Path_18316" data-name="Path 18316" d="M51.929,210.33c.35-.434,2.79-.416,3.357-.29a1.068,1.068,0,0,1,0,2.039,14.311,14.311,0,0,1-2.879,0,1.156,1.156,0,0,1-.478-1.749" transform="translate(-42.045 -170.708)" fill="url(#linear-gradient)"/>
    <path id="Path_18317" data-name="Path 18317" d="M242.65,210.33a1.156,1.156,0,0,1-.478,1.749,14.311,14.311,0,0,1-2.879,0,1.068,1.068,0,0,1,0-2.039c.566-.126,3.007-.144,3.357.29" transform="translate(-193.946 -170.708)" fill="url(#linear-gradient)"/>
    <path id="Path_18318" data-name="Path 18318" d="M102.209,124.871a1.181,1.181,0,0,1,1.091.248,7.926,7.926,0,0,1,1.3,2.839,1.167,1.167,0,0,1-1.737.672,11.864,11.864,0,0,1-1.43-2.632,1.059,1.059,0,0,1,.772-1.128" transform="translate(-82.469 -101.496)" fill="url(#linear-gradient)"/>
    <path id="Path_18319" data-name="Path 18319" d="M196.787,124.88a1.065,1.065,0,0,1,1.382,1.235,14.775,14.775,0,0,1-1.333,2.458,1.094,1.094,0,0,1-1.774-1.065c.1-.514,1.2-2.512,1.724-2.627" transform="translate(-158.576 -101.505)" fill="url(#linear-gradient)"/>
    <path id="Path_18320" data-name="Path 18320" d="M103.206,285.816c.791-.179,1.525.281,1.415,1.122a12.569,12.569,0,0,1-1.3,2.495,1.1,1.1,0,0,1-1.843-.992c.1-.5,1.2-2.506,1.725-2.624" transform="translate(-82.488 -232.35)" fill="url(#linear-gradient)"/>
    <path id="Path_18321" data-name="Path 18321" d="M195.6,285.746c1.258-.376,1.984,1.344,2.382,2.319a1.1,1.1,0,0,1-1.582,1.44,7.322,7.322,0,0,1-1.438-2.985,1.352,1.352,0,0,1,.637-.774" transform="translate(-158.509 -232.282)" fill="url(#linear-gradient)"/>
  </g>
</svg>
