<svg width="48" height="48" viewBox="0 0 48 48" fill="none" xmlns="http://www.w3.org/2000/svg">
<path d="M0 8C0 3.58172 3.58172 0 8 0H40C44.4183 0 48 3.58172 48 8V40C48 44.4183 44.4183 48 40 48H8C3.58172 48 0 44.4183 0 40V8Z" fill="#D8DBF0"/>
<path opacity="0.4" d="M34 19.81V28.19C34 31 32.71 32.93 30.44 33.66C29.78 33.89 29.02 34 28.19 34H19.81C18.98 34 18.22 33.89 17.56 33.66C15.29 32.93 14 31 14 28.19V19.81C14 16.17 16.17 14 19.81 14H28.19C31.83 14 34 16.17 34 19.81Z" fill="#393C97"/>
<path d="M30.4401 33.66C29.7801 33.89 29.0201 34 28.1901 34H19.8101C18.9801 34 18.2201 33.89 17.5601 33.66C17.9101 31.02 20.6701 28.97 24.0001 28.97C27.3301 28.97 30.0901 31.02 30.4401 33.66Z" fill="#393C97"/>
<path d="M27.58 23.58C27.58 25.56 25.98 27.17 24 27.17C22.02 27.17 20.42 25.56 20.42 23.58C20.42 21.6 22.02 20 24 20C25.98 20 27.58 21.6 27.58 23.58Z" fill="#393C97"/>
</svg>
