<svg id="Group_1078" data-name="Group 1078" xmlns="http://www.w3.org/2000/svg" xmlns:xlink="http://www.w3.org/1999/xlink" width="52.517" height="68.441" viewBox="0 0 52.517 68.441">
  <defs>
    <linearGradient id="linear-gradient" x1="0.5" x2="0.5" y2="1" gradientUnits="objectBoundingBox">
      <stop offset="0" stop-color="#393c97"/>
      <stop offset="1" stop-color="#37bec1"/>
    </linearGradient>
    <clipPath id="clip-path">
      <rect id="Rectangle_1450" data-name="Rectangle 1450" width="52.517" height="68.44" fill="url(#linear-gradient)"/>
    </clipPath>
    <linearGradient id="linear-gradient-3" x1="0.5" x2="0.5" y2="1" gradientUnits="objectBoundingBox">
      <stop offset="0" stop-color="#fb0"/>
      <stop offset="1" stop-color="#805e00"/>
    </linearGradient>
  </defs>
  <g id="Group_1704" data-name="Group 1704" clip-path="url(#clip-path)">
    <path id="Path_18322" data-name="Path 18322" d="M5.394,68.441A6.268,6.268,0,0,1,.21,63.661c-.257-16.966-.312-34.035.028-51A6.216,6.216,0,0,1,6.132,7.99c2.1-.153,4.355.124,6.47-.017,1.1-3.5,4.709-4.3,8.021-4.015a5.991,5.991,0,0,1,11.271,0c3.306-.283,6.924.512,8.021,4.015,2.115.141,4.371-.136,6.47.017a6.216,6.216,0,0,1,5.893,4.673c.341,16.963.285,34.032.028,51a6.286,6.286,0,0,1-5.184,4.78ZM16.228,9.527c-.126.709.092,1.726,0,2.474H36.289V9.527a3.132,3.132,0,0,0-.548-.923c-1.66-1.628-6.355.632-7.307-1.787A9.313,9.313,0,0,1,28.2,5.443a2.055,2.055,0,0,0-3.418-.829c-.886.978-.137,2.471-1.617,3.16-1.668.777-6.48-.84-6.94,1.753M40.3,12.2a18.45,18.45,0,0,0,0,2.407c0,.327-.872,1.244-1.2,1.345l-25.354.062c-.505.065-1.535-1.024-1.535-1.407V12.2c0-.146-.326-.192-.461-.207a34.5,34.5,0,0,0-5.832.066,2.079,2.079,0,0,0-1.85,2.028L4.051,61.961a2.216,2.216,0,0,0,2.074,2.474H46.259a2.179,2.179,0,0,0,2.206-2.341l-.02-48a2.079,2.079,0,0,0-1.85-2.028,34.5,34.5,0,0,0-5.832-.066c-.157.018-.407.033-.461.207" transform="translate(0 0)" fill="url(#linear-gradient)"/>
    <path id="Path_18323" data-name="Path 18323" d="M170.723,288.172c1.491-.063,2.86,2.344,4.011,3.152,1.486-.954,3.529-4.673,5.586-2.518,1.877,1.966-1.489,4.082-2.585,5.422-.059.336,2.611,2.489,2.9,3.088a2.04,2.04,0,0,1-2.74,2.74c-.6-.3-2.835-2.969-3.048-2.969-1.341,1.2-3.874,4.9-5.685,2.339-1.507-2.133,1.7-3.773,2.807-5.217,0-.2-2.474-2.331-2.807-2.808a2.032,2.032,0,0,1,1.559-3.23" transform="translate(-140.499 -239.879)" fill="url(#linear-gradient-3)"/>
    <path id="Path_18324" data-name="Path 18324" d="M180.372,132.3a2.014,2.014,0,0,1,1.979,3.315,60.03,60.03,0,0,1-6.019,6.018,1.977,1.977,0,0,1-2.6.325,53.2,53.2,0,0,1-4.49-4.47,1.977,1.977,0,0,1,1.879-3.216c1.294.146,2.589,2.46,3.723,3.069.312-.055,3.792-3.915,4.5-4.472a2.428,2.428,0,0,1,1.035-.569" transform="translate(-140.509 -110.099)" fill="url(#linear-gradient-3)"/>
    <path id="Path_18325" data-name="Path 18325" d="M169.38,206.808c2-2,4.156,1.509,5.5,2.627l5.056-4.973a2,2,0,0,1,2.437,3.106,62.808,62.808,0,0,1-6.219,6.219,2.04,2.04,0,0,1-2.742-.073,40.966,40.966,0,0,1-4.141-4.151,2.1,2.1,0,0,1,.1-2.755" transform="translate(-140.535 -170.019)" fill="url(#linear-gradient-3)"/>
    <path id="Path_18326" data-name="Path 18326" d="M61.939,312.942l9.3,0c2.231.922,1.775,3.694-.655,3.965a50.78,50.78,0,0,1-8.106-.018,2.034,2.034,0,0,1-.542-3.949" transform="translate(-50.431 -260.523)" fill="url(#linear-gradient-3)"/>
    <path id="Path_18327" data-name="Path 18327" d="M62.2,144.486h9.032a2.02,2.02,0,0,1-.247,3.968,54.957,54.957,0,0,1-8.513-.023,2.021,2.021,0,0,1-.272-3.947" transform="translate(-50.557 -120.284)" fill="url(#linear-gradient-3)"/>
    <path id="Path_18328" data-name="Path 18328" d="M62.424,227.534a60.2,60.2,0,0,1,8.764,0,2.017,2.017,0,0,1,.02,3.969c-2.661.378-6.168-.233-8.918-.019a2.044,2.044,0,0,1,.134-3.951" transform="translate(-50.646 -189.288)" fill="url(#linear-gradient-3)"/>
  </g>
</svg>
