<svg width="113" height="123" viewBox="0 0 113 123" fill="none" xmlns="http://www.w3.org/2000/svg">
<path d="M0 8.16211C0 3.74383 3.58172 0.162109 8 0.162109H105C109.418 0.162109 113 3.74383 113 8.16211V114.162C113 118.58 109.418 122.162 105 122.162H8C3.58173 122.162 0 118.58 0 114.162V8.16211Z" fill="url(#paint0_linear_126_1425)"/>
<circle cx="56.5" cy="44.6621" r="40.5" fill="#37B7BF"/>
<path d="M50.2025 33.6289H54.3173L55.2154 35.7218C55.6175 36.66 56.4726 37.2428 57.4442 37.2428C58.4157 37.2428 59.2709 36.66 59.673 35.7218L60.5711 33.6289H64.6859C66.037 33.6289 67.1351 32.4632 67.1351 31.0289L67.1372 21.7621C67.1372 20.3278 66.0391 19.1621 64.6879 19.1621H50.2024C48.8512 19.1621 47.7531 20.3278 47.7531 21.7621V31.0289C47.7531 32.4632 48.8513 33.6289 50.2025 33.6289ZM53.0069 22.063H61.8833C62.3344 22.063 62.6997 22.4508 62.6997 22.9297C62.6997 23.4085 62.3344 23.7963 61.8833 23.7963H53.0069C52.5559 23.7963 52.1905 23.4085 52.1905 22.9297C52.1905 22.4508 52.5559 22.063 53.0069 22.063ZM53.0069 25.5297H61.8833C62.3344 25.5297 62.6997 25.9175 62.6997 26.3963C62.6997 26.8751 62.3344 27.263 61.8833 27.263H53.0069C52.5559 27.263 52.1905 26.8751 52.1905 26.3963C52.1905 25.9175 52.5559 25.5297 53.0069 25.5297ZM53.0069 28.9963H61.8833C62.3344 28.9963 62.6997 29.3841 62.6997 29.863C62.6997 30.3418 62.3344 30.7296 61.8833 30.7296H53.0069C52.5559 30.7296 52.1905 30.3418 52.1905 29.863C52.1905 29.3841 52.5559 28.9963 53.0069 28.9963Z" fill="#8DDAD7"/>
<path d="M57.0014 47.5498L73.74 38.1377C73.9931 37.9947 74.2605 37.8885 74.534 37.7997L72.2076 34.3697C68.4418 34.8572 59.5609 36.7943 57.0011 41.7344C54.4417 36.7944 46.5222 35.1932 42.7565 34.7057C41.7441 34.5757 40.7501 35.1368 40.2847 36.1053L39.4683 37.8018C39.7418 37.8906 40.0092 37.999 40.2623 38.1398L57.0009 47.5519L57.0014 47.5498Z" fill="#8DDAD7"/>
<path d="M38.097 60.1403C36.9377 60.7924 36.1397 62.0058 35.9621 63.3859L35.3457 68.2067C35.2151 69.225 35.6417 70.2001 36.4581 70.7504C36.8642 71.0255 37.3194 71.162 37.7745 71.162C38.2317 71.162 38.691 71.0234 39.0971 70.7439L55.4804 59.67L47.9631 54.5892L38.0965 60.138L38.097 60.1403Z" fill="#8DDAD7"/>
<path d="M58.7445 48.5288L65.9614 52.587L77.3751 44.8716C78.6242 44.0158 79.0426 42.3171 78.3466 40.9218C77.6119 39.4506 75.8872 38.8873 74.5013 39.6673L58.7424 48.5292L58.7445 48.5288Z" fill="#8DDAD7"/>
<path d="M78.6568 68.2088L78.0404 63.388C77.8629 62.0078 77.0648 60.7945 75.9055 60.1423L39.4991 39.6697C38.8276 39.2927 38.0581 39.2147 37.3315 39.4508C36.6049 39.687 36.0089 40.2113 35.6538 40.9241C34.9578 42.3194 35.3742 44.0181 36.6294 44.8761L74.9012 70.7418C75.3094 71.0213 75.7687 71.1621 76.2279 71.1621C76.683 71.1621 77.1362 71.0256 77.5423 70.7526C78.3587 70.2023 78.7853 69.2273 78.6547 68.209L78.6568 68.2088ZM57.4461 54.5957H55.9826C55.5315 54.5957 55.1662 54.2079 55.1662 53.729C55.1662 53.2502 55.5315 52.8624 55.9826 52.8624H57.4461C57.8971 52.8624 58.2625 53.2502 58.2625 53.729C58.2625 54.2079 57.8971 54.5957 57.4461 54.5957Z" fill="#8DDAD7"/>
<path d="M23.2317 105.162C22.3357 105.162 21.6871 104.849 21.2857 104.224C20.7444 104.392 20.2171 104.476 19.7037 104.476C18.9197 104.476 18.2757 104.294 17.7717 103.93C17.2677 103.557 17.0157 103.053 17.0157 102.418C17.0157 101.681 17.3097 101.055 17.8977 100.542C18.4951 100.019 19.2977 99.5668 20.3057 99.1841L20.2077 98.3581L21.5097 98.0921C21.6684 99.7721 21.8037 101.051 21.9157 101.928C21.9624 102.404 22.0277 102.759 22.1117 102.992C22.1957 103.225 22.3217 103.389 22.4897 103.482C22.6577 103.575 22.9051 103.622 23.2317 103.622H23.4557L23.5397 104.392L23.4557 105.162H23.2317ZM18.2337 102.124C18.2057 102.376 18.3177 102.586 18.5697 102.754C18.8311 102.913 19.1764 102.992 19.6057 102.992C19.9697 102.992 20.3524 102.931 20.7537 102.81C20.7257 102.67 20.6931 102.441 20.6557 102.124C20.5717 101.396 20.5111 100.887 20.4737 100.598C19.8671 100.785 19.3491 101.023 18.9197 101.312C18.4904 101.592 18.2617 101.863 18.2337 102.124ZM23.2474 103.622H23.5834C24.0874 103.622 24.5354 103.608 24.9274 103.58C24.526 103.104 24.3254 102.586 24.3254 102.026C24.3254 101.961 24.3347 101.853 24.3534 101.704C24.428 101.2 24.5867 100.738 24.8294 100.318C25.0814 99.8888 25.3847 99.5528 25.7394 99.3101C26.1034 99.0674 26.486 98.9461 26.8874 98.9461C27.326 98.9461 27.718 99.0861 28.0634 99.3661C28.4087 99.6368 28.6794 99.9914 28.8754 100.43C29.0714 100.869 29.1694 101.317 29.1694 101.774C29.1694 101.858 29.16 101.984 29.1414 102.152C29.0574 102.731 28.8567 103.221 28.5394 103.622H28.7494H30.0934L30.1774 104.392L30.0934 105.162H29.2674C28.334 105.162 27.4987 105.027 26.7614 104.756C25.9494 105.027 24.89 105.162 23.5834 105.162H23.2474V103.622ZM25.6834 96.1041L26.7334 97.1541L25.6834 98.2181L24.6194 97.1541L25.6834 96.1041ZM28.1754 96.1041L29.2254 97.1541L28.1754 98.2181L27.1114 97.1541L28.1754 96.1041ZM25.5294 101.844C25.52 102.124 25.6134 102.385 25.8094 102.628C26.0147 102.871 26.3087 103.076 26.6914 103.244C27.0554 103.113 27.3354 102.95 27.5314 102.754C27.7274 102.549 27.872 102.306 27.9654 102.026C27.9934 101.783 27.9607 101.541 27.8674 101.298C27.7834 101.046 27.648 100.841 27.4614 100.682C27.2747 100.523 27.0507 100.444 26.7894 100.444C26.472 100.444 26.192 100.584 25.9494 100.864C25.716 101.135 25.576 101.461 25.5294 101.844ZM29.9339 103.622H30.6619C31.3899 103.622 31.9126 103.533 32.2299 103.356C32.5472 103.179 32.7059 102.903 32.7059 102.53C32.7059 102.278 32.6079 101.849 32.4119 101.242C32.2252 100.626 32.0759 100.201 31.9639 99.9681L33.1259 99.3381C33.3032 99.7021 33.4852 100.211 33.6719 100.864C33.8586 101.508 33.9519 102.063 33.9519 102.53C33.9519 103.398 33.6672 104.056 33.0979 104.504C32.5379 104.943 31.7259 105.162 30.6619 105.162H29.9339V103.622ZM29.9059 107.5C29.9059 107.5 30.1486 107.257 30.6339 106.772L30.9979 106.408L31.3619 106.772C31.8472 107.257 32.0899 107.5 32.0899 107.5L31.7259 107.864C31.2406 108.349 30.9979 108.592 30.9979 108.592C30.9979 108.592 30.7552 108.349 30.2699 107.864L29.9059 107.5ZM38.3653 105.162C37.376 105.162 36.6806 104.905 36.2793 104.392C35.8873 103.869 35.6913 103.043 35.6913 101.914C35.6913 100.887 35.6633 99.7208 35.6073 98.4141C35.5606 97.0981 35.4906 96.1274 35.3973 95.5021L36.7273 95.2081C36.802 95.7401 36.8626 96.5894 36.9093 97.7561C36.956 98.9134 36.9793 99.9914 36.9793 100.99V101.606C36.97 102.166 36.9933 102.581 37.0493 102.852C37.1053 103.123 37.2313 103.319 37.4273 103.44C37.6233 103.561 37.936 103.622 38.3653 103.622H38.4353L38.5193 104.392L38.4353 105.162H38.3653ZM49.6831 105.162C49.3191 105.162 48.9831 105.087 48.6751 104.938C48.3671 104.789 48.1011 104.569 47.8771 104.28C47.6624 104.551 47.4058 104.765 47.1071 104.924C46.8178 105.073 46.5051 105.153 46.1691 105.162H46.1411H46.0991C45.6324 105.153 45.2498 105.031 44.9511 104.798C44.6524 104.555 44.4378 104.215 44.3071 103.776C44.0831 104.196 43.8031 104.532 43.4671 104.784C43.1404 105.027 42.7811 105.153 42.3891 105.162H42.3331C41.9131 105.162 41.5584 105.041 41.2691 104.798C40.9798 104.555 40.7978 104.229 40.7231 103.818C40.1071 104.714 39.3278 105.162 38.3851 105.162H38.3291L38.2451 104.392L38.3291 103.622H38.3991C38.7351 103.622 39.0478 103.547 39.3371 103.398C39.6358 103.249 39.8644 103.057 40.0231 102.824C40.2098 102.581 40.3544 102.315 40.4571 102.026C40.5691 101.737 40.6671 101.424 40.7511 101.088L41.9271 101.214C41.9178 101.261 41.8664 101.452 41.7731 101.788C41.6798 102.124 41.6331 102.441 41.6331 102.74C41.6331 103.029 41.6891 103.249 41.8011 103.398C41.9224 103.547 42.1091 103.622 42.3611 103.622H42.3891C42.9024 103.622 43.3224 103.319 43.6491 102.712C43.7704 102.488 43.8638 102.236 43.9291 101.956C44.0038 101.667 44.0738 101.335 44.1391 100.962L45.3151 101.018C45.1938 101.653 45.1331 102.115 45.1331 102.404C45.1331 102.805 45.2124 103.109 45.3711 103.314C45.5391 103.519 45.7958 103.622 46.1411 103.622C46.3744 103.622 46.5984 103.575 46.8131 103.482C47.0371 103.379 47.2098 103.253 47.3311 103.104C47.2844 102.917 47.1631 102.339 46.9671 101.368C46.9578 101.303 46.9344 101.172 46.8971 100.976L48.0591 100.668C48.1711 101.284 48.2598 101.76 48.3251 102.096C48.3998 102.423 48.4651 102.67 48.5211 102.838C48.6051 103.099 48.7404 103.295 48.9271 103.426C49.1138 103.557 49.3658 103.622 49.6831 103.622H49.7671L49.8511 104.392L49.7531 105.162H49.6831ZM49.6357 103.622H49.8877C50.2611 103.622 50.6064 103.515 50.9237 103.3C51.2411 103.085 51.5117 102.759 51.7357 102.32C52.1464 101.517 52.5617 100.883 52.9817 100.416C53.4017 99.9494 53.8591 99.7021 54.3537 99.6741C54.8484 99.6461 55.2777 99.7768 55.6417 100.066C56.0151 100.355 56.2997 100.738 56.4957 101.214C56.6917 101.69 56.7897 102.189 56.7897 102.712C56.7897 103.225 56.6917 103.697 56.4957 104.126C56.2997 104.546 56.0104 104.863 55.6277 105.078C55.4597 105.181 55.2451 105.232 54.9837 105.232C54.3024 105.232 53.3504 104.845 52.1277 104.07C51.5584 104.798 50.8024 105.162 49.8597 105.162H49.6077L49.6357 103.622ZM52.8137 102.852C53.2804 103.151 53.7051 103.384 54.0877 103.552C54.4797 103.711 54.7831 103.79 54.9977 103.79C55.0911 103.79 55.1657 103.776 55.2217 103.748C55.3617 103.673 55.4691 103.552 55.5437 103.384C55.6184 103.207 55.6557 103.006 55.6557 102.782C55.6557 102.353 55.5437 101.961 55.3197 101.606C55.0957 101.251 54.8064 101.074 54.4517 101.074C53.9757 101.074 53.4297 101.667 52.8137 102.852ZM70.4878 109.334C70.3758 109.409 70.1471 109.521 69.8018 109.67C69.4658 109.819 68.9898 109.964 68.3738 110.104C67.7578 110.253 67.0671 110.328 66.3018 110.328C65.4431 110.328 64.6591 110.169 63.9498 109.852C63.2498 109.535 62.6944 109.082 62.2838 108.494C61.8731 107.906 61.6678 107.225 61.6678 106.45C61.6678 105.61 61.8684 104.868 62.2698 104.224C62.6711 103.58 63.2078 103.02 63.8798 102.544C63.3944 102.329 63.0071 102.003 62.7178 101.564C62.4378 101.125 62.2978 100.617 62.2978 100.038C62.2978 99.5528 62.4144 99.0954 62.6478 98.6661C62.8811 98.2368 63.1984 97.8821 63.5998 97.6021C64.0104 97.3128 64.4584 97.1401 64.9438 97.0841C64.9998 97.0748 65.0791 97.0701 65.1818 97.0701C65.5924 97.0701 66.0124 97.1588 66.4418 97.3361C66.8711 97.5134 67.2678 97.7514 67.6318 98.0501L67.0858 99.1001C66.7964 98.9414 66.4931 98.8201 66.1758 98.7361C65.8678 98.6428 65.5738 98.5961 65.2938 98.5961C64.9391 98.5961 64.6264 98.6661 64.3558 98.8061C64.0851 98.9461 63.8751 99.1281 63.7258 99.3521C63.5764 99.5761 63.5018 99.8094 63.5018 100.052C63.5018 100.304 63.5858 100.547 63.7538 100.78C63.9218 101.004 64.1458 101.186 64.4258 101.326C64.7151 101.466 65.0231 101.536 65.3498 101.536C65.4618 101.536 65.6204 101.517 65.8258 101.48C66.3391 101.275 67.0158 101.051 67.8558 100.808L68.1498 102.18C66.5818 102.628 65.3404 103.197 64.4258 103.888C63.5111 104.579 63.0071 105.381 62.9138 106.296C62.8951 106.772 63.0398 107.197 63.3478 107.57C63.6558 107.953 64.0898 108.251 64.6498 108.466C65.2191 108.681 65.8678 108.788 66.5958 108.788C67.1371 108.788 67.6551 108.741 68.1498 108.648C68.6444 108.555 69.0551 108.452 69.3818 108.34C69.7084 108.237 69.8951 108.172 69.9418 108.144L70.4878 109.334ZM71.2621 107.85C72.5968 107.561 73.6235 107.192 74.3421 106.744C75.0608 106.305 75.4948 105.764 75.6441 105.12C75.3268 105.176 74.9908 105.204 74.6361 105.204C74.0015 105.204 73.4275 105.101 72.9141 104.896C72.4008 104.681 72.0368 104.355 71.8221 103.916C71.6635 103.58 71.5841 103.211 71.5841 102.81C71.5841 102.306 71.6915 101.802 71.9061 101.298C72.1301 100.794 72.4241 100.379 72.7881 100.052C73.1615 99.7254 73.5628 99.5621 73.9921 99.5621C74.5428 99.5621 75.0328 99.8048 75.4621 100.29C75.9008 100.766 76.2368 101.382 76.4701 102.138C76.7128 102.885 76.8341 103.636 76.8341 104.392C76.8341 105.605 76.3815 106.632 75.4761 107.472C74.5801 108.312 73.3295 108.891 71.7241 109.208L71.2621 107.85ZM72.8441 103.062C72.9935 103.277 73.2501 103.435 73.6141 103.538C73.9781 103.641 74.3981 103.692 74.8741 103.692C75.1355 103.692 75.3921 103.678 75.6441 103.65C75.5321 102.941 75.3268 102.334 75.0281 101.83C74.7388 101.326 74.3841 101.051 73.9641 101.004C73.7588 100.976 73.5581 101.046 73.3621 101.214C73.1755 101.373 73.0215 101.583 72.9001 101.844C72.7881 102.105 72.7321 102.357 72.7321 102.6C72.7321 102.796 72.7695 102.95 72.8441 103.062ZM82.3285 105.162C82.0018 105.162 81.7031 105.087 81.4325 104.938V105.008C81.4325 105.867 81.0731 106.674 80.3545 107.43C79.6451 108.195 78.7211 108.788 77.5825 109.208L76.9805 107.892C77.5871 107.668 78.1331 107.388 78.6185 107.052C79.1131 106.716 79.5005 106.366 79.7805 106.002C80.0698 105.647 80.2145 105.316 80.2145 105.008C80.2145 104.616 79.9671 103.459 79.4725 101.536L80.7045 101.06C80.8351 101.48 80.9611 101.947 81.0825 102.46C81.2131 102.889 81.3718 103.193 81.5585 103.37C81.7451 103.538 82.0018 103.622 82.3285 103.622H82.4405L82.5245 104.392L82.4405 105.162H82.3285ZM90.0955 105.162C89.6288 105.153 89.2415 105.031 88.9335 104.798C88.6348 104.555 88.4202 104.215 88.2895 103.776C88.0655 104.196 87.7855 104.532 87.4495 104.784C87.1228 105.027 86.7635 105.153 86.3715 105.162H86.3155C85.8955 105.162 85.5408 105.041 85.2515 104.798C84.9622 104.555 84.7802 104.229 84.7055 103.818C84.0895 104.714 83.3102 105.162 82.3675 105.162H82.3115L82.2275 104.392L82.3115 103.622H82.3815C82.7175 103.622 83.0302 103.547 83.3195 103.398C83.6182 103.249 83.8468 103.057 84.0055 102.824C84.1922 102.581 84.3368 102.315 84.4395 102.026C84.5515 101.737 84.6495 101.424 84.7335 101.088L85.9095 101.214C85.9002 101.261 85.8488 101.452 85.7555 101.788C85.6622 102.124 85.6155 102.441 85.6155 102.74C85.6155 103.029 85.6715 103.249 85.7835 103.398C85.9048 103.547 86.0915 103.622 86.3435 103.622H86.3715C86.8848 103.622 87.3048 103.319 87.6315 102.712C87.7528 102.488 87.8462 102.236 87.9115 101.956C87.9862 101.667 88.0562 101.335 88.1215 100.962L89.2975 101.018C89.1762 101.653 89.1155 102.115 89.1155 102.404C89.1155 102.805 89.1948 103.109 89.3535 103.314C89.5215 103.519 89.7782 103.622 90.1235 103.622C90.4502 103.622 90.6975 103.533 90.8655 103.356C91.0335 103.169 91.1175 102.908 91.1175 102.572C91.1175 102.273 91.0242 101.849 90.8375 101.298C90.6602 100.738 90.5015 100.299 90.3615 99.9821L91.4955 99.3521C91.6822 99.7534 91.8688 100.271 92.0555 100.906C92.2515 101.541 92.3495 102.105 92.3495 102.6C92.3495 103.067 92.2562 103.496 92.0695 103.888C91.8828 104.28 91.6215 104.593 91.2855 104.826C90.9495 105.05 90.5715 105.162 90.1515 105.162H90.0955ZM86.4135 97.9381C86.4135 97.9381 86.6375 97.7141 87.0855 97.2661L87.4075 96.9441L88.4155 97.9381L87.4075 98.9461L86.4135 97.9381ZM88.9895 97.9381C89.2602 97.6674 89.3955 97.5321 89.3955 97.5321L90.0115 96.9441L91.0055 97.9381L90.0115 98.9461L88.9895 97.9381ZM88.7095 95.4741L89.5915 96.3701L88.7095 97.2661L87.7995 96.3701L88.7095 95.4741Z" fill="white"/>
<defs>
<linearGradient id="paint0_linear_126_1425" x1="56.5" y1="0.162109" x2="56.8967" y2="222.921" gradientUnits="userSpaceOnUse">
<stop stop-color="#37BEC1"/>
<stop offset="1" stop-color="#393C97"/>
</linearGradient>
</defs>
</svg>
