<svg width="114" height="123" viewBox="0 0 114 123" fill="none" xmlns="http://www.w3.org/2000/svg">
<path d="M0.5 8.16211C0.5 3.74383 4.08172 0.162109 8.5 0.162109H105.5C109.918 0.162109 113.5 3.74383 113.5 8.16211V114.162C113.5 118.58 109.918 122.162 105.5 122.162H8.5C4.08173 122.162 0.5 118.58 0.5 114.162V8.16211Z" fill="url(#paint0_linear_126_1419)"/>
<circle cx="57" cy="44.6621" r="40.5" fill="#7EBB47"/>
<path d="M54.8804 48.2816H77.7609C77.7609 60.9181 67.5169 71.1621 54.8804 71.1621C42.2439 71.1621 31.9999 60.9181 31.9999 48.2816C31.9999 35.6451 42.2439 25.4011 54.8804 25.4011V48.2816ZM61.1193 19.1622C59.9711 19.1665 59.0431 20.0944 59.0388 21.2427V42.0426C59.0431 43.1908 59.9711 44.1188 61.1193 44.123H81.9192C83.0674 44.1188 83.9954 43.1908 83.9997 42.0426C83.9911 29.4083 73.7536 19.171 61.1193 19.1622Z" fill="#9CE157"/>
<path d="M21.8496 107.892C22.4563 107.668 23.0023 107.388 23.4876 107.052C23.9823 106.716 24.3696 106.366 24.6496 106.002C24.9389 105.647 25.0836 105.316 25.0836 105.008C25.0836 104.616 24.8363 103.459 24.3416 101.536L25.5736 101.06C25.7883 101.723 25.9609 102.423 26.0916 103.16C26.2316 103.888 26.3016 104.504 26.3016 105.008C26.3016 105.867 25.9423 106.674 25.2236 107.43C24.5143 108.195 23.5903 108.788 22.4516 109.208L21.8496 107.892ZM30.7032 105.162C29.7139 105.162 29.0185 104.905 28.6172 104.392C28.2252 103.869 28.0292 103.043 28.0292 101.914C28.0292 100.887 28.0012 99.7208 27.9452 98.4141C27.8985 97.0981 27.8285 96.1274 27.7352 95.5021L29.0652 95.2081C29.1399 95.7401 29.2005 96.5894 29.2472 97.7561C29.2939 98.9134 29.3172 99.9914 29.3172 100.99V101.606C29.3079 102.166 29.3312 102.581 29.3872 102.852C29.4432 103.123 29.5692 103.319 29.7652 103.44C29.9612 103.561 30.2739 103.622 30.7032 103.622H30.7732L30.8572 104.392L30.7732 105.162H30.7032ZM30.667 103.622H30.919C31.2923 103.622 31.6377 103.515 31.955 103.3C32.2723 103.085 32.543 102.759 32.767 102.32C33.1777 101.517 33.593 100.883 34.013 100.416C34.433 99.9494 34.8903 99.7021 35.385 99.6741C35.8797 99.6461 36.309 99.7768 36.673 100.066C37.0463 100.355 37.331 100.738 37.527 101.214C37.723 101.69 37.821 102.189 37.821 102.712C37.821 103.225 37.723 103.697 37.527 104.126C37.331 104.546 37.0417 104.863 36.659 105.078C36.491 105.181 36.2763 105.232 36.015 105.232C35.3337 105.232 34.3817 104.845 33.159 104.07C32.5897 104.798 31.8337 105.162 30.891 105.162H30.639L30.667 103.622ZM33.845 102.852C34.3117 103.151 34.7363 103.384 35.119 103.552C35.511 103.711 35.8143 103.79 36.029 103.79C36.1223 103.79 36.197 103.776 36.253 103.748C36.393 103.673 36.5003 103.552 36.575 103.384C36.6497 103.207 36.687 103.006 36.687 102.782C36.687 102.353 36.575 101.961 36.351 101.606C36.127 101.251 35.8377 101.074 35.483 101.074C35.007 101.074 34.461 101.667 33.845 102.852ZM39.4149 105.078C39.4709 104.611 39.4989 103.795 39.4989 102.628C39.4989 101.517 39.4709 100.379 39.4149 99.2121C39.3682 98.0361 39.3076 97.2148 39.2329 96.7481L40.5489 96.4681C40.6142 96.9441 40.6749 97.7794 40.7309 98.9741C40.7962 100.159 40.8289 101.312 40.8289 102.432C40.8289 103.655 40.7916 104.588 40.7169 105.232L39.4149 105.078ZM37.5669 95.6141C37.7256 95.2314 37.9262 94.9328 38.1689 94.7181C38.4022 94.4941 38.6589 94.3774 38.9389 94.3681C39.1162 94.3588 39.2749 94.3728 39.4149 94.4101C39.5549 94.4474 39.7182 94.5081 39.9049 94.5921C40.0262 94.6388 40.1476 94.6854 40.2689 94.7321C40.3902 94.7694 40.5116 94.7881 40.6329 94.7881C40.8009 94.7881 40.9736 94.7368 41.1509 94.6341C41.3282 94.5314 41.4729 94.3961 41.5849 94.2281L42.1029 94.6761C41.9162 94.9654 41.6922 95.1941 41.4309 95.3621C41.1696 95.5208 40.9036 95.6001 40.6329 95.6001C40.4742 95.6001 40.3296 95.5814 40.1989 95.5441C40.0776 95.5068 39.9282 95.4461 39.7509 95.3621C39.6016 95.2968 39.4756 95.2501 39.3729 95.2221C39.2702 95.1848 39.1629 95.1661 39.0509 95.1661C38.8642 95.1661 38.6916 95.2314 38.5329 95.3621C38.3742 95.4928 38.2436 95.6841 38.1409 95.9361L37.5669 95.6141ZM48.9794 105.204C48.1861 105.204 47.5608 104.985 47.1034 104.546C46.6554 104.098 46.4314 103.538 46.4314 102.866C46.4314 102.661 46.4641 102.413 46.5294 102.124C46.7348 101.312 47.1921 100.519 47.9014 99.7441L47.4114 99.4361L48.1814 98.2321C49.3668 98.9321 50.2488 99.6368 50.8274 100.346C51.4154 101.046 51.7094 101.788 51.7094 102.572C51.7094 103.076 51.5881 103.529 51.3454 103.93C51.1121 104.331 50.7854 104.644 50.3654 104.868C49.9548 105.092 49.4928 105.204 48.9794 105.204ZM47.6494 102.404C47.6401 102.451 47.6354 102.516 47.6354 102.6C47.6354 102.936 47.7521 103.207 47.9854 103.412C48.2281 103.608 48.5781 103.706 49.0354 103.706C49.4554 103.706 49.8008 103.617 50.0714 103.44C50.3514 103.253 50.5054 103.015 50.5334 102.726C50.5241 102.353 50.3888 101.984 50.1274 101.62C49.8661 101.247 49.4554 100.85 48.8954 100.43C48.1208 101.167 47.7054 101.825 47.6494 102.404ZM60.1271 105.162C59.7071 105.162 59.3338 105.087 59.0071 104.938C58.6805 104.779 58.3865 104.541 58.1251 104.224C57.3785 104.887 56.5058 105.218 55.5071 105.218C54.8445 105.218 54.2751 105.115 53.7991 104.91C53.3231 104.705 52.8938 104.462 52.5111 104.182L53.1271 103.076C53.4911 103.281 53.8365 103.449 54.1631 103.58C54.4991 103.701 54.9051 103.762 55.3811 103.762C56.1465 103.762 56.8465 103.557 57.4811 103.146L55.5211 98.5681L56.6831 97.9521L58.6011 102.488C58.7785 102.917 58.9791 103.216 59.2031 103.384C59.4271 103.543 59.7351 103.622 60.1271 103.622H60.2811L60.3651 104.392L60.2811 105.162H60.1271ZM60.1709 103.622H60.3669C60.9082 103.622 61.3936 103.608 61.8229 103.58C61.3749 103.104 61.1509 102.586 61.1509 102.026C61.1509 101.923 61.1556 101.844 61.1649 101.788C61.2116 101.415 61.3142 101.06 61.4729 100.724C61.6409 100.379 61.8462 100.071 62.0889 99.8001C61.9676 99.7721 61.8229 99.7348 61.6549 99.6881L62.2009 98.2601C63.9276 98.8201 65.2716 99.3521 66.2329 99.8561C67.2036 100.36 67.8756 100.841 68.2489 101.298C68.6222 101.755 68.8089 102.231 68.8089 102.726C68.8089 103.034 68.7482 103.379 68.6269 103.762C68.4869 104.229 68.1789 104.579 67.7029 104.812C67.2269 105.045 66.6576 105.162 65.9949 105.162C65.2296 105.162 64.4782 105.027 63.7409 104.756C62.9196 105.027 61.7949 105.162 60.3669 105.162H60.1709V103.622ZM62.3409 101.788C62.3409 102.059 62.4576 102.32 62.6909 102.572C62.9336 102.824 63.2602 103.048 63.6709 103.244C64.4829 102.955 64.8889 102.474 64.8889 101.802C64.8889 101.503 64.8142 101.228 64.6649 100.976C64.5249 100.724 64.3336 100.547 64.0909 100.444C64.0629 100.444 64.0302 100.435 63.9929 100.416L63.8109 100.374C63.5962 100.346 63.3722 100.397 63.1389 100.528C62.9149 100.659 62.7236 100.841 62.5649 101.074C62.4156 101.307 62.3409 101.545 62.3409 101.788ZM65.3089 103.748C65.5516 103.795 65.8362 103.818 66.1629 103.818C66.6016 103.818 66.9516 103.748 67.2129 103.608C67.4836 103.468 67.6189 103.253 67.6189 102.964C67.6189 102.712 67.4789 102.441 67.1989 102.152C66.9189 101.863 66.5036 101.569 65.9529 101.27C65.9809 101.419 65.9949 101.578 65.9949 101.746C65.9949 101.849 65.9856 101.993 65.9669 102.18C65.8642 102.833 65.6449 103.356 65.3089 103.748ZM73.168 105.162C72.1787 105.162 71.4834 104.905 71.082 104.392C70.69 103.869 70.494 103.043 70.494 101.914C70.494 100.887 70.466 99.7208 70.41 98.4141C70.3634 97.0981 70.2934 96.1274 70.2 95.5021L71.53 95.2081C71.6047 95.7401 71.6654 96.5894 71.712 97.7561C71.7587 98.9134 71.782 99.9914 71.782 100.99V101.606C71.7727 102.166 71.796 102.581 71.852 102.852C71.908 103.123 72.034 103.319 72.23 103.44C72.426 103.561 72.7387 103.622 73.168 103.622H73.238L73.322 104.392L73.238 105.162H73.168ZM84.4858 105.162C84.1218 105.162 83.7858 105.087 83.4778 104.938C83.1698 104.789 82.9038 104.569 82.6798 104.28C82.4652 104.551 82.2085 104.765 81.9098 104.924C81.6205 105.073 81.3078 105.153 80.9718 105.162H80.9438H80.9018C80.4352 105.153 80.0525 105.031 79.7538 104.798C79.4552 104.555 79.2405 104.215 79.1098 103.776C78.8858 104.196 78.6058 104.532 78.2698 104.784C77.9432 105.027 77.5838 105.153 77.1918 105.162H77.1358C76.7158 105.162 76.3612 105.041 76.0718 104.798C75.7825 104.555 75.6005 104.229 75.5258 103.818C74.9098 104.714 74.1305 105.162 73.1878 105.162H73.1318L73.0478 104.392L73.1318 103.622H73.2018C73.5378 103.622 73.8505 103.547 74.1398 103.398C74.4385 103.249 74.6672 103.057 74.8258 102.824C75.0125 102.581 75.1572 102.315 75.2598 102.026C75.3718 101.737 75.4698 101.424 75.5538 101.088L76.7298 101.214C76.7205 101.261 76.6692 101.452 76.5758 101.788C76.4825 102.124 76.4358 102.441 76.4358 102.74C76.4358 103.029 76.4918 103.249 76.6038 103.398C76.7252 103.547 76.9118 103.622 77.1638 103.622H77.1918C77.7052 103.622 78.1252 103.319 78.4518 102.712C78.5732 102.488 78.6665 102.236 78.7318 101.956C78.8065 101.667 78.8765 101.335 78.9418 100.962L80.1178 101.018C79.9965 101.653 79.9358 102.115 79.9358 102.404C79.9358 102.805 80.0152 103.109 80.1738 103.314C80.3418 103.519 80.5985 103.622 80.9438 103.622C81.1772 103.622 81.4012 103.575 81.6158 103.482C81.8398 103.379 82.0125 103.253 82.1338 103.104C82.0872 102.917 81.9658 102.339 81.7698 101.368C81.7605 101.303 81.7372 101.172 81.6998 100.976L82.8618 100.668C82.9738 101.284 83.0625 101.76 83.1278 102.096C83.2025 102.423 83.2678 102.67 83.3238 102.838C83.4078 103.099 83.5432 103.295 83.7298 103.426C83.9165 103.557 84.1685 103.622 84.4858 103.622H84.5698L84.6538 104.392L84.5558 105.162H84.4858ZM77.4018 98.4841C77.7285 98.1481 78.0598 97.8168 78.3958 97.4901L79.4038 98.4841L79.0678 98.8201C78.6198 99.2681 78.3958 99.4921 78.3958 99.4921L77.4018 98.4841ZM80.9858 97.4901C81.3218 97.8168 81.6532 98.1481 81.9798 98.4841L80.9858 99.4921C80.6592 99.1468 80.3232 98.8108 79.9778 98.4841L80.9858 97.4901ZM78.7878 96.9161C78.7878 96.9161 78.9885 96.7154 79.3898 96.3141L79.6838 96.0201C79.9918 96.3094 80.2905 96.6081 80.5798 96.9161L80.2858 97.2101C79.8845 97.6114 79.6838 97.8121 79.6838 97.8121L78.7878 96.9161ZM84.4385 103.622H84.6905C85.0638 103.622 85.4091 103.515 85.7265 103.3C86.0438 103.085 86.3145 102.759 86.5385 102.32C86.9491 101.517 87.3645 100.883 87.7845 100.416C88.2045 99.9494 88.6618 99.7021 89.1565 99.6741C89.6511 99.6461 90.0805 99.7768 90.4445 100.066C90.8178 100.355 91.1025 100.738 91.2985 101.214C91.4945 101.69 91.5925 102.189 91.5925 102.712C91.5925 103.225 91.4945 103.697 91.2985 104.126C91.1025 104.546 90.8131 104.863 90.4305 105.078C90.2625 105.181 90.0478 105.232 89.7865 105.232C89.1051 105.232 88.1531 104.845 86.9305 104.07C86.3611 104.798 85.6051 105.162 84.6625 105.162H84.4105L84.4385 103.622ZM87.6165 102.852C88.0831 103.151 88.5078 103.384 88.8905 103.552C89.2825 103.711 89.5858 103.79 89.8005 103.79C89.8938 103.79 89.9685 103.776 90.0245 103.748C90.1645 103.673 90.2718 103.552 90.3465 103.384C90.4211 103.207 90.4585 103.006 90.4585 102.782C90.4585 102.353 90.3465 101.961 90.1225 101.606C89.8985 101.251 89.6091 101.074 89.2545 101.074C88.7785 101.074 88.2325 101.667 87.6165 102.852Z" fill="white"/>
<defs>
<linearGradient id="paint0_linear_126_1419" x1="57" y1="0.162108" x2="34.8138" y2="250.926" gradientUnits="userSpaceOnUse">
<stop stop-color="#82C341"/>
<stop offset="1" stop-color="#393C97"/>
</linearGradient>
</defs>
</svg>
