<svg xmlns="http://www.w3.org/2000/svg" xmlns:xlink="http://www.w3.org/1999/xlink" width="71.579" height="66.117" viewBox="0 0 71.579 66.117">
  <defs>
    <linearGradient id="linear-gradient" x1="0.5" x2="0.5" y2="1" gradientUnits="objectBoundingBox">
      <stop offset="0" stop-color="#fb0"/>
      <stop offset="1" stop-color="#805e00"/>
    </linearGradient>
    <clipPath id="clip-path">
      <rect id="Rectangle_1447" data-name="Rectangle 1447" width="71.579" height="66.117" transform="translate(0 0)" fill="url(#linear-gradient)"/>
    </clipPath>
    <linearGradient id="linear-gradient-2" x1="0.5" x2="0.5" y2="1" gradientUnits="objectBoundingBox">
      <stop offset="0" stop-color="#393c97"/>
      <stop offset="1" stop-color="#37bec1"/>
    </linearGradient>
  </defs>
  <g id="Group_1075" data-name="Group 1075" transform="translate(0 0.004)">
    <g id="Group_1698" data-name="Group 1698" transform="translate(0 -0.004)" clip-path="url(#clip-path)">
      <path id="Path_18297" data-name="Path 18297" d="M30.472,14.871c-1.61-1.7-3.5-3.136-5.174-4.766-.56-.545-2.143-1.938-2.251-2.6-.35-2.145,1.671-3.183,3.373-2.081,3.128,2.894,6.2,5.863,9.444,8.624l14-13.324A2.11,2.11,0,1,1,52.88,3.662c-2.759,3.065-6.671,6.2-9.725,9.1a27.254,27.254,0,0,0-2.016,2.105H60.614c5.419,0,10.39,5.889,10.755,11.064.668,9.47-.52,19.715,0,29.267a12.117,12.117,0,0,1-10.747,10.91L10.676,66.1A12.212,12.212,0,0,1,.251,55.355c-.782-9.575.564-20.2.017-29.878.192-4.784,5.768-10.606,10.567-10.606Zm-19.6,4.244a7.957,7.957,0,0,0-6.385,6.221c.09,9.269-.811,19.344-.2,28.564.3,4.6,3,7.716,7.669,8.17H59.651c4.775-.454,7.393-3.655,7.677-8.323.562-9.2-.272-19.169-.209-28.411A7.909,7.909,0,0,0,60.3,19.068Z" transform="translate(0 0.004)" fill="url(#linear-gradient-2)"/>
      <path id="Path_18298" data-name="Path 18298" d="M116.484,350.281l39.723-.048a5.545,5.545,0,0,1,4.717,3.687c.48,9.9.071,19.914.208,29.856a5.45,5.45,0,0,1-4.6,4.45H116.6a5.547,5.547,0,0,1-4.6-4.612l0-28.606a5.577,5.577,0,0,1,4.485-4.727m.477,4.195c-.627.14-.918.9-.932,1.493l0,26.52a1.532,1.532,0,0,0,1.534,1.7c12.886-.1,25.812.16,38.674-.13a1.528,1.528,0,0,0,.857-1.405c-.1-9.169.159-18.378-.13-27.522-.246-.418-.544-.76-1.08-.7Z" transform="translate(-105.122 -328.737)" fill="url(#linear-gradient)"/>
      <path id="Path_18299" data-name="Path 18299" d="M954.367,575.95c4.87-1,5.627,6.338.911,6.58-3.884.2-4.517-5.838-.911-6.58" transform="translate(-893.555 -540.512)" fill="url(#linear-gradient-2)"/>
      <path id="Path_18300" data-name="Path 18300" d="M953.757,442.012c5.429-.924,5.5,7.273-.029,6.416a3.846,3.846,0,0,1-1.87-1.362c-1.212-1.734-.227-4.692,1.9-5.054" transform="translate(-892.943 -414.815)" fill="url(#linear-gradient-2)"/>
    </g>
  </g>
</svg>
